<?xml version="1.0" encoding="UTF-8" standalone="no"?>
<svg
   clip-rule="evenodd"
   fill-rule="evenodd"
   stroke-linejoin="round"
   stroke-miterlimit="1.41421"
   viewBox="0 0 560 235"
   version="1.1"
   id="svg4"
   sodipodi:docname="Allianz.svg"
   width="560"
   height="235"
   inkscape:version="1.4.3 (0d15f75042, 2025-12-25)"
   xmlns:inkscape="http://www.inkscape.org/namespaces/inkscape"
   xmlns:sodipodi="http://sodipodi.sourceforge.net/DTD/sodipodi-0.dtd"
   xmlns="http://www.w3.org/2000/svg"
   xmlns:svg="http://www.w3.org/2000/svg">
  <defs
     id="defs4" />
  <sodipodi:namedview
     id="namedview4"
     pagecolor="#ffffff"
     bordercolor="#000000"
     borderopacity="0.25"
     inkscape:showpageshadow="2"
     inkscape:pageopacity="0.0"
     inkscape:pagecheckerboard="0"
     inkscape:deskcolor="#d1d1d1"
     inkscape:zoom="0.36964286"
     inkscape:cx="280"
     inkscape:cy="198.84058"
     inkscape:window-width="1600"
     inkscape:window-height="864"
     inkscape:window-x="0"
     inkscape:window-y="0"
     inkscape:window-maximized="1"
     inkscape:current-layer="svg4" />
  <g
     fill="#004a93"
     id="g4"
     transform="matrix(1.466892,0,0,1.466892,-122.6142,-169.75793)">
    <path
       d="m 211.565,69.441 2.034,-0.814 c 5.425,-2.17 8.815,-2.983 12.884,-3.729 2.034,-0.271 4.747,-0.543 6.103,-0.543 6.781,0 8.815,2.238 8.815,8.476 v 1.763 c -9.493,1.56 -12.206,2.103 -17.63,3.255 -2.713,0.678 -5.425,1.56 -8.138,2.713 -8.815,3.526 -12.883,10.307 -12.883,20.953 0,13.358 5.424,19.732 17.63,19.732 4.747,0 9.493,-1.085 12.884,-3.255 3.39,-1.559 4.746,-2.373 8.815,-6.102 v 2.169 c 0,4.408 2.034,6.51 6.103,6.51 h 20.343 v -7.255 h -0.678 c -4.069,0 -6.103,-1.831 -6.103,-5.493 V 73.17 c 0,-18.037 -6.103,-24.14 -23.734,-24.14 -6.102,0 -11.527,0.678 -16.952,1.967 -5.425,1.288 -8.137,2.238 -14.24,5.425 z M 51.535,26.314 c 6.103,0 8.815,1.831 10.171,7.527 l 24.412,86.728 H 63.063 L 56.282,97.717 H 28.48 l -6.781,22.852 H 0 L 24.411,46.454 c 2.035,-4.679 2.035,-5.968 2.035,-7.934 0,-3.119 -2.035,-4.408 -6.103,-4.408 H 17.63 v -7.798 z m 56.282,0 c 4.746,0 7.459,2.374 7.459,6.917 v 87.338 H 94.255 v -81.1 c 0,-3.661 -2.034,-5.357 -6.103,-5.357 h -1.356 v -7.798 z m 37.973,0 c 4.747,0 7.459,2.374 7.459,6.917 v 87.338 h -21.021 v -81.1 c 0,-3.661 -2.034,-5.357 -6.103,-5.357 h -1.356 v -7.798 z m 38.651,23.666 c 4.069,0 6.781,2.577 6.781,6.984 v 63.605 H 170.201 V 63.203 c 0,-3.866 -1.356,-5.561 -5.425,-5.561 H 163.42 V 49.98 Z m 108.495,0 c 4.069,0 6.103,2.17 6.103,6.577 v 3.798 c 9.493,-8.205 15.596,-11.189 23.733,-11.189 6.103,0 10.171,1.695 13.562,5.357 2.712,3.729 4.068,8.001 4.068,17.902 v 48.144 h -21.02 V 75.815 c 0,-7.188 -1.357,-9.222 -6.103,-9.222 -4.747,0 -8.137,1.695 -12.884,6.103 v 47.873 H 279.374 V 63.203 c 0,-3.866 -2.034,-5.561 -6.103,-5.561 h -0.678 V 49.98 Z m -51.535,36.345 v 14.105 c -4.069,4.068 -8.815,6.374 -12.884,6.374 -4.068,0 -6.103,-1.967 -6.103,-7.256 0,-5.831 1.357,-8.069 6.103,-9.9 3.391,-1.424 6.781,-2.305 12.884,-3.323 z M 53.569,82.664 43.398,45.165 31.87,82.664 Z M 191.9,34.655 c 0,-6.239 -4.746,-9.9 -12.205,-9.9 -8.138,0 -12.206,3.661 -12.206,9.9 0,6.374 4.068,10.103 12.206,10.103 7.459,0 12.205,-3.729 12.205,-10.103 z"
       transform="matrix(0.58728,0,0,0.58728,106.17172,155.00026)"
       id="path1" />
    <g
       transform="matrix(3.9823046,0,0,-3.9823046,-5696.4413,3188.3179)"
       id="g3">
      <path
         d="m 1516.9,745.91 h -4.6 l 4.4,6.28 v 2.14 h -6.6 c -0.8,0 -1.1,-0.32 -1.1,-1.09 v -1.89 h 1.1 v 0.21 c 0,0.57 0.3,0.8 0.9,0.8 h 2.4 l -4.5,-6.28 v -2.16 h 8"
         fill-rule="nonzero"
         id="path2" />
      <path
         d="m 1534.6,744.49 v 11.78 c 0,0.95 -0.4,1.26 -1.3,1.26 h -2.7 v -1.3 h 0.3 c 0.5,0 0.7,-0.19 0.7,-0.77 v -10.97 z m 1.6,0 h 2.9 v 8.89 c 0,0.9 -0.4,1.26 -1.3,1.26 h -1.6 z m -6.2,0 v 10.15 h -1.6 c -0.9,0 -1.3,-0.36 -1.3,-1.26 v -8.89 z m 12.5,5.92 c 0,-5.51 -4,-9.53 -9.4,-9.53 -5.4,0 -9.4,4.02 -9.4,9.53 0,5.51 4,9.53 9.4,9.53 5.4,0 9.4,-4.02 9.4,-9.53 m 1.9,0 c 0,6.45 -4.8,11.29 -11.3,11.29 -6.4,0 -11.3,-4.84 -11.3,-11.29 0,-6.47 4.9,-11.31 11.3,-11.31 6.5,0 11.3,4.84 11.3,11.31"
         id="path3" />
    </g>
  </g>
</svg>
