<?xml version="1.0" encoding="UTF-8" standalone="no"?>
<!-- Created with Inkscape (http://www.inkscape.org/) -->
<svg
   xmlns:svg="http://www.w3.org/2000/svg"
   xmlns="http://www.w3.org/2000/svg"
   version="1.0"
   width="956.69287"
   height="1217.8346"
   id="svg2">
  <defs
     id="defs4">
    <linearGradient
       id="linearGradient2745">
      <stop
         id="stop2747"
         style="stop-color:#04abec;stop-opacity:1"
         offset="0" />
      <stop
         id="stop2749"
         style="stop-color:#1e60b4;stop-opacity:1"
         offset="1" />
    </linearGradient>
    <linearGradient
       id="linearGradient2618">
      <stop
         id="stop2620"
         style="stop-color:#df1935;stop-opacity:1"
         offset="0" />
      <stop
         id="stop2622"
         style="stop-color:#a3223b;stop-opacity:1"
         offset="1" />
    </linearGradient>
    <linearGradient
       id="linearGradient2610">
      <stop
         id="stop2612"
         style="stop-color:#000000;stop-opacity:1"
         offset="0" />
      <stop
         id="stop2614"
         style="stop-color:#000000;stop-opacity:0"
         offset="1" />
    </linearGradient>
    <clipPath
       id="clipPath2564">
      <path
         d="M 0.103,9.628 L 1.103,9.628 L 1.103,10.628 L 0.103,10.628 L 0.103,9.628 z"
         id="path2566" />
    </clipPath>
    <clipPath
       id="clipPath2556">
      <path
         d="M 517.093,726.02 C 517.285,725.956 517.932,725.765 518.521,725.591 C 518.971,725.458 519.386,725.335 519.53,725.286 C 520.796,724.861 522.061,724.438 523.327,724.014 C 524.929,723.476 526.53,722.941 528.131,722.405 C 529.734,721.869 531.334,721.33 532.935,720.796 C 534.538,720.258 536.139,719.724 537.74,719.186 C 539.342,718.649 540.944,718.114 542.544,717.578 C 543.831,717.143 544.602,716.952 545.889,716.522 C 546.06,716.466 546.671,716.264 547.262,716.071 C 547.779,715.902 548.274,715.739 548.42,715.69 C 548.876,715.844 549.331,715.998 549.783,716.152 C 550.237,716.307 550.692,716.462 551.146,716.617 C 551.359,716.689 551.571,716.761 551.784,716.834 C 552.025,716.916 552.265,716.998 552.507,717.079 C 552.963,717.235 553.415,717.389 553.87,717.545 C 554.324,717.699 554.78,717.854 555.234,718.01 C 555.686,718.163 556.139,718.318 556.592,718.472 C 557.048,718.627 557.502,718.781 557.956,718.935 C 558.409,719.09 558.865,719.243 559.318,719.4 C 559.772,719.554 560.226,719.71 560.679,719.865 C 561.135,720.018 561.587,720.173 562.041,720.328 C 562.496,720.483 562.948,720.635 563.403,720.791 C 563.654,720.875 564.243,721.087 564.797,721.285 C 565.253,721.447 565.681,721.599 565.884,721.672 C 565.738,721.721 565.243,721.883 564.724,722.052 C 564.136,722.245 563.521,722.446 563.354,722.503 C 562.066,722.933 561.296,723.126 560.007,723.556 C 558.406,724.095 556.806,724.63 555.203,725.166 C 553.602,725.703 552.001,726.239 550.398,726.776 C 548.799,727.313 547.196,727.848 545.594,728.385 C 543.994,728.921 542.392,729.459 540.79,729.994 C 539.524,730.419 538.259,730.842 536.994,731.265 C 536.849,731.315 536.435,731.438 535.985,731.571 C 535.396,731.746 534.748,731.936 534.556,732.001 C 534.352,731.93 534.011,731.749 533.558,731.588 C 533.004,731.388 532.414,731.177 532.163,731.091 C 531.709,730.937 531.167,730.812 530.714,730.658 C 530.259,730.504 529.807,730.348 529.352,730.193 C 528.898,730.038 528.444,729.884 527.991,729.731 C 527.537,729.575 527.081,729.421 526.628,729.265 C 526.174,729.111 525.721,728.958 525.267,728.802 C 524.813,728.647 524.358,728.494 523.906,728.339 C 523.451,728.183 522.997,728.03 522.543,727.875 C 522.088,727.72 521.634,727.567 521.18,727.412 C 520.939,727.33 520.698,727.247 520.457,727.166 C 520.244,727.092 520.032,727.02 519.819,726.947 C 519.366,726.794 518.91,726.639 518.457,726.484 C 518.002,726.33 517.548,726.174 517.093,726.02 M 517.093,726.02 C 517.285,725.956 517.932,725.765 518.521,725.591 C 518.971,725.458 519.386,725.335 519.53,725.286 C 520.796,724.861 522.061,724.438 523.327,724.014 C 524.929,723.476 526.53,722.941 528.131,722.405 C 529.734,721.869 531.334,721.33 532.935,720.796 C 534.538,720.258 536.139,719.724 537.74,719.186 C 539.342,718.649 540.944,718.114 542.544,717.578 C 543.831,717.143 544.602,716.952 545.889,716.522 C 546.06,716.466 546.671,716.264 547.262,716.071 C 547.779,715.902 548.274,715.739 548.42,715.69 C 548.876,715.844 549.331,715.998 549.783,716.152 C 550.237,716.307 550.692,716.462 551.146,716.617 C 551.359,716.689 551.571,716.761 551.784,716.834 C 552.025,716.916 552.265,716.998 552.507,717.079 C 552.963,717.235 553.415,717.389 553.87,717.545 C 554.324,717.699 554.78,717.854 555.234,718.01 C 555.686,718.163 556.139,718.318 556.592,718.472 C 557.048,718.627 557.502,718.781 557.956,718.935 C 558.409,719.09 558.865,719.243 559.318,719.4 C 559.772,719.554 560.226,719.71 560.679,719.865 C 561.135,720.018 561.587,720.173 562.041,720.328 C 562.496,720.483 562.948,720.635 563.403,720.791 C 563.654,720.875 564.243,721.087 564.797,721.285 C 565.253,721.447 565.681,721.599 565.884,721.672 C 565.738,721.721 565.243,721.883 564.724,722.052 C 564.136,722.245 563.521,722.446 563.354,722.503 C 562.066,722.933 561.296,723.126 560.007,723.556 C 558.406,724.095 556.806,724.63 555.203,725.166 C 553.602,725.703 552.001,726.239 550.398,726.776 C 548.799,727.313 547.196,727.848 545.594,728.385 C 543.994,728.921 542.392,729.459 540.79,729.994 C 539.524,730.419 538.259,730.842 536.994,731.265 C 536.849,731.315 536.435,731.438 535.985,731.571 C 535.396,731.746 534.748,731.936 534.556,732.001 C 534.352,731.93 534.011,731.749 533.558,731.588 C 533.004,731.388 532.414,731.177 532.163,731.091 C 531.709,730.937 531.167,730.812 530.714,730.658 C 530.259,730.504 529.807,730.348 529.352,730.193 C 528.898,730.038 528.444,729.884 527.991,729.731 C 527.537,729.575 527.081,729.421 526.628,729.265 C 526.174,729.111 525.721,728.958 525.267,728.802 C 524.813,728.647 524.358,728.494 523.906,728.339 C 523.451,728.183 522.997,728.03 522.543,727.875 C 522.088,727.72 521.634,727.567 521.18,727.412 C 520.939,727.33 520.698,727.247 520.457,727.166 C 520.244,727.092 520.032,727.02 519.819,726.947 C 519.366,726.794 518.91,726.639 518.457,726.484 C 518.002,726.33 517.548,726.174 517.093,726.02"
         id="path2558" />
    </clipPath>
    <clipPath
       id="clipPath2542">
      <path
         d="M 0.113,8.083 L 1.113,8.083 L 1.113,9.083 L 0.113,9.083 L 0.113,8.083 z"
         id="path2544" />
    </clipPath>
    <clipPath
       id="clipPath2534">
      <path
         d="M 517.542,699.46 C 517.733,699.397 518.383,699.209 518.974,699.036 C 519.423,698.904 519.838,698.782 519.985,698.732 C 521.254,698.315 522.522,697.895 523.791,697.478 C 525.397,696.946 527.003,696.416 528.609,695.884 C 530.215,695.355 531.82,694.822 533.425,694.293 C 535.033,693.763 536.637,693.233 538.243,692.702 C 539.85,692.171 541.455,691.641 543.06,691.111 C 544.351,690.682 545.125,690.492 546.415,690.068 C 546.584,690.013 547.199,689.814 547.789,689.623 C 548.308,689.456 548.805,689.295 548.952,689.246 C 549.405,689.401 549.857,689.56 550.308,689.714 C 550.762,689.87 551.215,690.027 551.666,690.183 C 552.119,690.34 552.569,690.495 553.024,690.651 C 553.476,690.811 553.928,690.968 554.38,691.123 C 554.834,691.278 555.286,691.436 555.738,691.592 C 556.19,691.748 556.642,691.903 557.095,692.06 C 557.546,692.217 557.998,692.374 558.451,692.529 C 558.904,692.686 559.357,692.844 559.808,693.002 C 560.26,693.156 560.712,693.312 561.166,693.471 C 561.618,693.626 562.069,693.782 562.521,693.938 C 562.976,694.094 563.428,694.25 563.878,694.408 C 564.127,694.491 564.715,694.706 565.269,694.909 C 565.721,695.072 566.146,695.225 566.35,695.297 C 566.202,695.347 565.706,695.506 565.189,695.674 C 564.598,695.864 563.98,696.063 563.813,696.119 C 562.522,696.545 561.749,696.734 560.458,697.162 C 558.854,697.693 557.248,698.223 555.642,698.752 C 554.037,699.284 552.43,699.814 550.826,700.343 C 549.219,700.874 547.613,701.405 546.007,701.936 C 544.403,702.466 542.795,702.995 541.19,703.528 C 539.921,703.947 538.652,704.365 537.383,704.783 C 537.238,704.833 536.823,704.953 536.372,705.087 C 535.783,705.259 535.132,705.448 534.941,705.511 C 534.738,705.44 534.31,705.286 533.86,705.121 C 533.306,704.919 532.72,704.708 532.47,704.619 C 532.016,704.464 531.564,704.307 531.112,704.151 C 530.66,703.996 530.207,703.839 529.757,703.683 C 529.303,703.527 528.852,703.371 528.399,703.215 C 527.947,703.056 527.494,702.9 527.042,702.743 C 526.589,702.587 526.137,702.43 525.685,702.276 C 525.232,702.118 524.78,701.963 524.329,701.806 C 523.876,701.65 523.424,701.494 522.971,701.338 C 522.519,701.181 522.066,701.023 521.615,700.866 C 521.161,700.711 520.71,700.555 520.257,700.398 C 519.804,700.242 519.353,700.085 518.9,699.928 C 518.447,699.773 517.995,699.615 517.542,699.46 M 517.542,699.46 C 517.733,699.397 518.383,699.209 518.974,699.036 C 519.423,698.904 519.838,698.782 519.985,698.732 C 521.254,698.315 522.522,697.895 523.791,697.478 C 525.397,696.946 527.003,696.416 528.609,695.884 C 530.215,695.355 531.82,694.822 533.425,694.293 C 535.033,693.763 536.637,693.233 538.243,692.702 C 539.85,692.171 541.455,691.641 543.06,691.111 C 544.351,690.682 545.125,690.492 546.415,690.068 C 546.584,690.013 547.199,689.814 547.789,689.623 C 548.308,689.456 548.805,689.295 548.952,689.246 C 549.405,689.401 549.857,689.56 550.308,689.714 C 550.762,689.87 551.215,690.027 551.666,690.183 C 552.119,690.34 552.569,690.495 553.024,690.651 C 553.476,690.811 553.928,690.968 554.38,691.123 C 554.834,691.278 555.286,691.436 555.738,691.592 C 556.19,691.748 556.642,691.903 557.095,692.06 C 557.546,692.217 557.998,692.374 558.451,692.529 C 558.904,692.686 559.357,692.844 559.808,693.002 C 560.26,693.156 560.712,693.312 561.166,693.471 C 561.618,693.626 562.069,693.782 562.521,693.938 C 562.976,694.094 563.428,694.25 563.878,694.408 C 564.127,694.491 564.715,694.706 565.269,694.909 C 565.721,695.072 566.146,695.225 566.35,695.297 C 566.202,695.347 565.706,695.506 565.189,695.674 C 564.598,695.864 563.98,696.063 563.813,696.119 C 562.522,696.545 561.749,696.734 560.458,697.162 C 558.854,697.693 557.248,698.223 555.642,698.752 C 554.037,699.284 552.43,699.814 550.826,700.343 C 549.219,700.874 547.613,701.405 546.007,701.936 C 544.403,702.466 542.795,702.995 541.19,703.528 C 539.921,703.947 538.652,704.365 537.383,704.783 C 537.238,704.833 536.823,704.953 536.372,705.087 C 535.783,705.259 535.132,705.448 534.941,705.511 C 534.738,705.44 534.31,705.286 533.86,705.121 C 533.306,704.919 532.72,704.708 532.47,704.619 C 532.016,704.464 531.564,704.307 531.112,704.151 C 530.66,703.996 530.207,703.839 529.757,703.683 C 529.303,703.527 528.852,703.371 528.399,703.215 C 527.947,703.056 527.494,702.9 527.042,702.743 C 526.589,702.587 526.137,702.43 525.685,702.276 C 525.232,702.118 524.78,701.963 524.329,701.806 C 523.876,701.65 523.424,701.494 522.971,701.338 C 522.519,701.181 522.066,701.023 521.615,700.866 C 521.161,700.711 520.71,700.555 520.257,700.398 C 519.804,700.242 519.353,700.085 518.9,699.928 C 518.447,699.773 517.995,699.615 517.542,699.46"
         id="path2536" />
    </clipPath>
    <clipPath
       id="clipPath2520">
      <path
         d="M 0,1.976 L 1,1.976 L 1,2.976 L 0,2.976 L 0,1.976 z"
         id="path2522" />
    </clipPath>
    <clipPath
       id="clipPath2512">
      <path
         d="M 580.669,721.667 L 546.381,710.245 L 512.11,698.812 L 546.388,687.384 L 580.669,698.815 L 580.669,721.667 z"
         id="path2514" />
    </clipPath>
    <clipPath
       id="clipPath2504">
      <path
         d="M 574.033,678.403 C 553.362,685.118 532.694,691.834 512.024,698.549 C 512.337,699.514 512.561,700.202 512.805,700.954 C 512.877,701.176 512.949,701.401 513.027,701.639 C 513.116,701.909 513.209,702.196 513.312,702.514 C 513.392,702.759 513.477,703.023 513.571,703.313 C 513.655,703.57 513.745,703.848 513.843,704.148 C 513.925,704.401 514.012,704.671 514.107,704.959 C 514.192,705.223 514.283,705.501 514.379,705.797 C 514.463,706.058 514.552,706.331 514.646,706.619 C 514.726,706.866 514.81,707.123 514.896,707.394 C 514.997,707.703 515.103,708.027 515.215,708.369 C 515.293,708.609 515.374,708.858 515.458,709.115 C 515.542,709.379 515.63,709.649 515.72,709.928 C 515.819,710.232 515.921,710.547 516.028,710.874 C 516.102,711.103 516.178,711.335 516.252,711.564 C 517.067,714.072 517.882,716.581 518.697,719.089 C 521.175,726.715 523.197,732.938 525.371,739.629 C 546.04,732.913 566.708,726.196 587.378,719.48 C 585.205,712.79 583.183,706.568 580.705,698.941 C 579.891,696.432 579.075,693.924 578.26,691.415 C 578.187,691.186 578.111,690.957 578.037,690.725 C 577.931,690.398 577.829,690.084 577.73,689.78 C 577.639,689.5 577.552,689.231 577.467,688.969 C 577.382,688.713 577.3,688.461 577.222,688.219 C 577.111,687.879 577.005,687.554 576.905,687.246 C 576.818,686.977 576.734,686.72 576.654,686.472 C 576.56,686.183 576.471,685.909 576.386,685.649 C 576.29,685.353 576.2,685.075 576.115,684.813 C 576.021,684.522 575.934,684.253 575.852,684.001 C 575.755,683.7 575.664,683.422 575.58,683.164 C 575.486,682.878 575.401,682.613 575.32,682.365 C 575.216,682.048 575.123,681.761 575.036,681.491 C 574.957,681.252 574.884,681.027 574.813,680.808 C 574.569,680.054 574.346,679.366 574.033,678.403 M 574.033,678.403 C 553.362,685.118 532.694,691.834 512.024,698.549 C 512.337,699.514 512.561,700.202 512.805,700.954 C 512.877,701.176 512.949,701.401 513.027,701.639 C 513.116,701.909 513.209,702.196 513.312,702.514 C 513.392,702.759 513.477,703.023 513.571,703.313 C 513.655,703.57 513.745,703.848 513.843,704.148 C 513.925,704.401 514.012,704.671 514.107,704.959 C 514.192,705.223 514.283,705.501 514.379,705.797 C 514.463,706.058 514.552,706.331 514.646,706.619 C 514.726,706.866 514.81,707.123 514.896,707.394 C 514.997,707.703 515.103,708.027 515.215,708.369 C 515.293,708.609 515.374,708.858 515.458,709.115 C 515.542,709.379 515.63,709.649 515.72,709.928 C 515.819,710.232 515.921,710.547 516.028,710.874 C 516.102,711.103 516.178,711.335 516.252,711.564 C 517.067,714.072 517.882,716.581 518.697,719.089 C 521.175,726.715 523.197,732.938 525.371,739.629 C 546.04,732.913 566.708,726.196 587.378,719.48 C 585.205,712.79 583.183,706.568 580.705,698.941 C 579.891,696.432 579.075,693.924 578.26,691.415 C 578.187,691.186 578.111,690.957 578.037,690.725 C 577.931,690.398 577.829,690.084 577.73,689.78 C 577.639,689.5 577.552,689.231 577.467,688.969 C 577.382,688.713 577.3,688.461 577.222,688.219 C 577.111,687.879 577.005,687.554 576.905,687.246 C 576.818,686.977 576.734,686.72 576.654,686.472 C 576.56,686.183 576.471,685.909 576.386,685.649 C 576.29,685.353 576.2,685.075 576.115,684.813 C 576.021,684.522 575.934,684.253 575.852,684.001 C 575.755,683.7 575.664,683.422 575.58,683.164 C 575.486,682.878 575.401,682.613 575.32,682.365 C 575.216,682.048 575.123,681.761 575.036,681.491 C 574.957,681.252 574.884,681.027 574.813,680.808 C 574.569,680.054 574.346,679.366 574.033,678.403"
         id="path2506" />
    </clipPath>
    <clipPath
       id="clipPath2490">
      <path
         d="M 0,2.925 L 1,2.925 L 1,3.925 L 0,3.925 L 0,2.925 z"
         id="path2492" />
    </clipPath>
    <clipPath
       id="clipPath2482">
      <path
         d="M 512.106,698.807 L 512.103,721.667 L 546.388,710.241 L 512.106,698.807 z"
         id="path2484" />
    </clipPath>
    <clipPath
       id="clipPath2474">
      <path
         d="M 501.238,706.713 C 506.998,714.639 512.756,722.566 518.514,730.492 C 521.124,728.596 523.733,726.699 526.342,724.804 C 529.421,722.568 532.5,720.331 535.58,718.093 C 539.181,715.478 542.781,712.86 546.384,710.244 C 540.623,702.317 534.866,694.391 529.106,686.466 C 525.505,689.083 521.904,691.699 518.304,694.315 C 515.225,696.551 512.146,698.788 509.066,701.025 C 506.456,702.921 503.848,704.817 501.238,706.713 M 501.238,706.713 C 506.998,714.639 512.756,722.566 518.514,730.492 C 521.124,728.596 523.733,726.699 526.342,724.804 C 529.421,722.568 532.5,720.331 535.58,718.093 C 539.181,715.478 542.781,712.86 546.384,710.244 C 540.623,702.317 534.866,694.391 529.106,686.466 C 525.505,689.083 521.904,691.699 518.304,694.315 C 515.225,696.551 512.146,698.788 509.066,701.025 C 506.456,702.921 503.848,704.817 501.238,706.713"
         id="path2476" />
    </clipPath>
    <clipPath
       id="clipPath2460">
      <path
         d="M 0,2.496 L 1,2.496 L 1,3.496 L 0,3.496 L 0,2.496 z"
         id="path2462" />
    </clipPath>
    <clipPath
       id="clipPath2452">
      <path
         d="M 512.113,725.369 L 546.391,713.944 L 580.667,725.369 L 580.667,748.22 L 546.391,736.797 L 512.113,725.369 z"
         id="path2454" />
    </clipPath>
    <clipPath
       id="clipPath2444">
      <path
         d="M 574.036,704.96 C 553.366,711.677 532.698,718.392 512.029,725.108 C 512.324,726.018 512.473,726.477 512.764,727.375 C 512.834,727.59 512.912,727.831 513.003,728.109 C 513.081,728.346 513.165,728.609 513.263,728.907 C 513.304,729.034 513.347,729.166 513.392,729.305 C 513.437,729.445 513.484,729.592 513.534,729.745 C 513.62,730.006 513.71,730.287 513.81,730.594 C 513.926,730.955 514.055,731.348 514.196,731.782 C 514.27,732.007 514.347,732.244 514.428,732.493 C 516.477,738.801 518.527,745.109 520.576,751.417 C 522.175,756.339 523.775,761.263 525.374,766.186 C 546.046,759.47 566.713,752.754 587.382,746.039 L 587.382,746.038 C 585.785,741.115 584.184,736.191 582.584,731.268 C 580.534,724.96 578.485,718.653 576.435,712.344 C 576.354,712.097 576.278,711.86 576.205,711.634 C 576.063,711.2 575.936,710.806 575.819,710.446 C 575.72,710.14 575.628,709.859 575.544,709.598 C 575.495,709.444 575.446,709.298 575.401,709.157 C 575.355,709.018 575.312,708.885 575.269,708.759 C 575.173,708.461 575.087,708.198 575.011,707.963 C 574.92,707.684 574.842,707.443 574.772,707.228 C 574.48,706.329 574.331,705.872 574.036,704.96 M 574.036,704.96 C 553.366,711.677 532.698,718.392 512.029,725.108 C 512.324,726.018 512.473,726.477 512.764,727.375 C 512.834,727.59 512.912,727.831 513.003,728.109 C 513.081,728.346 513.165,728.609 513.263,728.907 C 513.304,729.034 513.347,729.166 513.392,729.305 C 513.437,729.445 513.484,729.592 513.534,729.745 C 513.62,730.006 513.71,730.287 513.81,730.594 C 513.926,730.955 514.055,731.348 514.196,731.782 C 514.27,732.007 514.347,732.244 514.428,732.493 C 516.477,738.801 518.527,745.109 520.576,751.417 C 522.175,756.339 523.775,761.263 525.374,766.186 C 546.046,759.47 566.713,752.754 587.382,746.039 L 587.382,746.038 C 585.785,741.115 584.184,736.191 582.584,731.268 C 580.534,724.96 578.485,718.653 576.435,712.344 C 576.354,712.097 576.278,711.86 576.205,711.634 C 576.063,711.2 575.936,710.806 575.819,710.446 C 575.72,710.14 575.628,709.859 575.544,709.598 C 575.495,709.444 575.446,709.298 575.401,709.157 C 575.355,709.018 575.312,708.885 575.269,708.759 C 575.173,708.461 575.087,708.198 575.011,707.963 C 574.92,707.684 574.842,707.443 574.772,707.228 C 574.48,706.329 574.331,705.872 574.036,704.96"
         id="path2446" />
    </clipPath>
    <clipPath
       id="clipPath2430">
      <path
         d="M 0,3.451 L 1,3.451 L 1,4.451 L 0,4.451 L 0,3.451 z"
         id="path2432" />
    </clipPath>
    <clipPath
       id="clipPath2422">
      <path
         d="M 512.104,725.371 L 512.104,748.223 L 546.391,736.797 L 512.104,725.371 z"
         id="path2424" />
    </clipPath>
    <clipPath
       id="clipPath2414">
      <path
         d="M 500.742,737.991 C 508.945,745.379 517.148,752.764 525.352,760.151 C 527.454,757.818 529.556,755.484 531.657,753.151 C 534.208,750.317 536.034,748.289 538.102,745.993 C 539.105,744.88 540.108,743.765 541.112,742.649 C 542.868,740.7 544.624,738.748 546.383,736.797 C 538.177,729.41 529.974,722.023 521.769,714.636 C 520.011,716.587 518.257,718.538 516.499,720.489 C 515.496,721.602 514.493,722.717 513.49,723.833 C 511.423,726.128 509.596,728.156 507.045,730.99 C 504.943,733.323 502.843,735.657 500.742,737.991 M 500.742,737.991 C 508.945,745.379 517.148,752.764 525.352,760.151 C 527.454,757.818 529.556,755.484 531.657,753.151 C 534.208,750.317 536.034,748.289 538.102,745.993 C 539.105,744.88 540.108,743.765 541.112,742.649 C 542.868,740.7 544.624,738.748 546.383,736.797 C 538.177,729.41 529.974,722.023 521.769,714.636 C 520.011,716.587 518.257,718.538 516.499,720.489 C 515.496,721.602 514.493,722.717 513.49,723.833 C 511.423,726.128 509.596,728.156 507.045,730.99 C 504.943,733.323 502.843,735.657 500.742,737.991"
         id="path2416" />
    </clipPath>
    <clipPath
       id="clipPath2406">
      <path
         d="M 512,682 L 583,682 L 583,764 L 512,764 L 512,682 z"
         id="path2408" />
    </clipPath>
    <clipPath
       id="clipPath2398">
      <path
         d="M 0,0 L 612,0 L 612,792 L 0,792 L 0,0 z"
         id="path2400" />
    </clipPath>
    <clipPath
       id="clipPath2920">
      <path
         d="M 454.62,370.131 L 467.64,370.131 L 467.64,476.391 L 454.62,476.391 L 454.62,370.131 z"
         id="path2922" />
    </clipPath>
    <clipPath
       id="clipPath2908">
      <path
         d="M 442.56,370.191 L 453.48,370.191 L 453.48,476.391 L 442.56,476.391 L 442.56,370.191 z"
         id="path2910" />
    </clipPath>
    <clipPath
       id="clipPath2892">
      <path
         d="M 330.12,430.071 L 382.5,430.071 L 382.5,476.391 L 330.12,476.391 L 330.12,430.071 z"
         id="path2894" />
    </clipPath>
    <clipPath
       id="clipPath2882">
      <path
         d="M 330.12,370.611 L 436.14,370.611 L 436.14,476.391 L 330.12,476.391 L 330.12,370.611 z"
         id="path2884" />
    </clipPath>
  </defs>
  <g
     transform="matrix(0,7.7868035,7.7868035,0,-2795.7786,-2543.9946)"
     id="g3030">
    <path
       d="M 331.62,363.831 L 444.54,363.831 L 444.54,477.231 L 331.62,477.231 L 331.62,363.831 z"
       id="path3032"
       style="fill:#243d85;fill-opacity:1;fill-rule:nonzero;stroke:none" />
    <g
       transform="translate(387.42,434.091)"
       id="g3034">
      <path
         d="M 0,0 L -55.8,43.14 L -55.8,36.78 L 0,-6.48 L 0,0"
         id="path3036"
         style="fill:#d52e28;fill-opacity:1;fill-rule:evenodd;stroke:none" />
    </g>
    <g
       transform="translate(411.84,450.531)"
       id="g3038">
      <path
         d="M 0,0 L 2.16,0.66 L 4.74,1.5 L 7.62,2.46 L 10.68,3.42 C 12.952,4.297 19.246,5.997 21,7.62 L 21,-3.12 C 15.658,-3.289 8.628,-6.584 3.24,-7.86 L 3.24,-24.9 L 6.96,-27.54 C 11.782,-25.758 16.795,-25.066 21,-22.26 L 21,-32.52 C 18.857,-32.723 17.496,-33.26 15.48,-33.78 C 16.681,-35.084 19.296,-37.032 21,-37.68 L 21,-45.72 C 18.772,-46.147 17.573,-46.19 15.3,-47.22 C 16.83,-48.372 19.237,-50.373 21,-50.94 L 21,-58.86 C 17.686,-55.248 13.841,-52.772 10.02,-49.62 L 3.24,-51.6 L 3.24,-68.52 C 8.979,-72.651 15.004,-78.114 21,-81.72 L 21,-86.7 L 17.76,-86.7 L 17.64,-86.58 L 17.64,-86.52 L 17.22,-86.16 L 16.02,-85.2 C 11.848,-81.748 7.522,-78.495 3.24,-75.18 C -1.696,-71.374 -6.617,-67.552 -11.58,-63.78 C -14.514,-61.412 -17.559,-59.357 -21.06,-57.9 L -21.06,-49.2 C -17.77,-49.119 -16.019,-48.442 -12.9,-47.46 C -8.192,-45.84 -3.277,-44.552 1.44,-42.96 L -2.34,-40.02 L -17.7,-45.06 L -18.48,-45.36 L -19.98,-46.08 L -21.06,-46.68 L -21.06,-36.48 C -17.716,-36.434 -12.876,-34.221 -9.12,-33.54 L -10.5,-32.46 L -13.56,-30 L -16.74,-27.54 L -18.42,-26.22 L -19.56,-25.68 L -20.58,-25.38 L -21.06,-25.38 L -21.06,-16.86 C -17.704,-20.707 -10.965,-25.25 -6.96,-28.68 L -4.86,-30.3 L -4.02,-30.96 L -3.24,-30.78 L -1.62,-30.3 L 0,-29.76 L 0.36,-29.7 L 0.54,-29.64 L 0.66,-29.64 C -2.752,-27.054 -6.173,-24.364 -9.6,-21.78 C -13.56,-19.202 -16.647,-15.74 -21.06,-13.98 L -21.06,-5.7 L -20.4,-5.58 L -19.02,-5.46 L -17.94,-5.22 L 0,0 z M -12.96,-12.6 C -9.101,-15.057 -5.292,-18.109 -1.74,-21 L -1.74,-9.72 L -3.54,-10.32 L -7.2,-11.46 L -9.96,-12.3 L -11.22,-12.48 L -13.08,-12.48 L -13.2,-12.6 L -12.96,-12.6 z M -12.96,-56.16 C -9.159,-58.602 -5.193,-61.581 -1.74,-64.5 L -1.74,-53.22 C -5.146,-54.178 -9.798,-56.187 -13.2,-56.04 L -12.96,-56.16 z M 13.32,-39.06 L 9.06,-35.94 L 7.44,-36.6 L 4.86,-37.56 L 3.36,-37.98 L 7.32,-40.98 L 13.32,-39.06"
         id="path3040"
         style="fill:#ffffff;fill-opacity:1;fill-rule:evenodd;stroke:none" />
    </g>
    <g
       transform="translate(454.02,367.611)"
       id="g3042">
      <path
         d="M 0,0 L 1.98,-0.12 L 1.98,4.2 L 4.38,4.14 L 4.38,-0.24 L 8.82,-0.36 L 8.82,-4.02 C 5.143,-3.642 1.259,-3.525 -2.46,-3.48 L -2.46,5.22 L 0,5.1 L 0,0 z M 8.82,12.24 L 8.82,8.58 C 4.919,8.846 1.471,9.015 -2.46,9.06 L -2.46,12.66 L 1.32,12.42 L 5.04,12.3 L 8.82,12.24 z M -2.46,21.3 L 4.86,25.38 C 2.39,25.532 0.023,25.602 -2.46,25.68 L -2.46,28.86 C 1.317,28.662 5.026,28.349 8.82,28.26 L 8.82,24.12 C 6.305,22.857 4.146,21.307 1.62,20.1 L 1.62,20.04 C 4.02,19.977 6.423,19.878 8.82,19.8 L 8.82,16.56 C 5.086,16.927 1.303,17.1 -2.46,17.1 L -2.46,21.3 z M 5.58,40.5 L 5.58,36.36 L 8.82,34.86 L 8.82,30.96 C 5.161,32.952 1.305,35.14 -2.46,36.9 L -2.46,41.16 L 0.42,42.18 L 3.24,43.14 L 6,44.22 L 8.82,45.3 L 8.82,41.52 C 7.586,41.295 6.738,40.862 5.58,40.5 z M 3.24,37.32 L 3.24,39.9 L 0,38.82 L 3.24,37.32 z M -2.46,52.68 L 4.86,56.64 C 2.293,56.818 0.149,56.943 -2.46,56.88 L -2.46,60.12 C 1.248,59.963 5.078,59.559 8.82,59.58 L 8.82,55.38 C 6.353,54.188 4.073,52.64 1.62,51.42 C 3.956,51.265 6.452,51.201 8.82,51.12 L 8.82,47.88 C 5.23,48.284 1.169,48.479 -2.46,48.48 L -2.46,52.68 z M 6.06,73.74 L 8.7,73.32 C 11.635,59.862 -5.396,61.047 -2.28,73.86 L 0.24,73.92 C -2.599,65.561 9.099,64.747 6.06,73.74 z M 8.82,81.18 L 8.82,77.52 C 5.065,77.69 1.296,78.008 -2.46,77.94 L -2.46,81.66 L 1.32,81.42 L 5.04,81.3 L 8.82,81.18 z M 5.58,93.24 L 5.58,89.04 L 8.82,87.54 L 8.82,83.7 C 5.209,85.726 1.288,87.877 -2.46,89.64 L -2.46,93.9 L 0.42,94.86 L 3.24,95.94 L 6,97.02 L 8.82,97.98 L 8.82,94.32 C 7.485,94.03 6.749,93.502 5.58,93.24 z M 3.24,90.12 L 3.24,92.64 L 0,91.56 L 3.24,90.12 z M 8.82,109.44 L 8.82,100.68 C 5.024,101.089 1.332,101.171 -2.46,101.34 L -2.46,104.94 C 0.457,104.754 3.434,104.563 6.36,104.52 L 6.36,108.54 L 6.3,109.62 L 8.82,109.44"
         id="path3044"
         style="fill:#243d85;fill-opacity:1;fill-rule:evenodd;stroke:none" />
    </g>
    <g
       transform="translate(473.58,368.031)"
       id="g3046">
      <path
         d="M 0,0 L -2.16,-0.54 C -2.095,0.222 -1.852,-0.082 -2.22,0.96 C -2.522,1.8 -2.765,1.639 -3.42,1.92 C -5.021,1.587 -4.356,0.72 -4.5,-0.78 C -1.474,-0.94 1.26,-1.172 4.32,-1.08 L 4.32,-4.44 C 0.722,-4.021 -3.253,-4.033 -6.9,-3.9 L -6.9,2.04 L -6.78,2.7 L -6.78,3.24 L -6.54,3.72 L -6.3,4.08 L -6,4.44 C -4.73,5.287 -5.218,4.959 -3.96,5.28 C -0.846,5.335 0.565,2.833 0,0 z M -4.5,11.64 L -4.5,10.2 L -1.62,10.02 L 1.38,9.9 L 4.32,9.9 L 4.32,6.36 C 0.603,6.863 -3.152,6.855 -6.9,6.96 L -6.9,13.62 L -6.78,13.98 L -6.78,14.28 L -6.66,14.7 L -6.54,15 L -6.42,15.36 L -6.24,15.72 L -6,16.02 L -5.7,16.38 L -5.34,16.56 L -4.92,16.74 L -4.5,16.86 L -3.9,16.98 C -1.886,16.665 -1.376,16.195 -0.66,14.28 C 1.032,14.949 2.652,15.774 4.32,16.5 L 4.32,12.72 C 2.092,11.973 0.266,11.581 -1.92,10.56 C -1.909,11.549 -1.794,12.739 -2.7,13.38 C -4.301,13.895 -4.533,12.986 -4.5,11.64 z M -7.08,25.08 C -7.244,34.081 4.774,33.627 4.56,24.66 C 4.518,15.358 -7.315,16.036 -7.08,25.08 z M -4.62,24.96 C -4.576,20.703 1.942,20.247 2.04,24.72 C 2.195,28.846 -4.725,29.248 -4.62,24.96 z M -6.9,32.16 L -6.9,42.78 L -4.38,42.66 C -4.393,41.429 -4.582,40.553 -4.5,39.18 C -1.66,38.892 1.446,38.925 4.32,38.76 L 4.32,35.16 C 1.394,35.44 -1.553,35.635 -4.5,35.64 L -4.5,34.5 L -4.38,33.3 L -4.38,32.16 L -6.9,32.16 z M -6.9,43.92 L -6.9,52.98 L -4.32,52.92 L -4.38,51.96 L -4.5,50.88 L -4.5,47.4 L -2.52,47.28 L -2.52,51.12 L -2.58,52.02 L -0.12,51.84 L -0.12,47.16 L 1.92,46.98 L 1.92,48.12 L 1.86,49.62 L 1.86,51.18 L 1.74,52.68 L 4.32,52.5 L 4.32,43.32 C 0.59,43.648 -3.152,43.941 -6.9,43.92 z M 1.62,64.32 L 4.32,63.9 C 6.986,50.524 -9.746,51.604 -6.78,64.44 L -4.2,64.56 C -7.086,56.328 4.579,55.21 1.62,64.32 z M -6.9,65.28 L -6.9,75.84 L -4.38,75.72 C -4.397,74.467 -4.579,73.565 -4.5,72.18 C -1.552,72.088 1.322,71.801 4.32,71.88 L 4.32,68.22 C 1.39,68.483 -1.553,68.748 -4.5,68.7 L -4.5,67.56 L -4.38,66.36 L -4.38,65.22 L -6.9,65.28 z M 4.32,80.04 L 4.32,76.38 C 0.59,76.658 -3.153,76.885 -6.9,76.92 L -6.9,80.52 L -3.18,80.28 L 0.6,80.16 L 4.32,80.04 z M -7.08,89.1 C -7.235,98.073 4.706,97.704 4.56,88.74 C 4.61,79.398 -7.329,80.078 -7.08,89.1 z M -4.62,88.98 C -4.722,84.739 2.222,84.41 2.04,88.86 C 2.043,92.945 -4.686,93.215 -4.62,88.98 z M -6.9,101.82 L 0.42,105.78 L 0.42,105.84 C -1.994,105.891 -4.477,106.086 -6.9,106.08 L -6.9,109.32 C -3.221,109.025 0.626,108.852 4.32,108.66 L 4.32,104.58 C 1.913,103.296 -0.388,101.83 -2.76,100.5 C -1.997,100.399 -0.61,100.397 0.18,100.38 C 1.519,100.292 2.974,100.248 4.32,100.26 L 4.32,97.02 C 0.663,97.277 -3.252,97.595 -6.9,97.56 L -6.9,101.82"
         id="path3048"
         style="fill:#243d85;fill-opacity:1;fill-rule:evenodd;stroke:none" />
    </g>
  </g>
</svg>
