<svg width="68" height="38" viewBox="0 0 68 38" fill="none" xmlns="http://www.w3.org/2000/svg">
<g clip-path="url(#clip0_8052_26359)">
<path d="M31.6139 20.6411L32.419 20.3364L32.4303 20.3326C33.5741 19.8585 33.7359 19.5632 33.6832 18.8032V15.7275C34.5542 17.9378 35.3762 19.4917 37.0637 19.4917C37.2932 19.4917 37.5377 19.4635 37.8011 19.4033L38.4595 19.2547L38.0061 18.7543C37.7183 18.4364 37.5772 18.1899 37.4155 17.9021C37.3477 17.7855 37.2819 17.6632 37.1972 17.5296C36.8022 16.8881 35.8635 16.6718 35.1035 17.0123C34.7573 16.3276 34.4112 15.434 33.9936 14.3316L33.9014 14.1209C33.8299 13.9573 33.7565 13.7898 33.6832 13.6243V13.5961H33.6719C33.4123 13.0148 33.1358 12.4297 32.8065 11.8823C32.5056 11.3838 32.2008 10.9568 31.8735 10.5711C30.995 9.53834 29.8305 8.89498 28.4121 8.66171C27.4339 8.49993 26.7378 8.46418 25.8612 8.4228C25.6787 8.41527 25.4887 8.40587 25.2856 8.3927C24.8886 8.37012 24.0665 8.30428 23.2727 8.23844C22.7365 8.19517 22.1891 8.15003 21.7564 8.11805C21.7865 7.99577 21.8035 7.86973 21.8035 7.73993C21.8035 7.5631 21.7865 7.40884 21.7564 7.26775H27.3944C28.8466 7.26775 29.8982 6.62626 30.5247 5.36211C31.9694 5.34894 33.0154 4.69428 33.6324 3.41508H33.8337C35.3367 3.41508 36.4128 2.72844 37.0298 1.37399L37.2857 0.817155H18.1841C16.9293 0.817155 15.8608 1.63547 15.4601 2.90151L15.4488 2.94478C15.1253 2.03993 14.5308 1.27052 13.767 0.817155C12.7079 0.186957 11.504 -0.0237369 10.5446 0.250917C10.2285 0.343095 9.91061 0.486065 9.65664 0.655372C9.43466 0.800224 9.12615 1.03349 8.90229 1.32131C8.65773 1.63359 8.42259 2.01359 8.24952 2.36725C8.14041 2.45755 8.05387 2.54973 7.99556 2.64003L7.76605 3.06894L7.75476 3.09339C7.48199 3.7123 7.14902 4.14121 6.88942 4.4422C6.63169 4.7432 6.61853 5.02725 6.65239 5.21349C6.69001 5.41666 6.801 5.58409 6.91764 5.71012L6.91011 5.72141C6.83298 5.8531 6.79348 6.00171 6.79348 6.15597C6.79348 6.66013 7.23179 7.04012 7.77169 7.04012C8.16486 7.04012 8.48466 6.85765 8.8214 6.63191C8.95872 6.54161 9.32556 6.29894 9.44407 6.28577C9.59457 6.28577 9.73377 6.42309 9.73377 6.57359C9.73377 6.98557 9.2014 7.20943 8.81952 7.23577L8.04447 7.31854C7.48575 7.37121 7.22051 7.66844 7.22051 7.93181C7.22051 8.19517 7.34843 8.34755 7.43496 8.43597L7.49328 8.49428L7.6908 8.66923L6.86684 9.99359C6.27991 9.44993 5.59328 9.12072 4.98565 9.10191C4.59249 9.08874 4.25199 9.20913 4.00179 9.4424C3.93031 9.512 3.86635 9.58914 3.81367 9.67567H3.79862C3.14962 9.67567 2.62665 10.0237 2.36892 10.415C2.09239 10.842 2.19209 11.5813 2.54387 12.1457L0.467041 12.6837V22.6107H38.5536V20.6317H31.6195L31.6139 20.6411ZM36.4824 17.9491C36.5576 18.0714 36.6235 18.1862 36.6856 18.2953C36.7608 18.4307 36.8361 18.5643 36.9263 18.7016C36.3281 18.6659 35.8766 18.3329 35.459 17.7083C35.8447 17.5729 36.3112 17.6688 36.4843 17.9491M28.2484 9.45745C29.475 9.66062 30.4795 10.2118 31.2339 11.0978C31.3957 11.2897 31.5518 11.4891 31.7042 11.7074C29.6405 11.4365 28.9219 11.1374 27.7687 9.38597C27.923 9.40666 28.081 9.42923 28.2484 9.45745ZM27.3605 6.50399H23.489C23.8201 6.2124 24.0985 5.83805 24.3224 5.38656H29.5841C29.0893 6.14468 28.3745 6.50399 27.3624 6.50399M30.4419 4.59834H26.5704C26.9128 4.29735 27.1987 3.91171 27.4263 3.43953H32.6937C32.1989 4.22587 31.4728 4.59834 30.4438 4.59834M30.7034 1.63359H35.9481C35.4571 2.32587 34.7573 2.65508 33.7885 2.65508H29.917C30.2237 2.38418 30.487 2.04369 30.7034 1.63359ZM9.50803 1.83488C9.63219 1.67686 9.83348 1.50003 10.0743 1.34201C10.2624 1.21785 10.5069 1.10686 10.7477 1.03725C11.1277 0.930025 11.5642 0.92062 12.0175 1.00715L10.6255 1.86498C10.4524 1.84616 10.2831 1.83864 10.1194 1.83864C9.88239 1.83864 9.66605 1.85745 9.46664 1.88943C9.48169 1.87062 9.49486 1.85181 9.50991 1.833M7.88268 7.97884C7.89585 7.92428 7.93912 7.88102 7.98427 7.8829L8.66338 7.90547C9.48922 7.87725 10.332 7.53676 10.4261 6.67517C10.4261 6.09389 10.0122 5.52577 9.42902 5.52577C9.11674 5.52577 8.76684 5.74211 8.37179 6.00359C8.11407 6.17478 7.9109 6.30834 7.75853 6.30834C7.65506 6.30834 7.57041 6.23874 7.57041 6.1823C7.57041 6.1729 7.57041 6.16161 7.57417 6.1522L8.00684 5.5728L7.63249 5.32072C7.55348 5.26805 7.42932 5.17022 7.41615 5.09686C7.40862 5.063 7.45942 5.00092 7.47635 4.9821C7.6306 4.80151 7.80932 4.58141 7.98803 4.30864C8.09902 4.15438 8.16298 4.06785 8.34734 4.06785C8.53169 4.06785 8.68031 4.21458 8.68031 4.39517C8.68031 4.51557 8.81011 4.60963 8.97377 4.60963C9.13744 4.60963 9.2108 4.49488 9.31051 4.39517C9.31051 4.39517 9.69615 4.04151 9.4911 3.87409C9.25783 3.6822 8.32288 4.07349 8.58249 3.21379L8.64833 3.09151C8.74803 2.95983 9.19575 2.62874 10.1194 2.62874C10.2944 2.62874 10.4787 2.64191 10.6668 2.66448L10.8061 2.68141L12.7662 1.47181C12.7832 1.51319 12.7907 1.54329 12.7907 1.54329V1.55458C12.8942 2.14904 12.5198 2.85448 11.9235 3.19874L11.6827 3.33607L11.8369 4.22022C11.3328 4.37448 10.9829 4.77706 10.9829 5.26428C10.9829 5.43171 11.0205 5.62923 11.0713 5.87943C11.1259 6.15785 11.1879 6.47201 11.203 6.79369C11.203 7.71547 9.93318 8.32309 8.85902 8.28735H8.8308C8.78566 8.28735 8.10278 8.23092 7.93348 8.09923C7.9015 8.07478 7.87516 8.02022 7.88268 7.97884ZM3.02169 10.8683C3.17595 10.6313 3.5315 10.4263 3.97546 10.5053L4.31219 10.5636L4.41754 10.24C4.44575 10.1535 4.48338 10.0895 4.53605 10.0387C4.63199 9.95032 4.7712 9.90705 4.95179 9.9127C5.42773 9.92775 6.02031 10.2588 6.50377 10.7762C6.67872 10.9643 6.83298 11.1825 6.97219 11.4045C6.99853 11.4515 7.03051 11.5004 7.05872 11.5456C7.09823 11.6076 7.13021 11.6566 7.13585 11.6697C7.15278 11.6998 7.3917 12.0591 7.37476 12.0817C7.53843 11.8541 7.70021 11.6227 7.86387 11.3951C7.86764 11.3894 7.86199 11.3669 7.84694 11.3368C7.80932 11.2577 7.72466 11.1223 7.67199 11.0414C7.65882 11.0207 7.64754 11.0019 7.63437 10.9831C7.63437 10.9812 7.63249 10.9793 7.6306 10.9775C7.62684 10.968 7.60427 10.9342 7.57605 10.889C7.5215 10.8044 7.44437 10.6802 7.41051 10.6125L8.43763 8.97022C8.69348 9.02478 8.91169 9.0323 9.01516 9.0323H9.0415C10.49 9.0323 11.9893 8.19706 11.9893 6.79933V6.76547C11.9705 6.38547 11.899 6.02052 11.8426 5.72894C11.805 5.53706 11.7692 5.35646 11.7692 5.26428C11.7692 5.11003 11.9837 4.94072 12.2922 4.94072H12.7606L12.548 3.72735C13.2064 3.24201 13.6128 2.45191 13.5902 1.69755C14.2994 2.24121 14.8017 3.18745 14.8939 4.19201C14.9202 4.48359 14.8619 4.89181 14.7678 5.32072L14.717 5.49943H14.7246C14.5571 6.203 14.3088 6.92349 14.179 7.26399L14.0586 7.58003L14.354 7.74745C14.8826 8.04656 15.208 8.26478 15.208 8.96082C15.208 9.75844 14.4894 10.3717 13.7953 10.5015L12.8453 10.6783L13.6485 11.2145C13.9062 11.3857 14.0586 11.666 14.0586 11.9632C14.0586 12.4655 13.6316 12.8718 13.1086 12.8718H12.8058L12.7211 13.1502C12.4258 14.1096 12.106 14.5799 11.0769 14.6796C11.124 14.388 11.1578 14.1077 11.1578 13.7108C11.1578 13.6168 11.1503 13.3553 11.1465 13.2725L11.1014 12.3789L10.4712 13.0185C10.2586 13.2349 9.88051 13.4079 9.46288 13.4888V12.7081L4.96308 11.5399L3.36031 11.9557C3.00476 11.5982 2.9314 11.0076 3.01981 10.8702M1.72744 20.6449L4.96308 19.804L8.19872 20.6449H1.72744ZM8.67655 19.9545L4.96496 18.9894L1.2515 19.9545V13.3139L4.96496 12.3507L8.67655 13.3139V19.9545ZM10.4016 18.664C10.0667 19.1456 10.0254 19.8115 10.2793 20.6449H9.46476V14.2846C9.75635 14.2394 10.0705 14.1567 10.364 14.0231C10.347 14.3015 10.3094 14.5197 10.2567 14.8132C10.2455 14.8809 10.2323 14.9524 10.2191 15.0276L10.1401 15.4867H10.6066C11.3027 15.4867 11.8238 15.3775 12.2226 15.1706V17.825C12.2226 17.8927 12.1699 17.9491 12.106 17.9491H11.9893C11.297 17.9491 10.7176 18.2087 10.4035 18.6621M18.9572 18.8333C18.6713 19.1606 18.3948 19.7306 18.5735 20.643H13.752C14.2693 20.5922 14.6456 20.4718 14.907 20.2009C15.2231 19.8717 15.2513 19.424 15.24 19.1023C15.2513 19.0741 15.3021 18.9669 15.5372 18.8596L15.953 18.6696L15.7028 18.2877C15.2908 17.6538 15.4714 16.2711 15.6313 15.5186H15.6689C17.3037 15.5186 18.3609 15.1781 19.4746 14.8207C19.7643 14.7267 20.0671 14.6307 20.3832 14.5385L20.3926 14.5348C20.3926 14.5348 20.7256 14.4294 21.1695 14.326L22.7403 16.9164L22.7554 16.9389C22.9115 17.1609 22.9322 17.3095 22.6462 17.6425L21.8599 18.4928L20.5675 18.252H20.5562C19.9731 18.1598 19.3448 18.3893 18.9554 18.8333M19.3805 20.6449C19.2375 20.088 19.2959 19.6422 19.5498 19.3525C19.7925 19.0741 20.1668 18.9894 20.4302 19.0271L21.9276 19.3055L21.9653 19.313H22.1741L23.2313 18.173L23.2407 18.1617C23.4213 17.951 23.9725 17.3133 23.4119 16.5006L21.9972 14.1717C22.2324 14.1378 22.4675 14.119 22.6839 14.119H22.6933C22.6933 14.119 23.41 14.1077 24.1681 14.5498C24.2716 14.7699 24.4146 15.0615 24.5745 15.3832C24.8717 15.9852 25.2404 16.7339 25.3439 17.0368C25.3777 17.1327 25.4756 17.4205 25.1219 17.7874L22.413 20.6468H19.3824L19.3805 20.6449ZM28.6153 20.6449H23.4965L25.69 18.3291C26.1321 17.8701 26.2751 17.3208 26.0869 16.779C25.9797 16.4668 25.6919 15.8685 25.389 15.2572C26.26 15.6616 27.5806 16.0266 30.2669 16.2429C30.5905 16.2692 30.677 16.3783 30.741 16.6737L30.8576 17.8344L29.4543 18.1467C28.9859 18.2407 28.6153 18.5492 28.4403 18.997C28.2484 19.4917 28.3124 20.073 28.6153 20.6449ZM29.1758 19.281C29.253 19.0835 29.4054 18.9575 29.6123 18.9179L31.7155 18.4495L31.5255 16.574L31.5198 16.5326C31.4671 16.2862 31.311 15.5374 30.3347 15.4584C26.576 15.1556 25.7051 14.5969 24.7908 14.0062C24.7908 14.0062 24.7889 14.0005 24.787 13.9986L24.7814 14.0024L24.7231 13.9648C23.7467 13.3327 22.7779 13.3271 22.682 13.3308C21.6172 13.3308 20.2703 13.7522 20.1593 13.7879C19.8339 13.8839 19.531 13.9798 19.2357 14.0739C18.0599 14.4539 17.0422 14.7812 15.3341 14.7304L15.0218 14.721L14.9428 15.022C14.8807 15.2534 14.4029 17.1421 14.8638 18.3555C14.4499 18.6809 14.4499 19.059 14.4537 19.1079C14.4706 19.5237 14.3728 19.6253 14.3408 19.6573C14.1433 19.8623 13.4886 19.8905 12.9374 19.8905H12.7286L12.612 20.0523C12.2715 20.5207 11.536 20.6298 11.0657 20.5094C10.8587 19.8811 10.8531 19.3995 11.0525 19.1136C11.2895 18.7731 11.788 18.7374 11.9912 18.7374H12.1078C12.6082 18.7374 13.0146 18.3291 13.0146 17.8269V14.4464C13.1669 14.2112 13.2873 13.9403 13.3946 13.6356C14.2204 13.5039 14.8506 12.8041 14.8506 11.9632C14.8506 11.6415 14.7547 11.3274 14.5835 11.0602C15.3454 10.6934 15.9981 9.94468 15.9981 8.96082C15.9981 7.97696 15.5034 7.52735 15.0331 7.23201C15.1666 6.85389 15.3849 6.18983 15.5335 5.52201L16.1938 3.15735C16.4891 2.22993 17.2604 1.63171 18.1596 1.63171H29.7854C29.2925 2.32399 28.5946 2.65319 27.6258 2.65319H20.5901L20.2252 3.43953H26.529C26.0343 4.22587 25.3081 4.59834 24.2791 4.59834H19.7078L19.341 5.38468H23.4194C22.9247 6.1428 22.2079 6.5021 21.1977 6.5021H18.7052L18.3383 7.28844H20.9494C20.9739 7.3223 21.0397 7.44082 21.0397 7.75874C21.0397 8.26478 20.6146 8.67676 20.0916 8.67676C19.9129 8.67676 19.7586 8.63537 19.4896 8.52626C19.373 8.47735 19.2582 8.42844 19.1435 8.37953L18.5359 8.92319C18.6487 8.97211 18.7616 9.01913 18.8763 9.06804C19.4012 9.29567 19.6947 9.41418 20.0897 9.41418C20.5713 9.41418 21.004 9.21478 21.3125 8.89686C21.7583 8.92696 22.4826 8.98527 23.1786 9.04171C24.0158 9.11131 24.804 9.17527 25.2122 9.19785C25.4172 9.20914 25.6072 9.21854 25.7897 9.22607C26.1359 9.24488 26.4538 9.25993 26.7717 9.2825C28.3575 11.8597 29.1702 12.1983 32.2441 12.5652C32.4642 12.9621 32.6655 13.3816 32.8555 13.803V18.8483C32.8724 19.0778 32.8724 19.1569 32.8423 19.1982C32.7369 19.3375 32.261 19.5369 32.0955 19.6046L29.5051 20.5809C29.1608 20.1163 29.0385 19.629 29.174 19.2791M7.85258 14.3354L5.37318 13.692V14.5047L7.85258 15.148V14.3354ZM2.07358 15.148L4.55298 14.5047V13.692L2.07358 14.3354V15.148ZM2.07358 16.7809L4.55298 16.1375V15.3249L2.07358 15.9682V16.7809ZM7.85258 15.9682L5.37318 15.3249V16.1375L7.85258 16.7809V15.9682ZM7.85258 17.603L5.37318 16.9577V17.7704L7.85258 18.4157V17.603ZM2.07358 18.4157L4.55298 17.7704V16.9577L2.07358 17.603V18.4157Z" fill="#C5281C"/>
<path d="M65.1215 0.816406H43.3167V22.6213H65.1215V0.816406Z" fill="#C5281C"/>
<path fill-rule="evenodd" clip-rule="evenodd" d="M51.4378 11.6811L54.3912 8.79535L57.2412 11.7864L54.2878 14.6722L51.4378 11.6811ZM54.2238 17.0086V16.48L51.3061 16.4856L46.7404 12.0442L46.3887 12.095L51.2816 17.0387L54.2238 17.0086ZM54.2219 15.4999V14.9713L51.3042 14.9769L48.2322 12.0159L47.8804 12.0667L51.2797 15.53L54.2219 15.4999ZM49.1615 11.6397H49.6901V8.72387L54.1392 4.16575L54.0884 3.81396L49.1352 8.69753L49.1596 11.6397H49.1615ZM50.6702 11.6397H51.1989V8.72387L54.1655 5.65753L54.1147 5.30575L50.6458 8.69941L50.6702 11.6416V11.6397ZM54.3762 6.60189V7.1305L57.2939 7.12486L61.8595 11.5663L62.2113 11.5155L57.3184 6.57179L54.3762 6.60189ZM54.3799 8.1106V8.63921L57.2977 8.63169L60.3696 11.5946L60.7214 11.5438L57.3221 8.0805L54.3818 8.1106H54.3799ZM59.4403 11.9708H58.9117V14.8866L54.4627 19.4448L54.5135 19.7965L59.4667 14.913L59.4422 11.9708H59.4403ZM57.9316 11.9708H57.403V14.8866L54.4364 17.953L54.4872 18.3048L57.9561 14.9111L57.9316 11.9689V11.9708ZM54.1674 2.47268L48.2736 8.67119H45.1753V11.8203L51.1706 18.0188V21.0663H54.2182L60.2643 15.0202H63.261V11.5663L57.4181 5.67258V2.37109L54.1674 2.47268Z" fill="white"/>
<path fill-rule="evenodd" clip-rule="evenodd" d="M51.4378 11.6796L54.3912 8.79389L57.2412 11.785L54.2878 14.6707L51.4378 11.6796ZM54.2238 17.0072V16.4785L51.3061 16.4842L46.7405 12.0427L46.3887 12.0935L51.2816 17.0373L54.2238 17.0072ZM54.2219 15.4984V14.9698L51.3042 14.9755L48.2322 12.0145L47.8805 12.0653L51.2798 15.5285L54.2219 15.4984ZM49.1615 11.6382H49.6902V8.7224L54.1392 4.16428L54.0884 3.8125L49.1352 8.69606L49.1597 11.6382H49.1615ZM50.6703 11.6382H51.1989V8.7224L54.1655 5.65606L54.1147 5.30428L50.6458 8.69795L50.6703 11.6401V11.6382ZM54.3762 6.6023V7.13092L57.2939 7.12527L61.8596 11.5668L62.2113 11.516L57.3184 6.5722L54.3762 6.6023ZM54.38 8.10913V8.63775L57.2977 8.63022L60.3697 11.5931L60.7214 11.5423L57.3221 8.07903L54.3818 8.10913H54.38ZM59.4404 11.9712H58.9117V14.8871L54.4609 19.4452L54.5116 19.797L59.4648 14.9134L59.4404 11.9712ZM57.9316 11.9712H57.403V14.8871L54.4364 17.9534L54.4872 18.3052L57.9561 14.9115L57.9316 11.9693V11.9712Z" fill="#C5281C"/>
<path fill-rule="evenodd" clip-rule="evenodd" d="M45.6476 25.0646L45.2864 26.9966L45.2469 26.9194L45.1998 26.8423L45.1491 26.7746L45.0983 26.7106L45.0381 26.6467L44.9722 26.5921L44.9064 26.5432L44.8349 26.4981L44.7578 26.4567L44.6825 26.4209L44.6016 26.3927L44.5207 26.3664L44.438 26.3476L44.3533 26.3344L44.2668 26.325H44.1746H44.0937L44.0166 26.3344L43.9357 26.3438L43.8604 26.357L43.789 26.3758L43.7137 26.3927L43.6422 26.4209L43.5651 26.4473L43.4993 26.4849L43.4278 26.5206L43.3582 26.562L43.2923 26.6015L43.2265 26.6523L43.1644 26.7069L43.0986 26.7614L43.0384 26.8197L42.9763 26.8837L42.9217 26.9514L42.8653 27.0154L42.8145 27.0831L42.7637 27.1546L42.7186 27.228L42.6772 27.3013L42.6377 27.3785L42.5963 27.4537L42.5662 27.5308L42.5304 27.6136L42.5003 27.6945L42.474 27.781L42.4533 27.8676L42.4289 27.9541L42.4138 28.0444L42.3988 28.1347L42.3875 28.2212L42.3781 28.3078L42.3724 28.3924V28.4752V28.5561L42.3837 28.6332L42.3875 28.7103L42.4025 28.7837L42.4176 28.8552L42.4383 28.9286L42.4646 28.9963L42.4891 29.064L42.5248 29.128L42.5549 29.1919L42.5963 29.2502L42.6377 29.3086L42.6772 29.3631L42.728 29.4139L42.7731 29.459L42.8239 29.5042L42.8803 29.5399L42.9368 29.5776L42.997 29.6095L43.0572 29.6359L43.1249 29.6622L43.1907 29.681L43.2603 29.6998L43.3318 29.713L43.409 29.7224L43.4842 29.7262H43.5651H43.6516L43.7382 29.7168L43.8247 29.7036L43.9169 29.6848L44.0015 29.6585L44.0881 29.6265L44.1802 29.5945L44.2668 29.5493L44.3571 29.5042L44.438 29.4553L44.5245 29.4007L44.6073 29.3405L44.6825 29.2822L44.7578 29.2145L44.8293 29.1468L44.9007 29.0696L44.5452 30.996L44.4436 31.028L44.3477 31.0637L44.2517 31.0919L44.1539 31.1239L44.0674 31.1465L43.9771 31.1728L43.8905 31.1954L43.7984 31.218L43.7325 31.233L43.6667 31.2462L43.5971 31.2556L43.5294 31.2631L43.4598 31.2725L43.3939 31.2782L43.3224 31.2819H43.2509L43.108 31.2782L42.9725 31.2688L42.8352 31.2499L42.7035 31.2236L42.5756 31.1916L42.4496 31.1502L42.3273 31.1013L42.205 31.0468L42.0884 30.9866L41.9717 30.9188L41.8645 30.8417L41.7592 30.7646L41.6613 30.6743L41.5654 30.584L41.4695 30.4843L41.3829 30.3789L41.2964 30.2623L41.2211 30.14L41.1497 30.0121L41.0876 29.8861L41.033 29.7488L40.9879 29.6095L40.9521 29.4685L40.9201 29.3236L40.9013 29.1693L40.8863 29.0188L40.875 28.8608V28.7009L40.8863 28.5391L40.9013 28.3755L40.9201 28.2081L40.9465 28.035L40.9822 27.877L41.018 27.7227L41.0631 27.5628L41.1139 27.4142L41.1703 27.2599L41.2362 27.1094L41.3058 26.9608L41.3773 26.8103L41.4582 26.6655L41.5447 26.5206L41.6369 26.3852L41.7328 26.2535L41.8344 26.1256L41.9416 25.9995L42.0526 25.881L42.1655 25.7625L42.2859 25.6534L42.4082 25.5499L42.5361 25.4502L42.6621 25.3599L42.7938 25.2734L42.9311 25.1925L43.0685 25.1154L43.2096 25.0458L43.3582 24.9837L43.4993 24.9291L43.6422 24.8784L43.7833 24.8426L43.9263 24.8106L44.0674 24.7881L44.2103 24.7692L44.3533 24.7617H44.3684H44.3834H44.3985H44.4135L44.5 24.7655H44.5809L44.6618 24.7749L44.7427 24.7843L44.8255 24.7918L44.9007 24.8106L44.9816 24.8238L45.0588 24.8426L45.2111 24.8878L45.3579 24.9423L45.499 25.0063L45.6419 25.074L45.6476 25.0646Z" fill="#C5281C"/>
<path fill-rule="evenodd" clip-rule="evenodd" d="M48.4451 28.395L48.4395 28.3217L48.4338 28.2539L48.4188 28.1862L48.3981 28.1279L48.3774 28.0696L48.3473 28.015L48.3115 27.9661L48.2664 27.9172L48.2212 27.8758L48.1761 27.8401L48.1253 27.8081L48.0689 27.7855L48.0124 27.7629L47.9522 27.7498L47.892 27.7404H47.7547L47.6832 27.7498L47.6117 27.7629L47.5459 27.7818L47.4801 27.8043L47.4142 27.8307L47.354 27.8664L47.2938 27.9022L47.2336 27.9473L47.1772 27.9962L47.1264 28.0508L47.0756 28.1091L47.0342 28.173L46.9928 28.2408L46.9571 28.3141L46.927 28.395H48.4451ZM49.5249 29.1023L49.4948 29.2566H46.7426L46.7276 29.3695L46.7182 29.4729L46.7125 29.5689L46.7219 29.6648L46.7313 29.7457L46.752 29.8228L46.7671 29.8586L46.7821 29.8943L46.8028 29.9263L46.8235 29.9583L46.8442 29.9903L46.8649 30.0166L46.8912 30.0392L46.9213 30.0618L46.9477 30.0843L46.9778 30.1069L47.0135 30.1257L47.0436 30.1389L47.085 30.152L47.1207 30.1652L47.1621 30.1746L47.2035 30.184L47.2957 30.1972H47.4424L47.4932 30.1934L47.544 30.1897L47.5892 30.1803L47.6343 30.1671L47.6795 30.1483L47.7246 30.1295L47.7698 30.1107L47.8111 30.0843L47.8525 30.058L47.8939 30.026L47.9353 29.9903L47.9767 29.9545L48.0181 29.9094L48.0538 29.8642L48.0896 29.8153H49.3481L49.3067 29.9113L49.2653 29.9978L49.2239 30.0843L49.1788 30.1709L49.128 30.248L49.0828 30.3251L49.0264 30.3985L48.97 30.4719L48.9135 30.5358L48.8533 30.5998L48.7931 30.6637L48.7273 30.7183L48.6614 30.7728L48.59 30.8236L48.5185 30.8744L48.4432 30.9196L48.368 30.961L48.2927 30.9967L48.2175 31.0324L48.1422 31.0682L48.067 31.1002L47.9917 31.1265L47.9165 31.1528L47.8356 31.1754L47.7604 31.1942L47.6851 31.213L47.6042 31.2262L47.529 31.2394L47.4537 31.2488L47.3728 31.2525L47.2976 31.2563L47.2167 31.2601L47.1057 31.2563L46.9947 31.2525L46.8875 31.2394L46.7859 31.2262L46.6843 31.2036L46.5884 31.1811L46.4962 31.1491L46.404 31.1171L46.3175 31.0814L46.2366 31.0362L46.1557 30.9911L46.0748 30.9403L46.0033 30.882L45.9318 30.8236L45.8603 30.7597L45.8001 30.692L45.74 30.6148L45.6835 30.5377L45.6327 30.4568L45.5913 30.3703L45.55 30.2837L45.5199 30.1878L45.4898 30.0881L45.4691 29.9884L45.454 29.8793L45.4446 29.7702L45.439 29.6573V29.5388L45.4446 29.4165L45.454 29.2905L45.4747 29.1588L45.4954 29.0233L45.5199 28.8954L45.55 28.7694L45.5857 28.6471L45.6214 28.5286L45.6628 28.4101L45.708 28.2972L45.7588 28.1881L45.8152 28.0846L45.8716 27.9849L45.9318 27.8852L45.992 27.7893L46.0635 27.699L46.135 27.6124L46.2103 27.5316L46.2911 27.4507L46.372 27.3735L46.4586 27.3002L46.5451 27.2324L46.6373 27.1685L46.7295 27.1102L46.8216 27.0556L46.9176 27.0067L47.0135 26.9653L47.1095 26.9239L47.211 26.8882L47.3126 26.8562L47.4142 26.8336L47.5214 26.8111L47.6287 26.7922L47.7359 26.7828L47.8431 26.7734H48.0764L48.1874 26.7828L48.2984 26.796L48.4056 26.8092L48.5015 26.8318L48.5975 26.8581L48.6934 26.8901L48.78 26.9315L48.8608 26.9728L48.9417 27.018L49.017 27.0725L49.0885 27.1271L49.1543 27.1911L49.2145 27.2588L49.2747 27.3265L49.3255 27.4036L49.3763 27.4845L49.4177 27.5711L49.4591 27.6576L49.4948 27.7479L49.5249 27.8438L49.5512 27.9435L49.5719 28.0432L49.587 28.1467L49.5964 28.2558L49.602 28.3687L49.6077 28.4872L49.602 28.6057L49.5926 28.728L49.5832 28.8559L49.5625 28.982L49.5418 29.1136V29.1099L49.5249 29.1023Z" fill="#C5281C"/>
<path fill-rule="evenodd" clip-rule="evenodd" d="M51.7388 27.4372H51.7539L51.8291 27.3469L51.9006 27.266L51.9777 27.1889L52.053 27.1212L52.1301 27.0572L52.211 27.0027L52.2863 26.9519L52.3634 26.9124L52.4443 26.8804L52.5252 26.8484L52.6061 26.8202L52.6926 26.8033L52.7791 26.7844L52.8713 26.775L52.9616 26.7656H53.0575H53.1497L53.2363 26.7713L53.3171 26.7807L53.398 26.7938L53.4752 26.8127L53.5467 26.8352L53.6125 26.8578L53.6727 26.8841L53.7329 26.9199L53.7893 26.9519L53.8401 26.9933L53.8853 27.0384L53.9267 27.0835L53.9662 27.1381L54.0019 27.1927L54.0339 27.251L54.0583 27.3112L54.0847 27.3751L54.1035 27.4429L54.1242 27.5106L54.1392 27.5821L54.1543 27.6554L54.1656 27.7326L54.1693 27.8097L54.175 27.8906V27.9734L54.1693 28.0599L54.1656 28.1445L54.1599 28.2348L54.1505 28.327L54.1355 28.4211L54.1185 28.517L53.6369 31.1149H52.3276L52.7076 29.0569L52.7133 29.0381L52.7189 29.0155L52.7227 28.993L52.7283 28.9704L52.734 28.929L52.7377 28.8933L52.749 28.8519L52.7547 28.8124L52.7641 28.771L52.7697 28.7296L52.7735 28.6901L52.7791 28.6487L52.7848 28.5847L52.7885 28.5208V28.4625L52.7848 28.4041L52.7791 28.3439L52.7697 28.2856L52.7547 28.2311L52.7377 28.1765L52.7283 28.1502L52.7133 28.122L52.6982 28.0994L52.6832 28.0825L52.6625 28.0599L52.6418 28.0411L52.6211 28.0279L52.5967 28.0129L52.5402 27.9865L52.48 27.9734L52.4029 27.9583H52.322H52.2769L52.2317 27.9639L52.1847 27.9677L52.1395 27.9771L52.0981 27.9865L52.0586 27.9997L52.0172 28.0129L51.9777 28.0317L51.942 28.0505L51.9063 28.0731L51.8762 28.0956L51.8461 28.122L51.8141 28.1502L51.784 28.1822L51.7595 28.2123L51.7332 28.2499L51.6824 28.3214L51.6429 28.4041L51.6015 28.4813L51.5658 28.5659L51.5357 28.6525L51.5056 28.7446L51.4792 28.8387L51.4585 28.9346L51.0578 31.1149H49.7485L50.5311 26.8973H51.8404L51.7388 27.4372Z" fill="#C5281C"/>
<path fill-rule="evenodd" clip-rule="evenodd" d="M55.9319 31.1163H54.6226L55.1756 28.1328H54.7486L54.9781 26.8987H55.4033L55.6365 25.6289H56.9477L56.7126 26.8987H57.45L57.2205 28.1328H56.4849L55.9319 31.1163Z" fill="#C5281C"/>
<path fill-rule="evenodd" clip-rule="evenodd" d="M59.0491 27.5886H59.0641L59.13 27.4983L59.1958 27.4117L59.2673 27.3346L59.3425 27.2575L59.4197 27.1935L59.5006 27.1295L59.5814 27.075L59.668 27.0298L59.7545 26.9847L59.841 26.949L59.9313 26.917L60.0235 26.8944L60.1138 26.8718L60.206 26.8587L60.2963 26.8493H60.3941L60.6481 26.8398L60.3791 28.2771L60.3527 28.2677L60.332 28.2545L60.3076 28.2413L60.2812 28.2282L60.2305 28.2056L60.1797 28.1868L60.1289 28.1736L60.0781 28.1642L60.0235 28.1548L59.9671 28.151L59.9106 28.1454H59.8504L59.7846 28.151L59.7188 28.1548L59.6567 28.1604L59.5965 28.168L59.5401 28.183L59.4855 28.1999L59.4291 28.2188L59.3783 28.2357L59.3331 28.2639L59.2823 28.2902L59.2409 28.3185L59.2014 28.3542L59.1601 28.3899L59.1243 28.4276L59.0886 28.4671L59.0585 28.5141L58.9983 28.6082L58.9418 28.7079L58.891 28.8132L58.8459 28.9223L58.8045 29.039L58.7688 29.1612L58.733 29.2892L58.7086 29.4208L58.3944 31.1158H57.0889L57.8714 26.8982H59.1751L59.0491 27.5886Z" fill="#C5281C"/>
<path fill-rule="evenodd" clip-rule="evenodd" d="M62.8361 28.0561L62.7402 28.0655L62.6443 28.0787L62.6029 28.0881L62.5577 28.1013L62.5126 28.1201L62.4712 28.1332L62.4298 28.1558L62.3884 28.1746L62.347 28.201L62.3057 28.2235L62.2342 28.2819L62.1627 28.3496L62.0968 28.423L62.0366 28.4963L61.9858 28.5772L61.9351 28.6581L61.8993 28.7446L61.8636 28.8312L61.8335 28.9215L61.8128 29.0174L61.7977 29.1171L61.7921 29.213V29.3033L61.8015 29.3899L61.8165 29.4708L61.841 29.5479L61.8711 29.625L61.9125 29.6928L61.9332 29.7247L61.9595 29.7567L61.984 29.7831L62.0103 29.8094L62.0404 29.8357L62.0705 29.8583L62.1062 29.8771L62.142 29.8959L62.1777 29.9147L62.2135 29.9279L62.2549 29.9373L62.2962 29.9467L62.3414 29.9561L62.3865 29.9599L62.4317 29.9636H62.4768L62.5784 29.9599L62.6706 29.9467L62.7157 29.9373L62.7609 29.9279L62.806 29.9091L62.8474 29.8959L62.8888 29.8771L62.9302 29.8583L62.9716 29.8357L63.013 29.8094L63.0845 29.7548L63.1559 29.6909L63.2218 29.6175L63.2782 29.5441L63.329 29.467L63.3742 29.3861L63.4156 29.2958L63.4513 29.2055L63.4757 29.1096L63.5002 29.0136L63.5153 28.9139L63.5209 28.8236V28.7371L63.5115 28.6506L63.4964 28.564L63.4757 28.4869L63.4456 28.4098L63.4043 28.3364L63.3836 28.3044L63.3591 28.2687L63.3347 28.2424L63.3102 28.216L63.2801 28.1897L63.25 28.1671L63.2199 28.1445L63.1842 28.1257L63.1484 28.1069L63.107 28.0937L63.0656 28.0806L63.0243 28.0712L62.9791 28.0674L62.934 28.058H62.8888L62.838 28.0542L62.8361 28.0561ZM64.3731 31.1168H63.0675L63.1541 30.6446H63.139L63.0826 30.718L63.0261 30.7857L62.9659 30.8497L62.9057 30.9042L62.8399 30.9588L62.7684 31.0039L62.6969 31.0491L62.6254 31.0848L62.5502 31.1206L62.475 31.1526L62.4035 31.1751L62.3282 31.1977L62.253 31.2165L62.1777 31.2297L62.1062 31.2391L62.031 31.2485L62.0009 31.2523L61.9764 31.256H61.9162L61.8147 31.2523L61.7187 31.2429L61.6265 31.2297L61.5344 31.2109L61.4422 31.1883L61.3613 31.162L61.2804 31.1262L61.2052 31.0905L61.1299 31.0453L61.0584 30.9964L60.9926 30.9419L60.9267 30.8779L60.8665 30.8139L60.8063 30.7406L60.7555 30.6672L60.7048 30.5863L60.654 30.4998L60.6126 30.4132L60.5712 30.3267L60.5355 30.2364L60.511 30.1405L60.4865 30.0502L60.4621 29.9542L60.447 29.8545L60.4376 29.7548L60.4282 29.6551V29.4463L60.4339 29.3429L60.4433 29.2337L60.4583 29.1209L60.4734 29.0118L60.4978 28.8989L60.5223 28.7898L60.5524 28.6807L60.5881 28.5716L60.6239 28.4681L60.6653 28.3646L60.7104 28.2649L60.7612 28.1652L60.812 28.0693L60.8684 27.9733L60.9286 27.8774L60.9888 27.7871L61.0547 27.6968L61.1261 27.6065L61.2014 27.52L61.2766 27.4334L61.3575 27.3563L61.4384 27.2792L61.5193 27.2058L61.6058 27.1419L61.6924 27.0835L61.7789 27.0252L61.8711 26.9744L61.9633 26.9331L62.0554 26.8917L62.1476 26.8559L62.2436 26.8296L62.3395 26.807L62.4355 26.7882L62.5314 26.775L62.633 26.7656H62.8418L62.8775 26.7694L62.949 26.7788L63.0149 26.792L63.0807 26.8051L63.1465 26.8239L63.2124 26.8465L63.2726 26.8691L63.3384 26.9011L63.3986 26.9331L63.4551 26.9688L63.5115 27.0045L63.5679 27.0497L63.6131 27.0948L63.6582 27.1437L63.7034 27.1927L63.7391 27.251L63.7749 27.3093L63.8557 26.8917H65.1594L64.3768 31.1093L64.3731 31.1168Z" fill="#C5281C"/>
<path fill-rule="evenodd" clip-rule="evenodd" d="M66.5515 31.1179H65.2478L66.5101 24.293H67.8156L66.5515 31.1179Z" fill="#C5281C"/>
<path d="M7.73798 27.7544L7.74362 25.117C9.39531 25.117 10.0029 25.0342 10.2889 27.0602H10.4638V24.8047H5.96402V25.1151H6.74283V30.9167H5.88501V31.2233H10.5221V28.853H10.2889C10.0575 30.6458 9.60412 30.9185 8.32867 30.9185H7.73798V28.1005H8.08036C8.65224 28.1137 8.97768 28.4467 9.09432 29.4324H9.30501V26.5184H9.0962C9.0962 26.5335 9.05481 27.7713 8.0559 27.7544H7.73798Z" fill="#C5281C"/>
<path d="M5.9 27.8683H3.36228V28.1561H4.23139V30.2424C4.08465 30.771 3.30396 30.993 3.07257 30.993C1.45099 30.993 1.56574 28.6208 1.56574 27.9849C1.56574 27.4036 1.50743 24.975 3.07257 24.975C4.17307 24.975 4.75247 26.0718 4.98574 27.0575H5.16257C5.16257 26.6512 5.16822 24.7192 5.16257 24.723C5.16634 24.7079 4.40822 25.2685 4.40446 25.2591C4.42139 25.2553 4.05832 24.7399 3.07069 24.7399C1.15564 24.7399 0.453961 26.6512 0.461486 27.9831C0.470892 29.2021 1.03337 31.2789 3.07069 31.2789C3.71218 31.2789 4.16178 30.9535 4.40446 30.5829C4.40822 30.5735 5.21337 31.2187 5.21525 31.2206V28.1542H5.9V27.8664V27.8683Z" fill="#C5281C"/>
<path d="M35.5644 28.8501C35.333 30.6429 34.8797 30.9119 33.6042 30.9119H33.5271V25.1122H34.3379V24.7999H31.6722V25.1122H32.483V30.9119H31.8396L29.4712 24.625H29.1232C29.1232 24.625 27.1536 30.3288 27.1498 30.3457C27.1536 30.3288 27.0012 30.8348 26.6758 30.8988C26.3767 30.9119 26.3993 30.7558 26.3993 30.7012V29.6026C26.3993 29.3148 26.3767 28.6583 26.0776 28.3573C25.7408 28.0187 25.1671 27.9942 25.1802 27.981C25.1802 27.981 26.6363 27.68 26.6363 26.2955C26.6363 25.3248 25.9609 24.8413 24.8341 24.7999H21.6323V25.1122H22.4506V30.9119H21.6323V31.2204H24.2585V30.9119H23.4383V28.1221C23.4383 28.1221 24.4729 28.1221 24.5312 28.1221C26.4256 28.2783 24.2058 31.2223 26.689 31.2186H28.2541V30.9101C28.1676 30.9101 27.5938 30.927 27.5581 30.5282C27.5336 30.2403 27.9362 29.2019 27.9362 29.2019H30.0676C30.0676 29.2019 30.7297 30.9119 30.7373 30.9119H29.9942V31.2204H35.7995V28.8501H35.5663H35.5644ZM24.4842 27.7986H23.442V25.1103H24.7739C25.5565 25.227 25.5885 26.1318 25.5885 26.4178C25.5885 27.1138 25.2969 27.7986 24.4842 27.7986ZM28.0792 28.9066L29.0066 26.1318L29.9923 28.9066H28.0792Z" fill="#C5281C"/>
<path d="M18.4757 25.1132C20.1274 25.1132 20.7369 25.0342 21.0247 27.0602H21.1997V24.8047H14.6381V25.1132H14.8093C15.0407 25.1132 15.59 25.1301 15.6219 25.6136V29.3139L12.5518 24.8047H10.8813V25.1132H11.1579C11.4871 25.1132 11.9499 25.1282 11.9706 25.6136V30.3542C11.9706 30.817 11.2783 30.9938 10.9886 30.9938H10.9848V31.2233H13.246V30.9938C12.9563 30.9938 12.2603 30.817 12.2603 30.3542L12.2678 26.1817C13.483 27.9181 15.7762 31.2271 15.7988 31.2233H15.9135V25.6136C15.9455 25.1301 16.4948 25.1132 16.7262 25.1132H17.4787V30.9167H16.619V31.2233H21.2561V28.853H21.0228C20.7933 30.6458 20.3381 30.9185 19.0626 30.9185H18.4738V28.1005H18.8162C19.3881 28.1137 19.7135 28.4467 19.8302 29.4324H20.0409V26.5184H19.832C19.832 26.5335 19.7907 27.7713 18.7917 27.7544H18.4757V25.1151V25.1132Z" fill="#C5281C"/>
<path d="M38.7137 25.111V24.7969H36.0969V25.111H36.9209L36.9228 30.907H36.0969V31.2193H38.7137V30.907H37.8916V25.111H38.7137Z" fill="#C5281C"/>
<path d="M14.2129 35.9805H0.487793V36.3642H14.2129V35.9805Z" fill="#C5281C"/>
<path d="M67.8155 35.9805H54.0903V36.3642H67.8155V35.9805Z" fill="#C5281C"/>
<path d="M16.2505 37.8501V34.4922H16.9409V37.8501H16.2505Z" fill="#C5281C"/>
<path d="M20.0182 34.4922L20.8516 36.791H20.861V34.4922H21.4931V37.8501H20.7086L19.8659 35.4986H19.8564V37.8501H19.2244V34.4922H20.0201H20.0182Z" fill="#C5281C"/>
<path d="M24.2982 36.8077V36.9074C24.2982 37.2215 24.3885 37.4247 24.7535 37.4247C24.9642 37.4247 25.1655 37.293 25.1655 37.0108C25.1655 36.7061 25.0074 36.5932 24.5522 36.4371C23.9389 36.2301 23.6567 35.9818 23.6567 35.4212C23.6567 34.7684 24.0631 34.4336 24.714 34.4336C25.3272 34.4336 25.7712 34.6913 25.7712 35.3366V35.4306H25.1109C25.1109 35.1165 25.0018 34.9321 24.7366 34.9321C24.4262 34.9321 24.3434 35.1259 24.3434 35.3234C24.3434 35.5209 24.4055 35.6564 24.697 35.7786L25.2294 36.0044C25.7467 36.2245 25.8803 36.4841 25.8803 36.8923C25.8803 37.6015 25.4401 37.9213 24.6933 37.9213C23.9465 37.9213 23.606 37.5639 23.606 36.9431V36.8058H24.2964L24.2982 36.8077Z" fill="#C5281C"/>
<path d="M28.6437 34.4922V36.8343C28.6437 37.1672 28.7246 37.4174 29.0462 37.4174C29.3679 37.4174 29.4488 37.1691 29.4488 36.8343V34.4922H30.1392V36.8343C30.1392 37.6902 29.6068 37.916 29.0481 37.916C28.4894 37.916 27.957 37.7335 27.957 36.8343V34.4922H28.6474H28.6437Z" fill="#C5281C"/>
<path d="M32.3439 34.4922H33.6175C34.1818 34.4922 34.5261 34.7838 34.5261 35.3575C34.5261 35.8034 34.3436 36.1044 33.9561 36.1853V36.1947C34.4245 36.2549 34.4979 36.5088 34.5073 37.2199C34.5129 37.5736 34.5317 37.7561 34.6597 37.8219V37.8501H33.9128C33.8451 37.756 33.8319 37.63 33.8263 37.4964L33.8075 36.8531C33.7981 36.5897 33.6777 36.4298 33.4012 36.4298H33.0324V37.8501H32.342V34.4922H32.3439ZM33.0324 35.9595H33.3203C33.6513 35.9595 33.8376 35.8184 33.8376 35.4572C33.8376 35.1468 33.6702 34.9926 33.3598 34.9926H33.0343V35.9614L33.0324 35.9595Z" fill="#C5281C"/>
<path d="M37.4421 34.4922H38.2943L39.1992 37.8501H38.4805L38.3225 37.1409H37.412L37.254 37.8501H36.5354L37.4403 34.4922H37.4421ZM37.5324 36.586H38.2021L37.871 35.0772H37.8616L37.5306 36.586H37.5324Z" fill="#C5281C"/>
<path d="M42.0038 34.4922L42.8372 36.791H42.8466V34.4922H43.4787V37.8501H42.6942L41.8514 35.4986H41.842V37.8501H41.21V34.4922H42.0057H42.0038Z" fill="#C5281C"/>
<path d="M47.1866 35.6319C47.1866 35.1428 47.0869 34.9321 46.7746 34.9321C46.4247 34.9321 46.3438 35.2764 46.3438 36.2245C46.3438 37.2403 46.4868 37.4228 46.784 37.4228C47.0323 37.4228 47.2148 37.2968 47.2148 36.5725H47.9052C47.9052 37.2968 47.7227 37.9213 46.8178 37.9213C45.7832 37.9213 45.6553 37.1971 45.6553 36.1775C45.6553 35.1578 45.7851 34.4336 46.8178 34.4336C47.8506 34.4336 47.8751 35.1428 47.8751 35.6319H47.1847H47.1866Z" fill="#C5281C"/>
<path d="M51.9779 34.4922V35.0471H50.757V35.8372H51.9065V36.3922H50.757V37.2952H52.025V37.8501H50.0667V34.4922H51.9779Z" fill="#C5281C"/>
</g>
<defs>
<clipPath id="clip0_8052_26359">
<rect width="67.5347" height="38" fill="white" transform="translate(0.418213)"/>
</clipPath>
</defs>
</svg>
