<svg version="1.2" xmlns="http://www.w3.org/2000/svg" viewBox="0 0 1550 201" width="1550" height="201"><style>.a{fill:#003c70}.b{fill:#0077d4}</style><path fill-rule="evenodd" class="a" d="m0.2 197.2v-196.9h32v82.4h99.4v-82.4h32v196.9h-32v-87h-99.4v87zm232.8 3.7q-7.1 0-15.3-1.7-8.2-1.8-15.5-6.4-7.2-4.7-11.7-12.9-4.6-8.3-4.6-21.7 0-15.7 7.1-25.8 7.1-10.2 19.9-16 12.7-5.8 30.4-8.1 17.7-2.3 38.7-2.3v-15.1q0-7.6-2.4-13.4-2.4-5.8-8.8-9-6.4-3.2-18.3-3.2-11.9 0-18.5 3-6.7 3.1-9.4 7.6-2.7 4.5-2.7 9.7v4.4h-28.3q-0.3-1.5-0.3-2.9v-3.5q0-13.7 7.5-23.1 7.5-9.4 21.1-14.4 13.6-4.9 31.5-4.9 19.3 0 32.2 5.7 12.9 5.6 19.4 16.1 6.5 10.4 6.5 25.2v77.6q0 5.5 2.7 7.8 2.7 2.3 6.4 2.3h10.2v20.4q-3.4 1.4-8.5 2.9-5.1 1.4-11.9 1.4-7.7 0-12.9-2.7-5.3-2.8-8.5-7.9-3.3-5.1-4.4-11.5h-1.7q-5.1 6.7-12.4 11.8-7.2 5.1-16.5 7.8-9.4 2.8-21 2.8zm8.2-25q8.8 0 16.3-2.7 7.5-2.8 12.9-7.9 5.4-5 8.5-12.2 3.1-7.1 3.1-15.5v-10.1q-19.5 0-34.3 2.3-14.7 2.3-22.9 8.5-8.3 6.3-8.3 17.3 0 6.7 2.9 11.2 2.8 4.5 8.5 6.8 5.6 2.3 13.3 2.3z"/><path class="a" d="m341.9 197.2v-152.5h25.3l2.6 21.7h2.1q5.5-8.4 13.2-13.9 7.6-5.5 16.8-8.4 9.3-2.9 20.4-2.9 14.7 0 25.9 5.1 11.1 5 17.4 16.4 6.3 11.3 6.3 30.4v104.1h-30.5v-99.5q0-8.7-2.2-14.5-2.2-5.7-6.3-9.2-4.1-3.5-9.7-5-5.6-1.4-12.3-1.4-10.6 0-19.2 5.1-8.7 5-14 14-5.3 9-5.3 21.2v89.3zm156 0v-152.5h24.6l2.5 21.7h2q5.4-8.4 12.8-13.9 7.4-5.5 16.4-8.4 9-2.9 19.8-2.9 14.3 0 25.1 5.1 10.9 5 17 16.4 6.1 11.3 6.1 30.4v104.1h-29.6v-99.5q0-8.7-2.2-14.5-2.1-5.7-6.1-9.2-4-3.5-9.4-5-5.4-1.4-12-1.4-10.2 0-18.6 5.1-8.5 5-13.6 14-5.1 9-5.1 21.2v89.3z"/><path fill-rule="evenodd" class="a" d="m715.1 200.9q-23.5 0-39.8-8.6-16.2-8.5-24.3-26.2-8.2-17.7-8.2-45 0-27.6 8.2-45.2 8.1-17.6 24.3-26.1 16.3-8.6 39.8-8.6 24.1 0 40.1 8.6 16.1 8.5 24.3 26.1 8.2 17.6 8.2 45.2 0 27.3-8.2 45-8.2 17.7-24.3 26.2-16 8.6-40.1 8.6zm0-25q14.3 0 23.5-5.6 9.2-5.7 13.6-17.3 4.5-11.6 4.5-29.3v-5.3q0-17.7-4.5-29.3-4.4-11.6-13.6-17.3-9.2-5.6-23.5-5.6-14.1 0-23.3 5.6-9.1 5.7-13.6 17.3-4.4 11.6-4.4 29.3v5.3q0 17.7 4.4 29.3 4.5 11.6 13.6 17.3 9.2 5.6 23.3 5.6z"/><path class="a" d="m846.6 197.2l-55.2-152.3h30.9l25.8 72.7q1.7 5.2 4.2 13.4 2.6 8.3 5.1 17 2.6 8.7 4.5 15.6h1.5q1.7-6.6 4.1-15.2 2.4-8.5 4.9-16.9 2.6-8.4 4.6-13.9l25.5-72.7h30l-55.5 152.3z"/><path fill-rule="evenodd" class="a" d="m1003.6 200.9q-23.4 0-39.2-8.6-15.7-8.5-23.8-26.2-8.1-17.7-8.1-45 0-27.6 8.1-45.2 8.1-17.6 24-26.1 15.8-8.6 39.6-8.6c14.3 0 26.4 2.8 36.1 8.3 9.8 5.5 17.1 13.9 22.1 25.1 5.1 11.2 7.5 25.4 7.5 42.4v11.6h-106.5q0.6 16.3 4.9 27.2 4.4 10.8 13.2 15.9c5.8 3.4 13.2 5.1 22.4 5.1 5.5 0 10.6-0.7 14.9-2.2q6.7-2.1 11.3-6.4c3.1-2.8 5.5-6.1 7.2-10.1 1.7-4 2.6-8.5 2.6-13.5h29.4c0 9.1-1.5 17.1-4.5 24.1-3.1 6.9-7.5 12.8-13.5 17.5-5.8 4.8-12.8 8.4-20.9 10.9-8.1 2.5-17 3.8-26.8 3.8zm-39.6-94.4h74.4q0-11.3-2.3-19-2.6-7.7-7.2-12.6c-3-3.3-6.7-5.7-10.9-7.1-4.2-1.5-9.1-2.2-14.4-2.2-8.2 0-15 1.5-20.7 4.4q-8.5 4.3-13.1 13.5-4.7 9.1-5.8 23z"/><path class="a" d="m1092.2 197.2v-152.5h23.9l2.5 24.6h1.6q2.6-7.2 6.6-13.6c2.7-4.2 6.1-7.7 10.5-10.4 4.3-2.8 9.6-4.1 15.9-4.1 3 0 5.6 0.3 8 0.9q3.4 0.8 5.3 1.4v28.4h-9.7c-5.8 0-11.1 1-15.7 2.9-4.4 2-8.3 4.8-11.3 8.6-3 3.8-5.3 8.4-6.7 13.8q-2.1 8.1-2.1 18.2v81.8z"/><path fill-rule="evenodd" class="b" d="m1229.7 197.2v-196.9h102.4c13.9 0 25.3 2.5 34.4 7.5 9.1 5 15.8 11.9 20.4 20.8q6.8 13.4 6.8 31.1c0 13.2-2.9 24.7-8.8 34.5q-8.8 14.6-24.9 21.5l40.6 81.5h-34.7l-36.9-76h-67.5v76zm31.8-103h68c10.3 0 18.2-3.1 23.8-9.2q8.3-9.2 8.3-25.5 0-10-3.6-17.1-3.8-7.1-10.8-10.8c-4.8-2.5-10.6-3.7-17.7-3.7h-68z"/><path fill-rule="evenodd" class="b" d="m1482.7 200.9c-15.6 0-28.6-2.9-39.1-8.6q-15.8-8.5-23.8-26.2c-5.5-11.8-8.1-26.8-8.1-45 0-18.4 2.6-33.5 8.1-45.2 5.3-11.7 13.4-20.4 24-26.1q15.8-8.6 39.5-8.6 21.7 0 36.2 8.3c9.7 5.5 17.1 13.9 22.1 25.1 5 11.2 7.5 25.4 7.5 42.4v11.6h-106.5c0.4 10.9 2 19.9 4.9 27.2q4.3 10.8 13.1 15.9c5.9 3.4 13.4 5.1 22.4 5.1 5.6 0 10.6-0.7 15-2.2 4.5-1.4 8.2-3.5 11.3-6.4q4.6-4.2 7.2-10.1 2.6-6 2.6-13.5h29.4c0 9.1-1.5 17.1-4.6 24.1q-4.6 10.4-13.4 17.5c-5.9 4.8-12.9 8.4-21 10.9-8 2.5-17 3.8-26.8 3.8zm-39.5-94.4h74.4c0-7.5-0.7-13.9-2.4-19-1.6-5.1-4-9.3-7.1-12.6q-4.6-5-11-7.1c-4.2-1.5-9-2.2-14.4-2.2-8 0-15 1.5-20.6 4.4q-8.5 4.4-13.2 13.5c-3.1 6-5 13.7-5.7 23z"/></svg>