<svg width="320" height="59" viewBox="0 0 320 59" fill="none" xmlns="http://www.w3.org/2000/svg">
<g clip-path="url(#clip0_3551_350)">
<path fill-rule="evenodd" clip-rule="evenodd" d="M240.251 29.2888C236.704 29.2888 235.245 26.3501 235.245 23.0563C235.245 19.7231 236.704 16.7646 240.251 16.7646C243.799 16.7646 245.238 19.7034 245.238 23.0563C245.238 26.3501 243.799 29.2888 240.251 29.2888ZM240.251 34.6732C247.603 34.6732 253.181 30.3933 253.181 23.0563C253.181 15.6602 247.584 11.4 240.251 11.4C232.899 11.4 227.321 15.6799 227.321 23.0563C227.302 30.413 232.899 34.6732 240.251 34.6732Z" fill="#ED1C24"/>
<path d="M252.491 17.2972H256.887V26.3501C256.887 31.6556 258.562 34.6732 265.421 34.6732C267.353 34.6732 268.792 34.4168 270.25 34.2393L269.994 29.2494C269.225 29.3677 268.417 29.5452 267.649 29.5452C265.224 29.5452 264.574 28.1843 264.574 25.4823V17.2775H269.955V11.8931H264.574V4.20105L257.025 6.90311V11.9128H252.491V17.2972Z" fill="#ED1C24"/>
<path d="M296.84 34.1604H304.527V23.1352H304.606L310.755 34.1604H320.079L311.702 22.1096L319.428 11.9128H311.012L304.606 21.2615H304.527V4.24048L296.84 6.9031V34.1604Z" fill="#ED1C24"/>
<path d="M206.842 34.1604H214.529V23.1352H214.627L220.777 34.1604H230.08L221.703 22.1096L229.43 11.9128H221.033L214.627 21.2615H214.529V4.24048L206.842 6.76503V34.1604Z" fill="#ED1C24"/>
<path fill-rule="evenodd" clip-rule="evenodd" d="M278.43 27.139C278.43 24.9695 280.5 24.1608 283.141 24.1608C284.304 24.1608 285.427 24.2397 286.433 24.2989C286.433 26.9418 284.58 29.6241 281.643 29.6241C279.81 29.6044 278.43 28.6971 278.43 27.139ZM294.12 34.2788C293.765 32.5037 293.686 30.7286 293.686 28.9535V20.5712C293.686 13.6879 288.719 11.2225 282.964 11.2225C279.633 11.2225 276.735 11.6958 273.976 12.82L274.114 18.1058C276.282 16.9027 278.785 16.4096 281.288 16.4096C284.107 16.4096 286.393 17.238 286.433 20.2951C285.447 20.1176 284.048 19.9993 282.806 19.9993C278.667 19.9993 271.177 20.8276 271.177 27.6913C271.177 32.5826 275.158 34.7916 279.613 34.7916C282.806 34.7916 284.974 33.5293 286.748 30.7286H286.827C286.827 31.8923 286.965 33.0559 287.004 34.2788H294.12Z" fill="#ED1C24"/>
<path d="M141.167 15.9561C141.167 14.4571 141.206 14.0429 141.403 13.4512C141.482 13.2145 141.6 12.9779 141.719 12.7609C141.955 12.3862 142.113 12.2087 142.566 11.8339H135.392C135.865 12.2284 136.003 12.4059 136.219 12.7215C136.357 12.9581 136.476 13.1948 136.574 13.4512C136.732 13.9837 136.791 14.536 136.811 15.8574C136.811 16.5477 136.811 16.9817 136.811 17.1986V30.5906C136.811 31.3795 136.673 32.2079 136.456 32.7601C136.357 32.9771 136.239 33.2138 136.101 33.411C135.943 33.6477 135.806 33.7857 135.411 34.1999H142.507C142.152 33.9041 142.034 33.766 141.817 33.411C141.66 33.194 141.541 32.9574 141.462 32.7207C141.265 32.2079 141.167 31.4584 141.167 30.7484V17.2578V15.9561Z" fill="#0076BE"/>
<path d="M188.964 15.9561C188.964 14.9699 189.043 14.2007 189.201 13.5893C189.279 13.2934 189.398 13.0173 189.555 12.7609C189.792 12.3862 189.969 12.1889 190.442 11.8142H183.149C183.563 12.1692 183.721 12.327 183.958 12.7215C184.115 12.9779 184.233 13.254 184.332 13.5104C184.509 14.0429 184.569 14.6938 184.569 15.8574V21.301H174.556V17.2183C174.556 15.9758 174.556 15.1671 174.615 14.5557C174.634 14.2007 174.694 13.8654 174.792 13.5893C174.95 13.1159 175.364 12.4453 175.719 12.0509C175.758 11.9917 175.857 11.9128 175.975 11.8142H168.8C169.234 12.2481 169.352 12.3862 169.529 12.682C169.687 12.9187 169.825 13.1554 169.924 13.4315C170.101 14.0035 170.14 14.2993 170.16 15.7983L170.18 17.2183V29.4664C170.18 30.7089 170.16 31.2612 170.081 31.8332C170.042 32.129 169.963 32.4248 169.865 32.7207C169.687 33.194 169.431 33.5885 168.997 33.9632C168.938 34.0224 168.859 34.0816 168.761 34.1802H175.837C175.521 33.8646 175.423 33.7266 175.226 33.4504C175.088 33.2335 174.97 33.0165 174.871 32.7601C174.654 32.1684 174.575 31.7543 174.536 30.7878C174.536 30.3145 174.536 29.8806 174.536 29.4467V24.0228H184.549V29.4861C184.549 30.6892 184.529 31.1428 184.45 31.7543C184.411 32.0896 184.332 32.4248 184.214 32.7207C184.056 33.1349 183.8 33.5293 183.406 33.8844C183.347 33.9435 183.248 34.0421 183.09 34.1605H190.245C189.95 33.8646 189.831 33.7463 189.654 33.4702C189.476 33.2138 189.338 32.9771 189.24 32.7404C189.023 32.2079 188.964 31.8134 188.944 30.7089C188.925 30.0581 188.925 29.6636 188.925 29.5453L188.944 17.2381V15.9561H188.964Z" fill="#0076BE"/>
<path d="M131.824 32.6418C131.035 31.8923 130.326 31.1823 129.281 30.0383C128.611 29.3283 128.079 28.7169 127.645 28.2238L124.176 24.1214C124.61 24.0031 124.787 23.9242 125.161 23.7861C126.285 23.3325 127.152 22.8394 127.921 22.1885C128.808 21.4391 129.36 20.6501 129.675 19.6443C129.872 19.0723 129.951 18.5003 129.951 17.9284C129.951 16.5477 129.439 15.3052 128.433 14.2599C127.507 13.2934 126.226 12.5834 124.807 12.2481C123.801 12.0114 122.757 11.9128 120.983 11.8536C120.313 11.8339 119.623 11.8339 118.913 11.8339H113.138C113.532 12.1889 113.67 12.3467 113.887 12.682C114.064 12.9384 114.202 13.2145 114.281 13.4907C114.439 14.0035 114.498 14.6938 114.498 15.8772V30.5709C114.498 31.6359 114.439 32.2473 114.242 32.7404C114.143 32.9968 114.005 33.2335 113.848 33.4504C113.631 33.7068 113.513 33.8449 113.099 34.2196H120.214C119.899 33.8843 119.8 33.766 119.603 33.4899C119.445 33.2729 119.307 33.0363 119.229 32.7996C119.031 32.3065 118.953 31.774 118.953 30.7287C118.933 30.3934 118.933 30.0186 118.933 29.6044V24.5553L123.072 29.5255C123.269 29.7622 123.585 30.1172 123.999 30.6103C124.491 31.1626 124.846 31.557 125.102 31.8134C125.91 32.6418 126.659 33.2532 127.408 33.6477C128.059 33.983 128.67 34.1407 129.636 34.1802C130.01 34.1999 130.385 34.1999 130.799 34.1999H133.598C133.223 33.9041 133.065 33.7857 132.789 33.5293C132.474 33.2532 132.159 32.9771 131.824 32.6418ZM123.289 21.6757C122.501 22.1491 121.673 22.4055 120.47 22.583C120.017 22.6619 119.623 22.6816 119.307 22.6816C119.189 22.6816 119.11 22.6816 118.953 22.6619V14.3782C119.229 14.3782 119.347 14.3782 119.544 14.3782C120.648 14.3782 121.712 14.5163 122.56 14.7529C123.131 14.9107 123.644 15.1869 124.077 15.5616C124.826 16.2125 125.221 17.1394 125.221 18.3031C125.221 19.3287 124.925 20.1768 124.353 20.8277C124.058 21.1432 123.703 21.4193 123.289 21.6757Z" fill="#0076BE"/>
<path d="M162.631 30.9653C161.291 31.5373 160.049 31.7937 158.728 31.7937C156.422 31.7937 154.431 30.9653 152.973 29.3874C151.514 27.8096 150.746 25.64 150.746 23.1747C150.746 20.8276 151.475 18.6581 152.756 17.1394C153.308 16.4688 153.998 15.9166 154.786 15.4827C156.048 14.7726 157.526 14.3979 159.122 14.3979C160.482 14.3979 161.803 14.674 163.143 15.2065C163.971 15.5418 164.267 15.7193 164.976 16.2124V12.0114C164.425 11.8339 164.208 11.7747 163.616 11.6366C162.316 11.3605 161.074 11.2422 159.674 11.2422C157.27 11.2422 155.2 11.6366 153.308 12.4256C152.184 12.8989 151.14 13.5103 150.233 14.2401C147.474 16.4688 145.976 19.6837 145.976 23.3916C145.976 26.9812 147.414 30.0975 150.056 32.1881C152.244 33.904 155.042 34.7718 158.413 34.7718C160.522 34.7718 162.493 34.4563 164.701 33.766C164.779 33.7462 164.898 33.7068 165.055 33.6476V29.5847C164.523 29.9397 164.326 30.058 164.011 30.2553C163.577 30.5314 163.124 30.7681 162.631 30.9653Z" fill="#0076BE"/>
<path d="M103.165 12.682C103.303 12.9187 103.421 13.1751 103.5 13.4512C103.657 13.9838 103.697 14.536 103.697 15.7983V24.2989C103.697 26.1332 103.638 27.218 103.5 28.1055C103.421 28.6972 103.204 29.2494 102.928 29.7425C102.376 30.6498 101.371 31.3598 100.188 31.6557C99.6956 31.774 99.1635 31.8332 98.5919 31.8332C96.6799 31.8332 95.0243 31.1231 94.2161 29.9398C93.6051 29.0325 93.4277 28.1647 93.408 25.8571L93.3883 24.0031V17.2578C93.3883 15.9561 93.3883 15.3249 93.4474 14.6544C93.4671 14.2599 93.5263 13.9049 93.6051 13.6288C93.7628 13.116 94.1373 12.4256 94.4921 12.0115C94.5512 11.972 94.5906 11.9128 94.6892 11.8142H87.416C87.8694 12.189 88.0073 12.3665 88.2241 12.7215C88.3621 12.9582 88.4804 13.2343 88.5395 13.4907C88.6381 13.826 88.6775 14.181 88.6972 14.5163C88.6972 14.7332 88.6972 15.2066 88.6972 15.8969L88.7169 17.1986V23.6086C88.7169 25.9951 88.7169 26.5868 88.8155 27.5533C88.9534 29.1903 89.4462 30.492 90.3923 31.6754C92.0874 33.8055 94.8075 34.9297 98.2765 34.9297C99.9322 34.9297 101.548 34.6733 102.77 34.2197C104.052 33.7463 105.254 32.9377 106.102 31.991C107.126 30.8273 107.738 29.4072 107.895 27.6322C108.013 26.6066 108.053 25.3837 108.053 23.6284V17.1986L108.033 15.9166V15.6602C108.033 14.6938 108.092 14.1416 108.23 13.609C108.309 13.2935 108.447 12.9779 108.625 12.7018C108.861 12.327 109.038 12.1495 109.492 11.7748H102.357C102.79 12.1692 102.928 12.327 103.165 12.682Z" fill="#0076BE"/>
<path d="M78.625 31.0442C77.6394 31.2217 76.5159 31.3204 75.1165 31.3598C74.6435 31.3795 74.0521 31.3795 73.3228 31.3795H69.8932L83.454 11.8142H65.8526L63.6844 16.5872C64.4137 16.1927 64.6897 16.0744 65.3204 15.818C66.3256 15.4235 67.4294 15.108 68.4938 14.9305C69.4202 14.7727 70.2677 14.6938 71.6475 14.6543C72.2585 14.6346 72.8498 14.6149 73.382 14.6149H75.9838L62.3047 34.1999H81.6604L83.8877 29.0916C83.119 29.5453 82.843 29.6833 82.2517 29.9595C81.1282 30.4723 79.9061 30.847 78.625 31.0442Z" fill="#0076BE"/>
<path d="M22.9627 0C10.2889 0 0 10.2757 0 22.9774V22.9971C0 28.2435 1.75423 33.0559 4.7108 36.9216L23.7906 11.8339H21.7407H19.7105C17.5423 11.8339 15.4924 11.9916 14.0142 12.2678C13.1272 12.4453 12.3191 12.7608 11.6686 13.2145C10.8999 13.747 9.95379 14.8909 9.32306 15.9954C9.24422 16.1335 9.14566 16.311 9.00769 16.5871L7.88419 16.3307L9.75669 9.13179H33.6655L14.6646 34.5549C15.9064 34.4365 16.3991 34.4168 17.4044 34.4168C18.1731 34.4168 19.336 34.476 20.9128 34.5549L24.2833 34.7718C25.5054 34.831 26.5303 34.8704 27.299 34.8704C29.0335 34.8704 30.1768 34.7324 31.3002 34.3971C32.1675 34.121 32.9954 33.7265 33.7641 33.2137C35.1044 32.2867 36.3856 30.8075 37.174 29.3282C37.2528 29.1705 37.3711 28.9535 37.5091 28.6379L38.534 28.8943C38.1989 30.1566 38.0215 30.63 37.5288 31.7542C36.5038 34.0421 35.3606 35.5607 33.7641 36.7441C32.1281 37.9472 30.3344 38.5389 28.2057 38.5784H27.8903C26.3135 38.5784 25.0914 38.4403 21.307 37.8683C17.4635 37.2767 15.5121 37.0794 13.5805 37.0794C12.2796 37.0794 11.0773 37.178 9.83553 37.3753C8.17985 37.6317 7.54911 37.8289 6.05112 38.5192C10.2495 43.095 16.2809 45.9745 22.9627 45.9745C35.6366 45.9745 45.9254 35.6791 45.9254 22.9971C45.9254 10.2955 35.6366 0 22.9627 0Z" fill="#0076BE"/>
<path d="M68.5136 58.5776C67.2521 58.5776 66.168 58.3015 65.2416 57.7295C64.3152 57.1575 63.6254 56.3883 63.1326 55.3825C62.6399 54.3963 62.4033 53.2524 62.4033 52.0098C62.4033 50.7475 62.6399 49.6233 63.1326 48.6372C63.6254 47.651 64.335 46.8621 65.2613 46.2901C66.1877 45.7181 67.2718 45.442 68.5333 45.442C69.4991 45.442 70.3466 45.6195 71.1154 45.9943C71.8643 46.3493 72.4951 46.8818 72.9681 47.5327C73.4412 48.2032 73.7763 48.9922 73.934 49.9192H71.8841C71.6672 49.0513 71.273 48.4005 70.7211 47.9468C70.1693 47.5129 69.44 47.296 68.5333 47.296C67.6857 47.296 66.9564 47.4932 66.3651 47.9074C65.7541 48.3216 65.3008 48.8738 64.9657 49.6036C64.6503 50.3333 64.4926 51.1223 64.4926 52.0098C64.4926 52.9565 64.6503 53.7849 64.9657 54.4949C65.2811 55.2049 65.7541 55.7572 66.3651 56.1517C66.9762 56.5461 67.7054 56.7236 68.5727 56.7236C69.5779 56.7236 70.3861 56.4672 70.9774 55.9347C71.5687 55.4022 71.9432 54.6133 72.0615 53.5679H68.5924V51.7534H74.1114V52.5226C74.1114 53.8441 73.8748 54.9683 73.4215 55.8755C72.9681 56.7828 72.3177 57.4731 71.4899 57.9267C70.6029 58.3409 69.6371 58.5776 68.5136 58.5776Z" fill="#0076BE"/>
<path d="M87.1988 58.5776C86.2921 58.5776 85.484 58.3803 84.7941 57.9662C84.1043 57.552 83.5721 56.98 83.1976 56.2502C82.8231 55.5205 82.626 54.6921 82.626 53.7651C82.626 52.8579 82.8034 52.0295 83.1779 51.2997C83.5327 50.57 84.0648 49.998 84.7547 49.5838C85.4446 49.1697 86.2527 48.9527 87.1791 48.9527C88.0661 48.9527 88.8348 49.1499 89.4458 49.5444C90.0765 49.9389 90.5496 50.5108 90.865 51.2209C91.2 51.9506 91.3577 52.779 91.3577 53.7454C91.3577 53.9229 91.3577 54.0807 91.338 54.2188H84.5576C84.6167 55.126 84.873 55.8163 85.346 56.27C85.8191 56.7433 86.4301 56.9603 87.2382 56.9603C87.8098 56.9603 88.2829 56.8222 88.6377 56.5658C88.9925 56.3094 89.2487 55.9347 89.3867 55.481H91.2592C91.0423 56.4869 90.5693 57.2364 89.84 57.7689C89.1107 58.3014 88.2435 58.5776 87.1988 58.5776ZM89.4064 52.8382C89.367 52.1084 89.1501 51.5364 88.7559 51.142C88.3617 50.7475 87.8295 50.57 87.1594 50.57C86.4695 50.57 85.8979 50.7672 85.4643 51.1617C85.0307 51.5561 84.735 52.1084 84.6167 52.8382H89.4064Z" fill="#0076BE"/>
<path d="M100.347 58.2817V49.2091H102.318V50.4319C102.613 49.9586 103.008 49.5838 103.481 49.3274C103.954 49.071 104.506 48.933 105.117 48.933C106.142 48.933 106.93 49.2683 107.502 49.9389C108.073 50.6094 108.349 51.5167 108.349 52.6607V58.2817H106.378V52.8184C106.378 52.1084 106.22 51.5562 105.905 51.1814C105.59 50.8067 105.117 50.6094 104.506 50.6094C104.072 50.6094 103.697 50.7278 103.382 50.9447C103.047 51.1617 102.791 51.497 102.613 51.9112C102.416 52.3254 102.337 52.8184 102.337 53.3707V58.262H100.347V58.2817Z" fill="#0076BE"/>
<path d="M121.772 58.5776C120.865 58.5776 120.057 58.3803 119.367 57.9662C118.678 57.552 118.145 56.98 117.771 56.2502C117.396 55.5205 117.199 54.6921 117.199 53.7651C117.199 52.8579 117.377 52.0295 117.751 51.2997C118.106 50.57 118.638 49.998 119.328 49.5838C120.018 49.1697 120.826 48.9527 121.752 48.9527C122.639 48.9527 123.408 49.1499 124.019 49.5444C124.65 49.9389 125.123 50.5108 125.438 51.2209C125.773 51.9506 125.931 52.779 125.931 53.7454C125.931 53.9229 125.931 54.0807 125.911 54.2188H119.131C119.19 55.126 119.446 55.8163 119.919 56.27C120.392 56.7433 121.003 56.9603 121.811 56.9603C122.383 56.9603 122.856 56.8222 123.211 56.5658C123.566 56.3094 123.822 55.9347 123.96 55.481H125.832C125.616 56.4869 125.143 57.2364 124.413 57.7689C123.684 58.3014 122.797 58.5776 121.772 58.5776ZM123.98 52.8382C123.94 52.1084 123.723 51.5364 123.329 51.142C122.935 50.7475 122.403 50.57 121.733 50.57C121.043 50.57 120.471 50.7672 120.038 51.1617C119.604 51.5561 119.308 52.1084 119.19 52.8382H123.98Z" fill="#0076BE"/>
<path d="M134.898 58.2817V49.2091H136.869V50.57C137.086 50.1558 137.362 49.8205 137.717 49.5838C138.072 49.3472 138.486 49.2091 138.959 49.2091H139.806V51.0631H138.939C138.328 51.0631 137.816 51.28 137.441 51.7139C137.067 52.1478 136.869 52.7395 136.869 53.489V58.262H134.898V58.2817Z" fill="#0076BE"/>
<path d="M150.844 58.4987C149.898 58.4987 149.149 58.262 148.597 57.7887C148.045 57.3153 147.77 56.7039 147.77 55.9544C147.77 55.126 148.026 54.4949 148.558 54.061C149.09 53.6074 149.76 53.3115 150.608 53.1537C151.455 52.9959 152.461 52.9171 153.643 52.9171V52.1873C153.643 51.7139 153.486 51.3392 153.15 51.0434C152.815 50.7475 152.382 50.5897 151.81 50.5897C151.239 50.5897 150.805 50.7278 150.49 50.9842C150.174 51.2603 149.997 51.6153 149.918 52.0887H147.947C148.006 51.4181 148.203 50.8461 148.558 50.3728C148.913 49.8994 149.366 49.5247 149.918 49.288C150.49 49.0316 151.12 48.9133 151.81 48.9133C152.579 48.9133 153.249 49.0513 153.821 49.3275C154.392 49.6036 154.826 49.9783 155.122 50.4714C155.417 50.9645 155.575 51.5364 155.575 52.1873V58.262H153.624V56.8025C153.367 57.3153 152.993 57.7295 152.5 58.0253C152.047 58.3606 151.495 58.4987 150.844 58.4987ZM151.337 56.9406C151.79 56.9406 152.185 56.8222 152.539 56.6053C152.875 56.3883 153.15 56.0728 153.348 55.698C153.545 55.3035 153.643 54.8894 153.643 54.3963V54.1399C152.835 54.1399 152.145 54.1793 151.593 54.2582C151.041 54.3371 150.588 54.4949 150.253 54.7316C149.898 54.9683 149.741 55.3036 149.741 55.7375C149.741 56.1122 149.898 56.408 150.194 56.625C150.49 56.8222 150.864 56.9406 151.337 56.9406Z" fill="#0076BE"/>
<path d="M164.996 58.2817V45.3434H166.967V58.2817H164.996Z" fill="#0076BE"/>
<path d="M184.648 58.2817V45.7181H186.679V58.2817H184.648Z" fill="#0076BE"/>
<path d="M196.514 58.2817V49.2091H198.485V50.4319C198.78 49.9586 199.175 49.5838 199.648 49.3274C200.121 49.071 200.673 48.933 201.284 48.933C202.309 48.933 203.097 49.2683 203.669 49.9389C204.24 50.6094 204.516 51.5167 204.516 52.6607V58.2817H202.545V52.8184C202.545 52.1084 202.387 51.5562 202.072 51.1814C201.757 50.8067 201.284 50.6094 200.673 50.6094C200.239 50.6094 199.864 50.7278 199.549 50.9447C199.214 51.1617 198.958 51.497 198.78 51.9112C198.583 52.3254 198.504 52.8184 198.504 53.3707V58.262H196.514V58.2817Z" fill="#0076BE"/>
<path d="M217.288 58.5776C216.106 58.5776 215.159 58.3015 214.47 57.7295C213.78 57.1575 213.385 56.4081 213.307 55.4811H215.278C215.357 55.9741 215.554 56.3489 215.908 56.625C216.263 56.9011 216.717 57.0392 217.308 57.0392C217.86 57.0392 218.313 56.9209 218.628 56.6645C218.964 56.4278 219.121 56.1122 219.121 55.7375C219.121 55.4416 219.003 55.2247 218.786 55.0669C218.569 54.9091 218.136 54.771 217.525 54.633C217.426 54.6132 217.308 54.5935 217.19 54.5541C217.071 54.5344 216.953 54.5146 216.835 54.4752C216.106 54.3174 215.494 54.1202 215.041 53.9032C214.588 53.6863 214.233 53.4101 213.977 53.0749C213.721 52.7396 213.602 52.2859 213.602 51.7337C213.602 51.1617 213.76 50.6686 214.056 50.2347C214.351 49.8008 214.765 49.4852 215.317 49.2486C215.869 49.0119 216.5 48.8936 217.229 48.8936C218.293 48.8936 219.121 49.15 219.752 49.643C220.383 50.1558 220.757 50.8659 220.875 51.7928H218.924C218.865 51.3589 218.688 51.0236 218.392 50.787C218.096 50.5503 217.702 50.4122 217.209 50.4122C216.717 50.4122 216.322 50.5108 216.027 50.7278C215.731 50.9448 215.573 51.2209 215.573 51.5562C215.573 51.8717 215.711 52.0887 215.968 52.2268C216.243 52.3648 216.717 52.5226 217.426 52.6804C217.466 52.7001 217.525 52.7001 217.564 52.7001C217.604 52.7001 217.663 52.7198 217.682 52.7198C218.491 52.8776 219.141 53.0748 219.614 53.2721C220.087 53.4693 220.462 53.7454 220.718 54.1202C220.974 54.4752 221.112 54.9485 221.112 55.5205C221.112 56.1122 220.954 56.6447 220.639 57.0786C220.324 57.5323 219.89 57.8676 219.299 58.124C218.766 58.4395 218.077 58.5776 217.288 58.5776Z" fill="#0076BE"/>
<path d="M233.195 58.5776C232.17 58.5776 231.382 58.2423 230.81 57.5915C230.239 56.9406 229.963 56.0334 229.963 54.8697V49.2289H231.934V54.6922C231.934 55.4219 232.092 55.9742 232.407 56.3292C232.722 56.7039 233.195 56.8814 233.806 56.8814C234.24 56.8814 234.634 56.7631 234.95 56.5461C235.285 56.3292 235.541 55.9939 235.718 55.5797C235.896 55.1655 235.994 54.6725 235.994 54.1399V49.2289H237.985V58.3015H235.994V57.0984C235.699 57.5717 235.304 57.9268 234.831 58.1832C234.358 58.4396 233.826 58.5776 233.195 58.5776Z" fill="#0076BE"/>
<path d="M247.544 58.2817V49.2091H249.515V50.57C249.732 50.1558 250.008 49.8205 250.363 49.5838C250.717 49.3472 251.131 49.2091 251.604 49.2091H252.452V51.0631H251.585C250.974 51.0631 250.461 51.28 250.087 51.7139C249.712 52.1478 249.515 52.7395 249.515 53.489V58.262H247.544V58.2817Z" fill="#0076BE"/>
<path d="M263.47 58.4987C262.524 58.4987 261.775 58.262 261.223 57.7887C260.671 57.3153 260.396 56.7039 260.396 55.9544C260.396 55.126 260.652 54.4949 261.184 54.061C261.716 53.6074 262.386 53.3115 263.234 53.1537C264.081 52.9959 265.087 52.9171 266.269 52.9171V52.1873C266.269 51.7139 266.112 51.3392 265.776 51.0434C265.441 50.7475 265.008 50.5897 264.436 50.5897C263.865 50.5897 263.431 50.7278 263.116 50.9842C262.8 51.2603 262.623 51.6153 262.544 52.0887H260.573C260.632 51.4181 260.829 50.8461 261.184 50.3728C261.539 49.8994 261.992 49.5247 262.544 49.288C263.116 49.0316 263.746 48.9133 264.436 48.9133C265.205 48.9133 265.875 49.0513 266.447 49.3275C267.018 49.6036 267.452 49.9783 267.748 50.4714C268.043 50.9645 268.201 51.5364 268.201 52.1873V58.262H266.25V56.8025C265.993 57.3153 265.619 57.7295 265.126 58.0253C264.673 58.3606 264.121 58.4987 263.47 58.4987ZM263.983 56.9406C264.436 56.9406 264.83 56.8222 265.185 56.6053C265.52 56.3883 265.796 56.0728 265.993 55.698C266.19 55.3035 266.289 54.8894 266.289 54.3963V54.1399C265.481 54.1399 264.791 54.1793 264.239 54.2582C263.687 54.3371 263.234 54.4949 262.899 54.7316C262.544 54.9683 262.386 55.3036 262.386 55.7375C262.386 56.1122 262.544 56.408 262.84 56.625C263.135 56.842 263.51 56.9406 263.983 56.9406Z" fill="#0076BE"/>
<path d="M277.622 58.2817V49.2091H279.593V50.4319C279.889 49.9586 280.283 49.5838 280.756 49.3274C281.229 49.071 281.781 48.933 282.392 48.933C283.417 48.933 284.205 49.2683 284.777 49.9389C285.349 50.6094 285.625 51.5167 285.625 52.6607V58.2817H283.654V52.8184C283.654 52.1084 283.496 51.5562 283.18 51.1814C282.865 50.8067 282.392 50.6094 281.781 50.6094C281.347 50.6094 280.973 50.7278 280.658 50.9447C280.322 51.1617 280.066 51.497 279.889 51.9112C279.692 52.3254 279.613 52.8184 279.613 53.3707V58.262H277.622V58.2817Z" fill="#0076BE"/>
<path d="M299.028 58.5578C298.141 58.5578 297.333 58.3606 296.643 57.9464C295.953 57.5322 295.401 56.9603 295.027 56.2502C294.652 55.5205 294.455 54.7118 294.455 53.7849C294.455 52.8579 294.632 52.0492 295.027 51.3195C295.401 50.5897 295.933 50.0177 296.623 49.5838C297.313 49.1697 298.102 48.9527 299.008 48.9527C299.757 48.9527 300.427 49.0908 300.999 49.3866C301.59 49.6825 302.063 50.0769 302.418 50.6094C302.773 51.142 303.009 51.7337 303.088 52.424H301.078C300.979 51.8914 300.743 51.4575 300.388 51.142C300.033 50.8264 299.58 50.6686 299.008 50.6686C298.496 50.6686 298.042 50.8067 297.668 51.0828C297.293 51.3589 296.998 51.7337 296.801 52.207C296.604 52.6804 296.505 53.1932 296.505 53.7651C296.505 54.3568 296.604 54.8696 296.801 55.343C296.998 55.8163 297.293 56.1714 297.668 56.4475C298.042 56.7236 298.496 56.8617 299.028 56.8617C299.58 56.8617 300.053 56.7039 300.408 56.3883C300.762 56.0727 300.999 55.6783 301.098 55.1655H303.088C303.009 55.8163 302.793 56.408 302.438 56.9208C302.083 57.4336 301.63 57.8281 301.038 58.1239C300.467 58.4198 299.797 58.5578 299.028 58.5578Z" fill="#0076BE"/>
<path d="M315.939 58.5776C315.032 58.5776 314.224 58.3803 313.534 57.9662C312.844 57.552 312.312 56.98 311.938 56.2502C311.563 55.5205 311.366 54.6921 311.366 53.7651C311.366 52.8579 311.544 52.0295 311.918 51.2997C312.273 50.57 312.805 49.998 313.495 49.5838C314.185 49.1697 314.993 48.9527 315.919 48.9527C316.806 48.9527 317.575 49.1499 318.186 49.5444C318.817 49.9389 319.29 50.5108 319.605 51.2209C319.94 51.9506 320.098 52.779 320.098 53.7454C320.098 53.9229 320.098 54.0807 320.078 54.2188H313.298C313.357 55.126 313.613 55.8163 314.086 56.27C314.559 56.7433 315.17 56.9603 315.978 56.9603C316.55 56.9603 317.023 56.8222 317.378 56.5658C317.733 56.3094 317.989 55.9347 318.127 55.481H319.999C319.783 56.4869 319.31 57.2364 318.58 57.7689C317.851 58.3014 316.964 58.5776 315.939 58.5776ZM318.147 52.8382C318.107 52.1084 317.89 51.5364 317.496 51.142C317.102 50.7475 316.57 50.57 315.9 50.57C315.21 50.57 314.638 50.7672 314.205 51.1617C313.771 51.5561 313.475 52.1084 313.357 52.8382H318.147Z" fill="#0076BE"/>
</g>
<defs>
<clipPath id="clip0_3551_350">
<rect width="320" height="58.3797" fill="white"/>
</clipPath>
</defs>
</svg>
