<?xml version="1.0" encoding="UTF-8" standalone="no"?>
<svg
   width="2500"
   height="1200"
   viewBox="0 0 192.756 92.52288"
   version="1.1"
   id="svg3"
   sodipodi:docname="Munich_Re.svg"
   inkscape:version="1.4.3 (0d15f75042, 2025-12-25)"
   xmlns:inkscape="http://www.inkscape.org/namespaces/inkscape"
   xmlns:sodipodi="http://sodipodi.sourceforge.net/DTD/sodipodi-0.dtd"
   xmlns="http://www.w3.org/2000/svg"
   xmlns:svg="http://www.w3.org/2000/svg">
  <defs
     id="defs3" />
  <sodipodi:namedview
     id="namedview3"
     pagecolor="#ffffff"
     bordercolor="#000000"
     borderopacity="0.25"
     inkscape:showpageshadow="2"
     inkscape:pageopacity="0.0"
     inkscape:pagecheckerboard="0"
     inkscape:deskcolor="#d1d1d1"
     inkscape:zoom="0.1496"
     inkscape:cx="1250"
     inkscape:cy="1253.3422"
     inkscape:window-width="1600"
     inkscape:window-height="900"
     inkscape:window-x="0"
     inkscape:window-y="0"
     inkscape:window-maximized="1"
     inkscape:current-layer="svg3" />
  <g
     fill-rule="evenodd"
     clip-rule="evenodd"
     id="g3"
     transform="translate(-0.36118557,-47.481053)">
    <path
       fill="#ffffff"
       d="M 0,0 H 192.756 V 192.756 H 0 Z"
       id="path1" />
    <path
       d="m 41.25,64.067 h 31.006 v 2.531 H 43.781 Z M 8.504,67.863 h 27.239 l -2.531,2.531 H 8.504 Z m 40.338,3.797 h 23.414 v 2.53 H 51.374 Z M 8.504,75.456 h 19.647 l -2.531,2.53 H 8.504 Z m 47.931,3.796 h 15.821 v 2.531 H 58.966 Z M 8.504,83.048 h 12.054 l -2.531,2.531 H 8.504 Z m 55.523,3.797 h 8.229 v 2.53 H 66.558 Z M 8.504,90.641 h 4.461 l -2.531,2.531 h -1.93 z m 61.831,3.796 h 1.921 v 2.532 H 67.804 Z M 8.504,98.232 h 5.746 l 2.531,2.534 H 8.504 Z m 54.239,3.797 h 9.513 v 2.532 H 60.211 Z m -54.239,3.797 h 13.339 l 2.531,2.531 H 8.504 Z m 46.646,3.795 h 17.106 v 2.533 H 52.619 Z m -46.646,3.797 h 20.932 l 2.531,2.531 H 8.504 Z m 39.054,3.797 h 24.698 v 2.531 h -27.23 z m -39.054,3.797 h 28.524 l 2.531,2.531 H 8.504 Z"
       id="path2" />
    <path
       d="m 39.54,64.067 h 1.71 l 2.531,2.531 h -6.773 z m -3.797,3.796 h 9.303 l 2.531,2.531 H 33.212 Z m -6.327,6.327 2.531,-2.53 h 16.895 l 2.531,2.53 z m -1.266,1.266 h 24.489 l 2.53,2.53 H 25.62 Z m -6.327,6.327 2.531,-2.531 h 32.081 l 2.53,2.531 z m -5.062,5.062 h 47.266 l 2.531,2.53 H 14.231 Z m -6.327,6.327 2.531,-2.531 h 54.859 l 2.531,2.531 z m 7.593,-7.593 2.531,-2.531 h 39.673 l 2.531,2.531 z m 52.308,8.858 -2.531,2.532 H 12.985 l -2.531,-2.532 z m -3.796,3.795 -2.531,2.534 H 16.781 L 14.25,98.232 Z m -48.492,3.797 h 44.696 l -2.532,2.532 H 20.578 Z m 3.796,3.797 h 37.103 l -2.531,2.531 H 24.374 Z m 3.796,3.795 h 29.51 l -2.53,2.533 H 28.17 Z m 3.797,3.797 h 21.918 l -2.531,2.531 H 31.966 Z m 3.796,3.797 h 14.325 l -2.531,2.531 h -9.263 z m 3.796,3.797 h 6.733 l -2.531,2.531 h -1.671 z m 44.786,-13.215 h 5.343 l 2.062,7.994 2.053,-7.994 h 5.325 V 120.94 H 93.28 V 110.917 L 90.707,120.94 H 87.705 L 85.14,110.917 v 10.023 h -3.326 z m 27.166,13.142 h -3.41 v -1.543 c -0.508,0.635 -1.018,1.088 -1.535,1.354 -0.518,0.27 -1.154,0.402 -1.906,0.402 -1.004,0 -1.791,-0.299 -2.363,-0.898 -0.568,-0.6 -0.854,-1.527 -0.854,-2.775 v -6.061 h 3.666 v 5.236 c 0,0.598 0.111,1.023 0.33,1.273 0.225,0.252 0.533,0.377 0.934,0.377 0.438,0 0.793,-0.168 1.072,-0.502 0.277,-0.336 0.414,-0.936 0.414,-1.803 v -4.582 h 3.652 z m 2.213,-9.521 h 3.398 v 1.549 c 0.508,-0.633 1.023,-1.082 1.543,-1.355 0.52,-0.271 1.154,-0.41 1.9,-0.41 1.01,0 1.799,0.305 2.371,0.904 0.57,0.6 0.854,1.525 0.854,2.779 v 6.055 h -3.666 v -5.236 c 0,-0.596 -0.109,-1.02 -0.33,-1.268 -0.223,-0.25 -0.531,-0.373 -0.934,-0.373 -0.439,0 -0.801,0.168 -1.074,0.502 -0.275,0.334 -0.412,0.938 -0.412,1.803 v 4.572 h -3.65 z m 12.381,-3.621 h 3.65 v 2.482 h -3.65 z m 0,3.621 h 3.65 v 9.521 h -3.65 z m 13.082,5.801 3.467,0.395 a 4.876,4.876 0 0 1 -0.938,1.879 4.393,4.393 0 0 1 -1.676,1.232 c -0.676,0.291 -1.539,0.438 -2.586,0.438 -1.01,0 -1.852,-0.094 -2.521,-0.281 a 4.399,4.399 0 0 1 -1.734,-0.914 4.58,4.58 0 0 1 -1.139,-1.484 c -0.275,-0.566 -0.412,-1.318 -0.412,-2.26 0,-0.979 0.164,-1.797 0.502,-2.447 0.244,-0.479 0.576,-0.906 1.002,-1.285 0.426,-0.379 0.861,-0.664 1.311,-0.848 0.709,-0.293 1.621,-0.441 2.732,-0.441 1.555,0 2.738,0.277 3.557,0.836 0.814,0.555 1.389,1.367 1.717,2.439 l -3.434,0.455 c -0.107,-0.406 -0.303,-0.713 -0.588,-0.918 -0.285,-0.207 -0.664,-0.309 -1.145,-0.309 -0.604,0 -1.094,0.217 -1.467,0.648 -0.373,0.434 -0.559,1.09 -0.559,1.969 0,0.783 0.186,1.375 0.557,1.783 0.371,0.408 0.842,0.609 1.416,0.609 0.479,0 0.879,-0.123 1.207,-0.367 0.325,-0.246 0.569,-0.621 0.731,-1.129 z m 4.83,-9.422 h 3.65 v 4.84 c 0.496,-0.514 0.988,-0.881 1.479,-1.102 0.488,-0.223 1.07,-0.334 1.74,-0.334 0.992,0 1.771,0.305 2.344,0.906 0.57,0.607 0.855,1.529 0.855,2.777 v 6.055 h -3.668 v -5.236 c 0,-0.596 -0.109,-1.02 -0.33,-1.268 -0.223,-0.25 -0.533,-0.373 -0.934,-0.373 a 1.32,1.32 0 0 0 -1.072,0.502 c -0.277,0.334 -0.414,0.938 -0.414,1.803 v 4.572 h -3.65 z m 18.666,13.142 v -13.143 h 6.77 c 1.254,0 2.215,0.105 2.877,0.322 a 3.054,3.054 0 0 1 1.605,1.197 c 0.408,0.582 0.609,1.291 0.609,2.127 0,0.73 -0.156,1.359 -0.465,1.889 -0.312,0.529 -0.74,0.957 -1.281,1.287 -0.35,0.209 -0.824,0.383 -1.426,0.518 0.482,0.162 0.834,0.324 1.059,0.486 0.146,0.107 0.363,0.338 0.648,0.689 0.283,0.355 0.475,0.623 0.568,0.816 l 1.965,3.811 h -4.59 l -2.17,-4.018 c -0.275,-0.518 -0.521,-0.857 -0.738,-1.014 a 1.705,1.705 0 0 0 -0.994,-0.303 h -0.357 v 5.334 h -4.08 z m 4.08,-7.818 h 1.713 c 0.184,0 0.543,-0.059 1.074,-0.178 a 1.1,1.1 0 0 0 0.662,-0.414 c 0.168,-0.219 0.254,-0.473 0.254,-0.762 0,-0.426 -0.135,-0.75 -0.404,-0.977 -0.27,-0.229 -0.775,-0.342 -1.516,-0.342 h -1.783 z m 20.02,3.961 h -7.314 c 0.064,0.588 0.225,1.023 0.475,1.311 0.352,0.414 0.814,0.619 1.381,0.619 a 2.04,2.04 0 0 0 1.021,-0.27 c 0.199,-0.113 0.41,-0.312 0.637,-0.602 l 3.596,0.332 c -0.551,0.959 -1.213,1.645 -1.99,2.059 -0.775,0.414 -1.889,0.621 -3.344,0.621 -1.26,0 -2.252,-0.176 -2.977,-0.531 -0.723,-0.355 -1.324,-0.922 -1.797,-1.695 -0.475,-0.773 -0.713,-1.684 -0.713,-2.73 0,-1.486 0.477,-2.691 1.43,-3.611 0.953,-0.92 2.27,-1.383 3.949,-1.383 1.363,0 2.439,0.209 3.225,0.621 a 4.138,4.138 0 0 1 1.803,1.791 c 0.414,0.783 0.619,1.803 0.619,3.057 v 0.411 z m -3.709,-1.746 c -0.074,-0.707 -0.264,-1.213 -0.568,-1.516 -0.311,-0.305 -0.713,-0.459 -1.215,-0.459 -0.582,0 -1.045,0.232 -1.393,0.693 -0.221,0.287 -0.361,0.713 -0.42,1.281 h 3.596 z"
       id="path3" />
  </g>
</svg>
