<svg version="1.2" xmlns="http://www.w3.org/2000/svg" viewBox="0 0 1549 390" width="1549" height="390"><style>.a{fill:#fff}.b{fill:#2e3192}</style><path fill-rule="evenodd" class="a" d="m386.6 195.7c0-107.1-86.2-193.6-192.8-193.6-106.6 0-192.8 86.5-192.8 193.6 0 107 86.2 193.5 192.8 193.5 106.6 0 192.8-86.5 192.8-193.5z"/><path fill-rule="evenodd" class="b" d="m479.1 223.9h14v-8.2h-38.1v8.2h14v44.5h10.1zm51.4 17.8q0-13.8-12-13.8-8.2 0-11.4 8.4v-20.5h-8.8v52.7h8.8v-20.2q0-6.9 2.5-9.9 2.6-2.9 6.3-2.9 2.3 0 4.1 1.7 1.7 1.6 1.7 5.8v25.5h8.8zm26.4 20.7q-3.3 0-5.5-1.8-2.3-1.8-3-4.2-0.8-2.4-0.8-6.4h26.7v-1q0-8.9-4.5-14.6-4.6-5.7-12.9-5.7-8.4 0-13.4 5.7-5 5.8-5 14.7 0 9.3 4.9 14.7 5 5.5 13 5.5 6.8 0 11.2-3.5 4.5-3.4 6-8.7l-7.9-1.1q-2.3 6.4-8.8 6.4zm-9.3-18q0.5-4.6 2.9-7.1 2.4-2.5 6-2.5 3.7 0 6.1 2.7 2.5 2.7 2.6 6.9zm94.5-28.6h-7.5v36.7q-3.1-5.3-3.3-5.7l-18.4-31h-10.5v52.7h7.7v-38.6q0.9 1.6 1.4 2.4 1 1.7 1.5 2.5l19.9 33.7h9.2zm26.9 46.5q-3.3 0-5.6-1.7-2.2-1.8-2.9-4.2-0.8-2.4-0.8-6.4h26.7v-1q0-8.9-4.5-14.6-4.6-5.8-12.9-5.8-8.5 0-13.4 5.8-5 5.8-5 14.7 0 9.3 4.9 14.7 4.9 5.5 13 5.5 6.7 0 11.2-3.5 4.5-3.4 6-8.7l-7.9-1.1q-2.3 6.3-8.8 6.3zm-9.3-17.9q0.4-4.6 2.9-7.1 2.4-2.5 6-2.5 3.6 0 6.1 2.7 2.5 2.6 2.5 6.9zm75.4-14.9l-7.5 26.2-6.8-26.2h-7.9l-6.7 26.2-7.7-26.2h-9.3l12 38.9h8.1l7-27.3 6.9 27.3h7.9l11.4-38.9zm43.1-13.7h-9.5v52.6h9.5zm43.2 27.6q0-8.2-3.6-11.4-3.7-3.3-8.8-3.3-7.6 0-11.7 9.9v-9h-8v38.9h8.7v-20q0-6.1 2.6-9.1 2.6-3 6-3 2.5 0 4.3 2 1.7 1.9 1.7 5.8v24.3h8.8zm42.4-27.5h-8.8v19q-2.9-6.9-10.4-6.9-7.3 0-11.2 6.2-4 6.1-4 14.4 0 8.8 3.8 14.8 3.8 6 11 6 8 0 11.4-8.7v7.9h8.2zm-8.8 36.3q0 4.3-2.4 7.1-2.5 2.8-5.7 2.8-8.2 0-8.2-13 0-6.8 2.2-10.2 2.2-3.4 6.1-3.4 3.5 0 5.8 2.7 2.2 2.6 2.2 7.4zm28-36.3h-8.7v9.1h8.7zm0 13.8h-8.7v38.9h8.7zm42.6 31.1v-17.6q0-5-0.7-7.1-0.8-2.1-2.7-3.9-2-1.8-4.8-2.5-2.9-0.8-7.4-0.8-8.3 0-12.7 3.2-4.3 3.1-5 8l7.5 1.1q1.1-6.1 9.1-6.1 8.2 0 8.2 6.1v2.9h-2.5q-23.5 0-23.5 13.4 0 5.2 3.5 8.6 3.5 3.4 9.3 3.4 9.7 0 13.2-8.7 0.2 4.4 1.3 7.9h8.4q-1.2-4-1.2-7.9zm-8.5-8.3q0 4-2.6 7.2-2.5 3.2-7.5 3.2-3.5 0-5.2-1.7-1.7-1.7-1.7-4.2 0-8.1 17-8.1zm62.8-36.5h-11.7l-17.4 52.7h8.1l4.1-12.5h20.2l4.2 12.5h10.1zm-14.5 32.6l7.6-23.5 7.7 23.5zm39.1 18.5q4.6 2.4 10.6 2.4 6.8 0 11.8-3.2 5-3.2 5-9.6 0-9.2-9.7-11.2l-8.3-1.7q-5.7-1.2-5.7-4.2 0-4.4 7-4.4 5.8 0 7 4.4l7.8-1.6q-2.7-9.1-15-9.1-7.4 0-11.1 3.6-3.7 3.6-3.8 8.8 0 9.3 11.8 11.5l7.1 1.4q1.7 0.3 3 1.3 1.3 1 1.3 2.6 0 4.8-8.2 4.8-6.4 0-8.3-4.7l-8.2 1.5q1.4 5 5.9 7.4zm35.8 0q4.6 2.4 10.5 2.4 6.9 0 11.9-3.2 5-3.2 5-9.6 0-9.2-9.7-11.2l-8.4-1.7q-5.6-1.2-5.6-4.2 0-4.4 7-4.4 5.7 0 7 4.4l7.8-1.6q-2.7-9.1-15-9.1-7.4 0-11.2 3.6-3.7 3.6-3.7 8.8 0 9.3 11.8 11.5l7.1 1.4q1.7 0.3 2.9 1.3 1.3 1 1.3 2.6 0 4.8-8.1 4.8-6.4 0-8.3-4.7l-8.3 1.5q1.4 5 6 7.4zm66.5-37.4h-8.8v18.7q0 8.4-3 11-2.9 2.5-5.8 2.5-1.7 0-3.6-1.3-1.8-1.3-1.8-5.5v-25.4h-9v27.3q0 5.9 3.1 9.2 3.2 3.3 8.5 3.3 8.9 0 12.2-9.2v8.4h8.2zm19.3 20.9q0-4 2.2-8.3 2.1-4.3 8.8-4.3v-9.4l-1.1-0.1q-3.2 0-6.1 2.6-3 2.5-4.7 7.9v-9.3h-7.9v39h8.8zm49.4 10.2v-17.6q0-5.1-0.8-7.1-0.7-2.2-2.7-4-1.9-1.7-4.8-2.5-2.8-0.7-7.3-0.8-8.3 0-12.7 3.2-4.4 3.1-5 8l7.4 1.1q1.1-6 9.1-6 8.2 0 8.2 6v3q-1.5-0.1-2.5-0.1-23.4 0-23.4 13.4 0 5.2 3.5 8.6 3.5 3.5 9.3 3.5 9.7 0 13.1-8.7 0.3 4.3 1.4 7.8h8.3q-1.1-4-1.1-7.8zm-8.6-8.4q0 4.1-2.5 7.2-2.6 3.2-7.6 3.2-3.4 0-5.1-1.7-1.8-1.7-1.8-4.2 0-8.1 17-8.1zm51.2-8.9q0-8.2-3.6-11.4-3.6-3.2-8.8-3.3-7.5 0.1-11.7 9.9v-9h-8v38.9h8.7v-20q0-6 2.6-9.1 2.6-3 6-3 2.5 0 4.3 2 1.8 1.9 1.8 5.8v24.3h8.7zm25.3 18.3q-3.8 0-5.9-3.2-2.1-3.2-2.1-9.1 0-5.5 2-9.4 2-4 6.5-4 6.1 0 7.1 7.3l7.6-1.1q-2.5-13.4-15.1-13.4-7.9 0-12.7 5.8-4.7 5.7-4.7 14.5 0 8.5 4.3 14.4 4.4 5.9 12.4 5.9 5.9 0 10.1-3.5 4.2-3.5 5.7-10.8l-7.6-0.8q-1.9 7.4-7.6 7.4zm37.8 0.8q-3.3 0-5.6-1.8-2.2-1.7-3-4.1-0.7-2.4-0.7-6.4h26.7v-1q0-9-4.5-14.7-4.6-5.7-12.9-5.7-8.5 0-13.4 5.8-5 5.8-5 14.6 0 9.3 4.9 14.8 4.9 5.4 13 5.4 6.7 0 11.2-3.4 4.5-3.5 6-8.7l-7.9-1.1q-2.3 6.3-8.8 6.3zm-9.3-18q0.4-4.5 2.9-7 2.4-2.5 6-2.5 3.6 0 6.1 2.7 2.5 2.6 2.5 6.8zm80.9 13.6q-2.9 3.3-7 3.3-5.2 0-8.4-4.9-3.1-4.8-3.1-14.4 0-9.4 2.9-14.4 2.9-4.9 8.2-4.9 8.3 0 10.7 11.9l8.8-1q-1.4-8.9-6.5-13.8-5.2-4.8-13-4.8-10 0-15.7 7.6-5.7 7.5-5.7 19.5 0 7.5 2.5 13.7 2.4 6.3 6.9 9.9 4.4 3.6 11.6 3.6 8.6 0 13.8-5.1 5.3-5.1 6.1-13l-8.8-1q-0.4 4.6-3.3 7.8zm47.5 5.7q5.2-5.6 5.2-14.8 0-9-5-14.6-5-5.6-12.8-5.6-8.3 0-13.3 5.8-5 5.7-5 14.4 0 8 4.6 14.2 4.5 6.2 13.1 6.2 8 0 13.2-5.6zm-19.3-5q-2.3-3.4-2.3-9.7 0-5.9 2.2-9.5 2.2-3.6 6.7-3.6 4.4 0 6.5 3.5 2.1 3.4 2.1 9.4 0 13.3-8.8 13.3-4 0-6.4-3.4zm41.5-0.3h-9.5v10.1h9.5zm62.5 1.5h-22.4v-44.1h-9.9v52.7h32.3zm22.2 1.8q-3.6 0-5-1.3-1.3-1.3-1.3-5v-19h7.8v-6.9h-7.8v-10.8l-7.2 0.7-0.8 10.1h-5.4v6.9h4.9v20.2q0 5.1 1.2 7.5 1.2 2.5 3.7 3.9 2.5 1.4 6.1 1.4 2.1 0 6-0.9v-6.8zm41.5-45.9h-8.7v19q-3-6.8-10.5-6.8-7.3 0-11.2 6.1-4 6.1-4 14.4 0 8.9 3.8 14.9 3.8 5.9 11 5.9 8.1 0 11.4-8.6v7.8h8.2zm-8.7 36.3q0 4.4-2.5 7.2-2.5 2.8-5.7 2.8-8.2 0-8.2-13.1 0-6.7 2.2-10.1 2.2-3.4 6.1-3.4 3.6 0 5.8 2.6 2.3 2.7 2.3 7.4zm-1035.8-100.4v5h-4.7q-16.1 0-16.1 14.2 0 2.3 0.5 4.2 1.4 4.6 4.6 7.2 4.8 3.8 12.3 3.8 3.4 0 7.2-1.7l6.4 7.6 6-5.2-6.8-6.7q1.2-1.2 1.2-2 0.4-1.1 0.4-2.3 0-2.9-1.6-5-2.1-2.1-4.7-2.1-3.3 0.5-4.1 0.9-2.4 1.4-2.9 4.2v2.8l0.7 1.5 0.8 1.3-0.7-0.3h-2.4q-3.6 0-5.8-1.4-2.3-1.8-2.8-4.4l-0.3-2.4q0-3.4 2.5-5.3 2.6-1.9 5.6-1.9h13.1v-12h10.7v-7.1h-16.1v-7.9l-9.2-6.4q-4-3-8.3-4.8-5.8-2.6-10.8-2.6-6.6 0-11.4 3.9-4.8 3.9-4.8 9.9 0 2.8 0.8 5.2l0.9 2.2 0.3 0.5h-9.5v7.1h9.9v39.3h8.2v-39.3zm-32.1-9.6q-0.7-1.5-0.8-2.6l-0.3-1.9q0-3.1 2.6-4.9 3-1.8 5.6-1.8 1.5 0 3.2 0.4 1.8 0.4 3.8 1.2 3.4 1.9 5.7 3.1 2.3 1.4 4.3 2.7l8.7 6.3h-31.6q-0.8-1.3-1.2-2.5zm109.6 9.6v2.9q0 1.7-0.5 3-0.6 1.4-1.7 2.4-1.2 1-2.3 1.3-1 0.2-2.9 0.3h-0.1l-3.5-0.3v0.3h-23.8q-3.5-0.1-3.5 3.4 0.3 2.4 1.9 3.9l5.9 5.9q3 2.2 4.8 2.2 2.8 0 2.8-4.1v-4h12.7v0.2q1.9 6.8 6.6 10.5 4.7 3.6 11.3 3.6 5.4 0 10.3-3.1 3-2 5-4.5v14.3l-1.8 0.3q-2.1 0.6-3.8 1.6-5.4 3.4-5.4 9.4 0 3.6 2.8 6.6 3.3 3.8 8.9 3.8 3.9 0 7.5-2.6 2.9-2.1 2.9-3.1l-4.3-3.6-1.7 1.4q-2.6 1.3-3.6 1.3h-1.2q-3.3-1.8-3.3-3.6l0.4-2q0.9-3 5.5-3l3 0.3 2.6 1.1 1.6 1.2 4.6 5 6.2 8.2 6.1-4-6.3-8.5q-2.2-2.9-5.6-5.7-1.2-0.9-2.4-1.7-1.2-0.8-2.1-1.2-1.3-0.6-2.4-0.8v-38.6h5.7v-7.1h-78.2v7.1zm23 13.6q-4.8 10.2-15.3 10.2-3.7 0-6.5-1.8-3.4-2.3-3.9-5.6 5-1.2 7-3.3 3.2-3.5 3.3-10.4v-2.7h15.4zm79.6-13.6v39.3h8.3v-39.3h56.8v4.7h-8.7q-5.1 0-8.3 2.1-1.7 1.3-2.6 3h-24.1q-3.5 0-3.5 3.5 0.3 2.4 1.9 3.9l6 5.9q2.9 2.2 4.7 2.2 2.8 0 2.9-4.1v-4h11.7q2 6.2 11.5 6.2h8.7q2.9 0 4.4 1.3 1.6 1.4 1.6 3.2 0 5.5-9.5 5.5-5.7 0-8.5-3.5-0.8-0.9-1-2v-0.9h-8.2v1l0.5 2.1q1.4 5 6.8 8 4.8 2.5 10.2 2.5 7.2 0 12.2-3 5.4-3.5 5.4-10v-1.1l-0.3-1.9q-2.2-7.9-13.1-7.9h-9.5l-3-0.6-1-1.5v-0.8q0-2.5 4.2-2.5h16.9v-11.3h21.6v2.9q0 1.7-0.5 3-0.5 1.3-1.7 2.4-1.1 1-2.2 1.3-1.1 0.2-3.1 0.2l-3.5-0.2q0 4.1 0.9 7.8 1.8 6.8 6.5 10.5 4.7 3.6 11.3 3.6 5.4 0 10.3-3.1 3-2 5-4.5v15.4h8.2v-39.3h10.7v39.3h8.2v-39.3h5.7v-7.1h-108.6v-7.9l-9.2-6.4q-4.1-3-8.3-4.8-5.8-2.6-10.9-2.6-6.5 0-11.3 3.9-4.8 3.9-4.9 9.9 0.1 2.8 0.8 5.2l0.9 2.1 0.3 0.6h-43.7v7.1h23.6v4.3h-9.3q-4.7 0-7.6 2.6-2.9 2.8-2.9 6.9v1.8l0.5 1.5q0.7 1.6 1.9 3 3.4 3.4 7.9 3.4h7.5q2.4 0 4.2 1.1 2.2 1.7 2.2 3.5 0 5.8-6.9 5.8-1.7 0-2.8-0.5l-1.3-2.2-1.3-1.9q-2.9-3.6-6.3-3.6-4.2 0-5.3 4.3l-0.3 1.2 0.4 2.4q1.3 5.1 9.3 7.2l7.2 13 7.2-3.7-5.6-9.3q13.4-2 13.4-13.2v-1.3l-0.3-2.1q-2.2-7.9-13.9-7.9h-7.5l-1.7-0.7-0.4-0.5v-0.4q0.2-1.6 0.4-2.2 1.3-1 2.1-1h17.3v-11.5zm7.1-9.6q-0.8-1.5-0.9-2.6l-0.3-2q0-3 2.6-4.8 3.1-1.8 5.6-1.8 1.5 0 3.2 0.4 1.8 0.4 3.8 1.2 3.5 1.8 5.7 3.1 2.3 1.3 4.3 2.6l8.7 6.4h-31.5q-0.9-1.3-1.2-2.5zm110.9 23.2q-4.8 10.2-15.3 10.2-3.7 0-6.6-1.8-3.3-2.3-3.9-5.6 5.1-1.2 7-3.3 3.3-3.5 3.3-10.4v-2.7h15.5zm93.6-13.6l-0.9 1.8q-0.5 1.5-0.5 2.2l0.3 2.6q1 3.8 4.8 5.9 3.2 1.7 7.2 1.7 5.4 0.1 9.6-4.3v0.8q0 4-3.7 6.8-3.1 2.6-5.6 2.6h-1.8q-2.9 0-4.6-1.4l-4-3.1-5 5.7 25.5 19.9 5.3-7.2-12.9-8.5 4-0.8q10.6-3.6 10.6-14.9 0-3-1.1-5.3-1.5-3.3-2.7-4.5h20.4v2.9q0 1.7-0.5 3-0.6 1.3-1.7 2.4-1.2 1-2.3 1.3-1.1 0.2-3 0.2l-3.5-0.2q0 4 0.8 7.8 1.9 6.8 6.6 10.4 4.7 3.7 11.3 3.7 5.4 0 10.3-3.2 3-1.9 5-4.4v15.4h8.2v-39.3h10.7v39.3h8.2v-39.3h27.1v8.1q-1.5 3.3-4.1 3.3l-2.1-0.4-1.4-1.2-4.5-4.6-5.4 5.6 28.4 29.5 5.8-6-17.3-16.2 2-0.7 1.4-0.5q3.7-2.1 4.8-5.8 0.8-3 0.8-6.8v-4.3h54.7v6.2l-0.4 3q-0.7 1.5-1.9 2.1-0.9 0.6-2.2 0.6-1.9 0-3.1-1.6l-3-4.1-4.7 3.6h-24.3q-3.5 0-3.5 3.5 0.4 2.4 2 3.9l5.9 5.9q3 2.2 4.7 2.2 2.9 0 2.9-4.1v-4h15.2l17.8 24 7.4-5.2-15-18.2h22.6v21.5h8.2v-39.3h5.6v-7.1h-125.2l-18.2-23.1-7.1 6 18 17.1h-129.6v7.1h4.5v23.7q0 2.4 0.5 4.5 1.7 6.1 7 9.5 4.8 3 11.5 3h3l2.3-0.5 5.8-1.7v-8.6q-7 3.6-10.8 3.6-8.8 0-10.6-7.1l-0.5-4.3v-22.1h13.4v11.1q0 5.6-5.2 5.6-1.7 0-4-0.5v7.1q3.7 0.8 5.4 0.8 5.8 0 9-3.6 1.8-2 2.3-3.8 0.7-1.7 0.7-2.6v-14.1zm12.8 7.4l-1.8 0.3q-2.8-0.4-3.4-1.2-1.2-1.2-1.2-3 0.3-4 5.4-4 3.4 0 6.3 3.6-2 3.3-5.3 4.3zm55.1 6.2q-4.8 10.2-15.3 10.2-3.7 0-6.5-1.8-3.4-2.3-3.9-5.6 5-1.2 7-3.3 3.2-3.5 3.2-10.4v-2.7h15.5zm137.7-2.9h-13.2q1.1-1.2 1.1-2.4v-8.3h12.1zm57.8-4.2q-3.8-2.1-7.4-2.1-7.1 0-11 4.3-2.2 2.3-3.1 4.9-0.9 2.7-0.9 6.4v1.7l0.4 2q1.5 4.3 4.1 6.9 5 4.4 11 4.4 3 0 5.7-1.2l1.2-0.8v6.2h8.3v-26.3q2.1-1.6 3.9-1.5 3.6 0 5.5 2.5 1.9 2.6 1.9 5.8 0 3.9-1.6 5.9-1 1.3-2.8 1.9l-2.1 0.7v6.8l2-0.4 1.5-0.5q3.6-1.3 5.7-3.1 5.1-4.5 5.1-11.5l-0.2-2.6-0.3-1.7q-1.4-4.5-4.3-7.1-4.4-3.9-10.9-3.9-1.1 0-2.2 0.3l-1.2 0.4v-5h30.3v12.5q0 1.4 0.1 2.5 0.2 1.1 0.5 2.4 1.3 5.1 5.4 7.7 4 2.6 9 2.6 3.5 0 6.8-1.7 1.3-0.9 2.2-1.6v14.9h8.2v-39.3h36.3v9.9h-26.6q-3.5 0-3.5 3.5 0.4 2.4 2 3.8l5.9 6q3 2.2 4.7 2.2 2.9 0 2.9-4.2v-4h14.6v22.1h8.2v-39.3h10.7v39.3h8.2v-39.3h5.6v-7.1h-5.9l-3.9-7.9q-3.5-6.8-7-10-4.7-4.3-10.5-4.3-4.8 0-8.6 3.2-3.8 3.2-3.8 7.9 0 1.8 0.5 3.9l1.3 3.6 1.8 2.8 8.9-0.1-1.3-1.7-1.6-2.3q-1-1.5-1.4-3.1l-0.4-2 0.4-1.9q1.4-3 4.5-3 6.1 0 10.6 10.5l1.9 4.4h-151.3v7.1h26zm0 17.2q-0.4 1.6-1.7 2.7-2.6 1.9-5 1.9-3.7 0-5.7-2.3-2-2.3-2-5.9 0-4 2.1-6.3 2.4-2.3 5.4-2.3 3.3 0 5.2 2.2 1.3 1.3 1.7 2.9zm27.8-49.4h-9.3v8.6h9.3zm34.8 41.5l-0.6 0.7-1 1q-3.3 3-7.4 3-2.9 0-5-2.2-1.7-2.3-1.7-6.6v-11.7h15.7zm161-15.8v6.2q-2.8-2.1-5.7-2.1-5.2 0-8.2 4-3.3-4.4-8.6-4.4-6.7 0-10.4 6-1.7 2.7-2.4 5.5-0.7 2.9-0.7 6.5v3.4l0.5 2.8q1.3 4.1 3.3 6.5 4.4 4.9 10 4.9h5.5v-7.6h-4.4q-4 0-5.5-2.6-0.7-1.4-1.1-3-0.5-1.7-0.5-3.9 0-10.9 5.8-10.9 2.8 0.5 3.7 2 1 1.6 1 3.8v4h8.2v-4q0-6.2 4.6-6.2 3.2 0 4.8 2.4l0.1 0.1v25.9h8.2v-39.3h10.7v39.3h8.2v-39.3h5.7v-7.1h-5.6q-0.9-1.3-1.2-2.4-0.7-1.6-0.9-2.6l-0.3-2q0-3.1 2.6-4.9 3.1-1.8 5.7-1.8 1.5 0 3.2 0.4 1.7 0.5 3.7 1.3 3.5 1.8 5.8 3.1 2.3 1.3 4.2 2.6l8.8 6.3h-25.8v7.1h11.6v14h-3.5q-3.6 0-3.6 3.1 0 2.1 2.1 4.1l5.5 5.4 2.3 1.8q1.1 0.7 2.5 0.7 2.9 0 2.9-4.5v-3.4h13.3v18.1h8.2v-39.3h25.6v5.5h-1.5q-8.1 0-12.6 4.7-4.5 4.8-4.5 12.1 0 2.4 0.5 4.5 1.6 5.2 5 8.5 5.8 5.4 13.2 5.4 9.4 0 14.1-5.4 1.8-2.1 2.6-4.2 0.8-2.1 0.8-4.4v-3.7h-8.2v2.8q0 2.4-1.8 4.6-2.7 3.1-7.2 3.1-4 0-7-2.1-3.1-2.2-3.9-5.8l-0.2-1.4v-1.8q0-4.5 2.8-7 2.8-2.5 7.5-2.5h8.6v-12.9h36.7v4.8h-8.6q-5.1 0-8.3 2-3.6 2.7-3.6 7l0.4 3q1.9 6.6 11.7 6.6h8.7q2.8 0 4.4 1.4 1.5 1.4 1.5 3.1 0 5.5-9.4 5.5-5.8 0-8.5-3.4-0.8-1-1-2v-1h-8.2v1.1l0.4 2q1.4 5 6.9 8 4.8 2.5 10.2 2.5 7.2 0 12.1-2.9 5.5-3.6 5.5-10.1v-1.1l-0.4-1.9q-2.1-7.9-13.1-7.9h-9.5l-2.9-0.6-1-1.5v-0.7q0-2.5 4.2-2.6h16.9v-11.3h12.4v-7.1h-52.8l-18.2-23-7.2 5.9 18.1 17.1h-44.4v-7.9l-9.2-6.4q-4.1-2.9-8.3-4.8-5.9-2.6-10.9-2.6-6.5 0-11.3 3.9-4.9 3.9-4.9 9.9 0 2.9 0.8 5.2l0.9 2.2 0.3 0.5h-31.3v-7.9l-9.2-6.4q-4.1-2.9-8.3-4.8-5.8-2.6-10.9-2.6-6.5 0-11.3 3.9-4.8 3.9-4.8 9.9 0 2.9 0.8 5.2l0.8 2.2 0.3 0.5h-9.5v7.1h9.9v39.3h8.3v-39.3zm-47.9-9.5q-0.7-1.6-0.9-2.6l-0.3-2q0-3.1 2.6-4.9 3.1-1.8 5.6-1.8 1.5 0 3.3 0.4 1.7 0.5 3.7 1.3 3.5 1.8 5.8 3.1 2.3 1.3 4.2 2.6l8.8 6.3h-31.6q-0.9-1.3-1.2-2.4zm114 23.5h-13.4v-14h13.4z"/><path class="b" d="m193.9 388.9v0.9c106.7 0 193.7-87.4 193.7-194.4 0-107.1-87-194.4-193.7-194.4-106.6 0-193.6 87.3-193.6 194.4 0 107 87 194.4 193.6 194.4v-0.9-0.8c-52.8 0-100.8-21.7-135.6-56.6-34.8-34.9-56.3-83.1-56.3-136.1 0-53.1 21.5-101.3 56.3-136.2 34.8-34.9 82.8-56.6 135.6-56.6 52.9 0 100.9 21.7 135.6 56.6 34.8 34.9 56.4 83.1 56.4 136.2 0 53-21.6 101.2-56.4 136.1-34.7 34.9-82.7 56.6-135.6 56.6z"/><path class="b" d="m193.9 319.5v1.9c69.2 0 125.6-56.6 125.6-126 0-69.5-56.4-126.1-125.6-126.1-69.1 0-125.5 56.6-125.5 126.1 0 69.4 56.4 126 125.5 126v-1.9-1.8c-33.5 0-64-13.8-86.1-35.9-22-22.2-35.7-52.8-35.7-86.4 0-33.7 13.7-64.3 35.7-86.5 22.1-22.1 52.6-35.9 86.1-35.9 33.6 0 64 13.8 86.1 35.9 22.1 22.2 35.8 52.8 35.8 86.5 0 33.6-13.7 64.2-35.8 86.4-22.1 22.1-52.5 35.9-86.1 35.9z"/><path class="b" d="m193.9 329.1v0.8c73.9 0 134.1-60.4 134.1-134.5 0-74.2-60.2-134.6-134.1-134.6-73.8 0-134 60.4-134 134.6 0 74.1 60.2 134.5 134 134.5v-0.8-0.9c-36.4 0-69.5-14.9-93.5-39-24-24-38.8-57.3-38.8-93.8 0-36.6 14.8-69.9 38.8-93.9 24-24.1 57.1-39 93.5-39 36.5 0 69.5 14.9 93.5 39 24 24 38.9 57.3 38.9 93.9 0 36.5-14.9 69.8-38.9 93.8-24 24.1-57 39-93.5 39z"/><path class="b" d="m193.9 366.2v0.9c94.2 0 171.1-77.2 171.1-171.7 0-94.6-76.9-171.7-171.1-171.7-94.2 0-171 77.1-171 171.7 0 94.5 76.8 171.7 171 171.7v-0.9-0.8c-46.6 0-89-19.1-119.6-49.9-30.7-30.8-49.7-73.3-49.7-120.1 0-46.9 19-89.4 49.7-120.2 30.6-30.8 73-49.9 119.6-49.9 46.7 0 89 19.1 119.7 49.9 30.6 30.8 49.7 73.3 49.7 120.2 0 46.8-19.1 89.3-49.7 120.1-30.7 30.8-73 49.9-119.7 49.9z"/><path class="b" d="m193.9 376.4v2.1c100.5-0.1 182.4-82.3 182.4-183.1 0-100.9-81.9-183.1-182.4-183.1-100.5 0-182.4 82.2-182.4 183.1 0 100.8 81.9 183 182.4 183.1v-2.1-2c-49.1 0-93.7-20.1-126-52.5-32.3-32.5-52.3-77.2-52.3-126.5 0-49.3 20-94.1 52.3-126.5 32.3-32.5 76.9-52.6 126-52.6 49.1 0 93.7 20.1 126 52.6 32.3 32.4 52.4 77.2 52.4 126.5 0 49.3-20.1 94-52.4 126.5-32.3 32.4-76.9 52.5-126 52.5z"/><path fill-rule="evenodd" class="b" d="m193.9 311.9c-64.2 0-116.1-52.1-116.1-116.5 0-64.5 51.9-116.6 116.1-116.6 64.2 0 116.1 52.1 116.1 116.6 0 64.4-51.9 116.5-116.1 116.5zm-140.4-119.1l0.3 14.2-4.3 0.1-0.1-4.7-18.4 0.4-0.1-5 18.5-0.4-0.1-4.5z"/><path class="b" d="m54.1 207.7l0.7 4.9-9.1 1.2 0.6 5.4 9.1-1.1 0.6 4.9-22.5 2.8-0.6-5 9.2-1.1-0.6-5.4-9.2 1.1-0.6-5z"/><path fill-rule="evenodd" class="b" d="m34.5 231.2l3.8 13.3 3.9-1.1-2.5-8.5 5.4-1.6 1.9 6.7 3.7-1.1-1.9-6.6 5.1-1.5 2.4 8.5 3.7-1.1-3.8-13.3zm7.6 24.3l1.6 3.6 15-6.7-12.2 13 1.8 4.1 20.7-9.3-1.6-3.5-12.8 5.8 10.5-11.1-2.3-5.1z"/><path class="b" d="m70.8 263l6.7 12.1-3.4 1.9-4.3-7.7-4.6 2.5 3.3 6-3.4 1.9-3.3-6-4.9 2.7 4.3 7.8-3.5 1.9-6.7-12.1z"/><path class="b" d="m77.7 275.5l3.3 3.9-10.5 11.9 14-7.8 2.9 3.5-10.3 12.3 13.9-8 2.7 3.2-20.6 11-2.9-3.4 10.1-12.5-14 7.8-2.9-3.4z"/><path class="b" d="m99.9 299.7l3.7 3.3-15.2 17-3.7-3.4z"/><path class="b" d="m105.7 305.1l4.5 3.2-3.6 14.9 8.3-11.4 3.1 2.3-13.3 18.4-3.6-2.7 4-17.4-9.6 13.4-3.1-2.3z"/><path class="b" d="m120.5 315.3l4.6 2.7q3.1 1.8 4.5 3.7 1.4 1.9 1.3 4.7-0.1 2.9-2.3 6.6-1.5 2.7-3.4 4.3-1.9 1.7-3.7 2.2-1.8 0.6-3.4 0.2-1.7-0.5-3.8-1.7l-5.1-3zm2.3 5.9l-7.4 12.9 0.7 0.5q1.5 0.8 2.7 0.7 1.1-0.1 2.4-1.2 1.4-1.2 2.9-3.9 1.5-2.5 1.7-4.2 0.3-1.7-0.3-2.6-0.5-1-1.9-1.8z"/><path class="b" d="m136.7 324.1l4.5 2.1-9.6 20.7-4.5-2.1z"/><path fill-rule="evenodd" class="b" d="m148.1 328.4l4.7 1.7-1.2 23.6-4.8-1.7 0.4-4.8-6-2.1-2.6 4.1-4.3-1.5zm-0.5 14.8l0.8-9.5-5.1 8zm22.1-9.1l5 0.7 3.3 23.5-5.1-0.7-0.4-4.8-6.4-0.9-1.7 4.5-4.6-0.7zm2.4 14.6l-1-9.5-3.5 8.9zm23.6-7.4l-4.2 1.4q-0.7-2.8-3.1-2.9-1.1 0-1.7 0.5l-0.7 1.5 0.7 1.6q0.7 0.6 3.1 1.6 2.1 0.9 3.4 1.7 1.2 0.9 1.9 2.2 0.7 1.5 0.7 3.3-0.1 3.2-2.4 5.1-2.2 2-5.9 1.9-6.2-0.3-7.7-6.6l4.4-1.1q0.7 3.5 3.5 3.6 1.3 0 2.2-0.6 0.8-0.7 0.8-1.8l-0.5-1.5q-0.5-0.6-2.5-1.4-2.6-1.1-3.8-1.9-1.3-0.8-2.1-2.2-0.8-1.4-0.7-3.2 0.1-3.1 2.2-5 2-1.9 5.2-1.8 5.9 0.2 7.2 5.6zm16.3-1.2l-3.9 1.9q-1.2-2.7-3.5-2.5-1.1 0.1-1.7 0.7l-0.5 1.6 0.9 1.4q0.8 0.5 3.3 1.2 2.2 0.7 3.6 1.4 1.3 0.7 2.2 1.9 0.9 1.3 1 3.2 0.3 3.1-1.7 5.4-2 2.2-5.7 2.5-6.1 0.5-8.3-5.5l4.2-1.7q1.1 3.4 3.9 3.1 1.3-0.1 2-0.8 0.8-0.7 0.7-1.9l-0.7-1.4q-0.6-0.6-2.7-1.2-2.7-0.6-4-1.3-1.4-0.6-2.3-2-1-1.3-1.1-3.1-0.3-3.1 1.5-5.2 1.8-2.1 5-2.4 5.9-0.5 7.8 4.7zm2.3-5.4l4.9-0.9 2.3 12.8q0.4 2.7 0.9 3.8 0.4 1 1.3 1.4 0.9 0.4 2 0.2 1.2-0.2 1.8-0.9 0.6-0.8 0.6-1.8 0-1-0.5-3.8l-2.2-12.8 4.1-0.7 2.2 12.6q0.7 3.8 0.6 5.7-0.2 2-1.7 3.6-1.5 1.7-4.6 2.2-2.9 0.5-4.8-0.2-1.8-0.6-2.8-2.3-1.1-1.6-1.8-6.1z"/><path class="b" d="m231.2 331.5l6.7-2.3q2-0.7 3.1-0.9 1.1-0.1 2.4 0.3 1.4 0.4 2.4 1.6 1.1 1.2 1.7 2.9 1.4 4-1.1 6.7l7.2 8-5.1 1.8-5.8-7.5-2.4 0.8 3 8.5-4.8 1.6zm6 1.9l2 6 2.1-0.7q2.8-0.9 1.7-4-0.4-1.1-1-1.7l-1.3-0.6q-0.6 0-1.7 0.3z"/><path class="b" d="m250.8 324l4.6-2.1 15.4 17.9-4.6 2.1-3-3.7-5.8 2.7 1 4.7-4.2 1.9zm9.9 11l-6-7.4 1.9 9.3z"/><path class="b" d="m261.3 319.3l4.6-3.1 12.6 8.7-7.7-11.9 3.3-2.1 12.3 19.1-3.7 2.5-14.8-10.1 9 13.8-3.2 2.1z"/><path class="b" d="m293.9 313.7l3.8-2.7q2.1 3.1 1.9 6.2-0.2 3.1-2.8 5.3-3.3 2.7-6.9 1.6-3.7-1-7.1-5.3-3.5-4.3-3.7-8.1-0.3-3.8 3-6.5 5.5-4.5 11.5 2l-3.3 3.1q-3.3-3.8-5.6-1.9-1.2 1-0.9 2.8 0.3 1.9 3.2 5.5 2.7 3.3 4.3 4 1.7 0.7 3-0.4 2.1-1.7-0.4-5.6z"/><path class="b" d="m289.3 299.1l9.5-10.1 2.8 2.6-6 6.5 3.8 3.6 4.7-5 2.9 2.7-4.7 5 4.1 3.8 6-6.5 2.9 2.8-9.4 10.1z"/><path class="b" d="m322.5 281.5l2.9-3.6q2.8 2.3 3.5 5.4 0.7 3-1.2 5.8-2.4 3.5-6.2 3.5-3.8 0-8.3-3.1-4.5-3.2-5.8-6.8-1.3-3.5 1.2-7.1 4-5.8 11.6-1.3l-2.4 4q-4.2-2.8-5.9-0.4-0.9 1.3-0.1 3 0.8 1.7 4.6 4.4 3.5 2.4 5.2 2.6 1.8 0.2 2.8-1.2 1.5-2.2-1.9-5.2z"/><path class="b" d="m331.2 260q10.4 5.3 6.7 12.6-1.9 3.7-5.5 4.2-3.6 0.5-8.7-2.1-10.4-5.4-6.7-12.7 1.9-3.6 5.4-4.2 3.6-0.5 8.8 2.2zm-2.4 4.6q-4.1-2-5.7-2.1-1.7-0.1-2.4 1.3-0.7 1.4 0.3 2.8 1 1.3 5.1 3.4 4 2 5.7 2.1 1.8 0.1 2.5-1.3 0.7-1.4-0.4-2.7-1-1.4-5.1-3.5z"/><path fill-rule="evenodd" class="b" d="m343.3 261l1.7-4.3-4.7-1.8-1.7 4.3zm6.2-17.2l3.4-11.9-4.1-1.1-2 7-17.7-5.1-1.4 4.8zm-14.5-14.8l0.7-4.4 18.2 2.9 0.8-5-18.2-2.9 0.7-4.6-4.2-0.6-2.2 14z"/><path fill-rule="evenodd" class="b" d="m333.3 213.4l0.4-5.3q0.2-3.5 1.3-5.6 1.1-2.2 3.7-3.3 2.6-1.1 6.9-0.8 3.1 0.2 5.4 1.2 2.3 0.9 3.6 2.3 1.2 1.4 1.6 3.1 0.3 1.6 0.2 4.1l-0.5 5.9zm4.3-4.7l14.8 1.1 0.1-0.9q0.1-1.7-0.5-2.7-0.6-1-2.2-1.7-1.6-0.7-4.7-0.9-2.9-0.2-4.5 0.3-1.6 0.5-2.2 1.4-0.7 0.9-0.8 2.6zm14.4-13.6l-0.2-4.6 5-0.2 0.2 4.6z"/><path class="a" d="m230.6 210.9c-0.2 0.7-1.2 1.7-1.6 2.1l-1.1 1.2-1.2 1.3-0.9 1-1.2 0.1c-0.9 0.1-1.4 0.7-2.1 0.9l-1.2-0.1v-0.6l-0.6-0.3c-0.6 0-1.8 0.8-1 1.4l0.6 0.7-0.9 0.7-1.7 1.7-0.9 0.8h-0.3l-0.5 0.8-0.6 1-1.5 2c-0.5 0.7-1.1 1.4-1.7 2.2l-1.1 0.3-1.1 0.8c-0.8 0.4-1.3 1-1.9 1.6l-0.8 0.8c-0.2 0.7-0.9 1.3-1.5 1.6l-1.1 0.7-1.2 0.6c-0.7 0.4-1.5 0.9-2.1 1.3-0.6 0.4-1.4 1.2-1.5 1.9l0.4 1v0.1l-0.2 0.9-0.2 0.2c-0.5 0.6-1.1 0.8-1.8 1.2-0.7 0.3-1.7 0.4-2.6 0.5l-1.9 0.2-0.6 1-0.1 0.2-0.2 0.5-0.1 0.3-0.6 0.9-0.1 0.2-1.1 1.2h-0.1l-0.6-0.1-1.1-0.9-0.3 0.1c-1 0.1-1.4 0.4-2.1 1.1l-0.7 0.8-0.3 0.7-0.5 1.2c-0.2 0.6-0.2 1.3-0.3 2 0 0.7-0.1 1.6 0.3 2.1l0.4 1.1-0.1 1.1q0 1 0 2l0.3 1.4c0.1 0.8 0.1 1.6 0.3 2.4 0.2 0.8 0.4 1.5 0.4 2.4 0 0.8 0 1.6-0.4 2.4l-0.2 0.3-0.2 0.9-0.1 0.1 0.1 0.1-0.8 1.7c-0.6 1.1-1.1 2.1-1.9 3.2-0.6 0.7-0.5 1.7-0.5 2.6l0.4 2.9c0 1 0.4 2.5 0.1 3.5l-0.3 0.5c0.1 1 0.3 2.3-0.5 2.6-1.1 0.3-2.8-0.6-3.6 0.5l-0.3 0.5-0.2 1.3-0.3 0.4-0.9 1.2-0.5 0.9 0.1 1.9-0.1 0.3-0.5 0.1-0.9 0.4-1.8 0.7-1.7 1.3-1.3 1.4v0.1 0.1l-0.2 0.8-0.2 0.8-0.1 0.8-0.7 0.5-0.9 0.4-0.8 0.3-1.8 0.5-1.8-0.7-0.5-0.7-0.2-0.2-1.3-1.4-1.2-1.6-1-1.4-0.5-0.8-0.3-0.9-0.8-1.8v-1.5c-0.3-0.7-0.4-1.5-0.5-2.1-0.2-1.1-0.4-2.1-0.8-3.1-0.3-1.1-0.4-2.2-0.9-3.2-0.4-0.9-0.9-1.9-1.1-2.9l0.2 0.2-0.2-0.5-0.8-1.1-0.9-1.7-1.1-1.5c-0.7-0.9-1.3-1.9-1.6-2.8-0.9-2.1-1.5-4.2-1.9-6.5-0.1-0.7-0.5-1.2-0.6-1.9l-0.2-1.8c-0.1-1.2-0.5-2.4-0.7-3.6-0.3-1.1-0.5-2.4-1-3.4-0.4-0.8-1.7-1.5-1.4-2.2v-0.1c-0.5-0.8-0.8-1.6-1.2-2.4-0.4-0.7-0.8-1.5-1-2.3l-0.3-1.3-1-0.9c-0.5-0.7-0.7-1.7-1-2.5-0.6-1.7-0.5-3.6-0.6-5.4-0.1-0.9-0.1-1.9-0.2-2.8l-0.1-1.3-0.2-1.2-0.2-0.2c-0.6-0.8-0.4-1.7-0.6-2.6l-0.2-1.7-0.2-1.5 0.1-1.5 0.5-1.4 1.2 1.2-1-1-0.4-1.2c-0.2-0.7-0.7-1.5-0.6-2.4v-0.1l-0.3-1.4v-1.6l0.3-1.6c0-0.9-0.4-1.9 0.4-2.5 0.5-0.5 1.3-1.2 1.7-1.9 0.5-1-1-1.4-1.4-2.1h0.1l-0.2-0.1c-0.6-0.5-0.9-1-0.9-1.7-0.1-0.4 0.1-2.1 0.8-1.6l-0.4 0.2 0.9-1-1.1-0.1-0.3-0.8c0-0.6-0.1-1.3-0.1-2l0.3-0.7-1.7-0.7-0.1 0.8v0.3l-0.8 0.5-0.8 1.5h0.1l0.5 0.1 0.3 0.3 0.3 0.5h0.1c0.4 0.9-0.2 1.5-0.8 2.1-0.5 0.6-0.7 1.2-1.4 1.5l-1.9 0.7c-1.3 0.7-2.3 1.4-3.8 1.7-1.3 0.2-2.7 0.3-3.7-0.5-1.1-0.8-2.2-1.5-3-2.5-1-1.1-1.6-2.2-2.4-3.2-0.9-1.2-1.9-2.4-2.9-3.6-0.6-0.6-2.3-2.9-0.7-3.4 1.1-0.3 0.7 0.8 1.2 1.1l0.2 0.1 0.7-0.2 1.6-0.1 0.7-0.3h0.7l0.3-0.2 1.1-0.5 0.9-0.5 0.8-1 0.5-1.1h-0.1-0.2-1.1l-0.5 0.2-0.1 0.1-0.7 0.3h-0.1l-1.1 0.3-1.6-0.1-0.8-0.3-0.9-0.2-0.7-0.4-0.8-0.3-0.7-0.6-0.6-0.6-1.1-1.3-0.7-1.2-0.1-0.9 0.3-0.6 0.5-0.4 0.7-0.7h-1.2-1.1l-0.7-0.2 0.4-0.7 0.7-0.5h1.6l0.9-0.2 0.3-0.7 0.6-1.3 1.6 0.1 1.5 0.3 1.6 0.4 1.5 0.3 0.5 0.3h0.9l0.6-0.6 0.4-0.1 0.3-0.2 1.2-0.1 0.2-0.2 0.7-0.2v0.4-0.3l0.2 0.3v0.4l0.7 0.6 0.8-0.1 0.7-0.5h0.6l0.1-0.8 0.3-1.3-0.5-1.2c-0.2-0.8-0.2-1.6-0.5-2.4-0.2-0.7-0.7-1.4-0.8-2.2-0.2-0.7-0.4-1.6-1.3-1.7l-1.1-0.4-0.5-0.8c-0.4-0.8-0.7-1.3-0.4-2.2l0.5-1v-0.5l0.3-0.5v0.7l-0.2 0.5 0.2-0.9-0.1-1-1.7-0.3-1.1-0.3-0.7-0.5c-0.6-0.2-1.1-0.7-1-1.4l0.5-1 0.3-1.1 0.9-0.4 0.8-0.6 1.4-1.8 0.4-0.4 0.2-0.6 0.6-0.6 0.5-0.4 1.6-0.5 0.3 0.1h0.3l0.3 0.7v0.3l1.2 0.9 0.8-0.1 0.8-0.3 1.5-0.1 0.3 0.2c0.8-0.2 1.6-0.4 2.4-0.9 0.9-0.5 1.5-1.9 2.2-2.8 1.1-1.6 2.7-3.4 4.6-3.9l0.1-0.1h0.1 0.1 0.1 0.1l1-1.6c0.6-0.9 1.4-1.7 1.8-2.6 0.4-0.8 0.5-2 1.2-2.6l2.6-0.6-0.1 0.1 0.1 0.3 0.1-0.5 0.2-1.1 0.1-0.5 0.4-0.5 0.5-1.1 0.7-0.9c0.8-0.5 1.5-1.3 2.2-1.9l0.6-0.6-0.2-0.5c0-0.8 0.3-1.5 0.1-2.3l0.2-1.1-0.5-1.1 1.6-1 1.6-0.6 1.5-0.7 0.6-0.5 0.3-0.7-0.2-0.6-0.6-0.3c-0.7-0.3-1.5-0.2-2.2-0.5l-0.5-0.1-0.3-0.3-0.2-1.1-0.2-0.3-0.2-0.3-1.6-0.6-1.8-1c-0.4-0.3-1-1-1.7-1-0.6-0.6-0.5-1.8-0.5-2.7-0.1-1.1 0.2-1.9 0.3-2.9l-0.1-0.5c-0.1-0.7-0.4-1.4-0.6-2.1l-0.1-0.7-0.2-0.5 0.3-0.5 0.1-0.4 1-0.5c0.7 0 0.3-0.2 0.5-0.7l1-0.7 0.9-0.5 0.4-0.9 0.4-1-0.1 0.1v-0.1l-1.3-0.5-1-0.4 0.3-1.2-0.4-0.7-1.1-0.4c-0.8-0.3-1.2-0.7-1.7-1.4l-0.7-0.7h-1.2c-0.7 0-1.4 0.1-1.7-0.7-0.3-0.7 0.2-1.5 0.4-2.1 0.3-0.7 1.2-0.6 1.7-1.1l1.7-2 0.8-0.3h1.2l0.6 0.2h0.5 1.2l-0.9-1.1 1.7-0.1 1.7-0.2 0.8-0.1 0.6-0.4 1.5-0.2 0.8 0.7 1-0.2 1-0.4 0.7 0.5c0.3 0.7 0.9 1.5 1.4 2 0.5 0.6 1.1 1.3 1.7 1.7 1.3 0.7 2.6 1.2 3.6 2.3l0.7 0.8 0.3 1.2c0.6 0.8 1.9 0.9 2.7 1.3l1.1 0.8-0.3 1.4v0.1l1.1 0.1 1-0.4 1.3-0.5 0.2 0.2 0.3-0.2 0.9-0.2 0.9-0.7c0.8-0.5 1.4-1 2.2-1.4l1.2-0.6 0.7-0.7c1.8-0.7 2.3 2 3.9 2.2h1.1l0.7 0.5 0.7 0.9 0.8 0.7c0.4 0.8-0.6 1.7-0.7 2.4-0.2 0.7-0.4 1.5-0.6 2.2l-0.4 1-0.9 0.5c-0.8 0.3-0.6 1.3-1.4 1.6l-0.9 0.2 0.2 1-0.5 0.9-0.3 1.1v-0.2h-0.1-0.4l-1-0.1c-0.8 0-2-0.1-1.6 1.1 0.2 0.4 1.3 1.5 0.5 1.9l-0.5 0.2-0.1 0.1 0.8 1.6 2 0.7c0 0.8-0.1 1.5 0.2 2.2l0.5 0.9 0.2 0.8-0.5 0.8-1 0.2-1 0.4-0.8 0.7-1.3-0.5-0.2-0.8-0.3-0.6-1.2 0.3-0.6 0.5v1.1 0.1l0.5 1.5 0.2 0.4 0.2 0.4 0.6 1.3c0.2 0.7 0.5 1.4 0.5 2.2v1.2l0.6 0.6 0.8-0.5 0.8 0.3c0.4 0.7 0.9 1.4 1.4 2l0.8 0.7 1.1 0.1q1.2 0 2.1 0.6l0.8 0.7 0.3 1.1v0.2c0.9 0.3 1.9 0.6 2.6 1l1.3 1.3-0.8 1.4c-0.5 0.6-1.4 1.4-2.2 2.3l-0.2 0.7-0.8 1.7-0.1 1.4 0.1 0.1c-0.7 0.8-1.1 1.5-1.2 2.4l1.5 0.7 0.8 0.7 0.8-0.1c0.8 0.2 1.2 1 1.9 1.4l1.2 0.6 0.7 0.4 0.3 0.5c0.8 0.8 1.6 1.4 2.6 2 1.2 0.7 2.6 0.8 3.7 1.5 0.7 0.4 1 0.4 1.9 0.4 0.5 0.1 2.1 0.5 1 1.1l-0.5-1 1.1 1.5 1.1-0.1 1.3 0.4 0.2 0.3c0.7 0.1 0.8-0.5 1.7-0.7 0.7-0.1 1.2 0.3 1.8 0.3 0.8 0.1 1.5-0.5 2.2-0.2l0.9 0.6 1.1 0.2 0.6 0.3 0.4 0.1 0.4 0.2-0.1 0.7 0.3 0.9v-0.1l0.7 0.1 0.8 0.6 0.8 0.3 1 0.5 1.1 0.1 1.3-0.3h0.1l0.7 0.8v0.1l0.8 0.8 1.9-0.1 1.8 0.3 0.9 0.4h0.9 1l0.9-0.5 0.3 0.4c0.4 0.6 0.8 0.8 1.5 0.8l1.9-0.3c0.6-0.1 1.2-0.1 1.9-0.1l1-0.4 0.5-0.7v0.1h0.1v-0.2l-0.4-1.9c-0.5-1.2-1.1-2.5-0.9-3.9l0.6-1.8 0.2-1.1v-1l1.2-0.3 1.2-0.3 1-0.1 0.6 0.5 0.3 0.9-0.1 1.8c-0.2 0.7-0.3 1.2-0.3 1.9v0.9l0.4 0.6 0.6 0.5c0.6 0.4 1.3 0.9 2 1.1 0.7 0.1 1.4 0.3 2.1 0.5h0.9l0.7 0.3h0.3c0.7 0 1.3 0 1.8-0.5l0.8-0.5 0.6-0.5h-0.1l0.4 0.3 1.7 0.4c0.8 0.1 1.9 0.3 2.7 0.1 1.8-0.6 3.7-0.3 5.5-0.9l0.7-0.3v-0.3l-0.5-1.1 0.2-1.3c0.2-1.5-1.1-0.9-2-1.1-0.8-0.2-1.1-1.5-0.8-2.2l2.6-0.6 1.3-0.2 1.1-0.3 0.7-0.6 0.5-1.3 1-0.7 1-1 0.7-1.2 0.2-1 1.1-0.2 1.5-0.4 1.2-0.9c0.7-0.6 1.3-1.4 2-2 0.6-0.6 1.6-1.4 2.4-1.6l1.2 0.4 1.2 0.5h2.7l0.4-0.7 0.6-0.4 1-1 0.8-0.2 1.5-0.3 0.6 0.7 0.2 0.9-0.3 1.2 1.1-0.4 1 0.2 0.4 0.8 0.2 0.7-0.1 0.3-0.2 0.3c-0.3 0.6-1.1 1-0.9 1.8l0.7 0.3 1-0.4v0.1l1.3 0.2 1.6 0.2 1.4 0.4 0.2 1.6-0.2 1.5-1 0.9-1 0.8v0.1l0.6 1.5 0.3 0.7 0.6 0.7c0.2 0.8-0.4 0.7-0.9 0.3l-1.2-1-1.8 0.1c-1.1 0.1-2.1 1-2.9 1.8-0.9 0.7-1.6 1.6-2.4 2.4-0.5 0.4-1.4 0.7-2 1.1l-0.5 0.7-0.6 0.7v0.1c1.7 1.6 0.8 4.5-0.5 6l-1.2 1.2h-0.1c-0.3 0.7-0.4 1.4-0.3 2.2v0.1l0.2 0.9 0.1 1.6-0.9 1.4-0.4 1.4-0.5 1.6-0.5 1.6c-0.3 0.9-0.6 0.5-1.2 0.3-0.9-0.4-2.4-0.1-3.4 0l-0.4 0.1v1.1l0.2 0.9c0.1 0.6 0.2 1.2 0.3 1.9 0 0.7-0.2 1.3-0.4 1.9l-0.7 0.8-0.7 0.6-0.2 0.8 0.1 0.7 0.2 0.5 0.1 0.6 0.4 1.6 0.1 0.4-0.2 0.3-0.7 0.4-0.7 1-0.7-0.6-0.5-0.1c-0.6-0.1-0.9 0.1-0.9-0.6l-0.2-1.4-0.6-1.3c-0.3-0.7-0.5-1.4-0.8-2.1-0.3-0.6-0.4-1.2-0.4-1.9l0.1-1.1-0.5-0.9-0.6-1.7-0.6 0.2-0.3 0.3-0.6 0.1-0.2 0.1-0.4 1.4-0.9 1.4 0.4 1.6-1.3 0.6h-0.1l-0.2-0.3h0.1v-0.1l-1-0.5-1-0.9-0.5-1.2-0.3-0.8 0.1-0.8 0.1-1.5 0.7-1.1 1.2-0.6 1.2-1c0.8 0.5 1-0.2 1.4-0.6l0.7-0.5c0.5-0.7 0.4-2 0.7-2.6l1.2-1.1 0.2-0.8-0.3-0.3-0.1-0.2-0.8-0.3-1.8-0.1q-1.3 0-2.7 0c-0.9 0-1.9 0-2.8 0.1-0.9 0.2-1.8 0.3-2.7 0.4-0.9 0-1.8-0.1-2.6-0.2l-1.4-0.3-0.6-0.3-0.7-0.2 0.2-1.1 0.2-1.5v-0.1c-0.9 0.4-1.9 0.7-2.9 1-0.9 0.3-1.9 0.1-2.8 0.1q-1 0.1-1.9-0.4l-0.8-0.6-0.1 1.4 1.2 0.3c0.7 0.2 0.3 0 0.6 0.5l0.6 0.8v0.3l-0.1 0.3-1.1 0.4-0.9-0.1-1.3 1.2-0.1 0.5-0.6 0.4-0.6 0.4-0.7 0.7v0.7l0.8 1 0.9 0.8 1.1 0.5 1.2 0.1 0.1 1.3 0.1 1.2-0.4 0.4-0.4 0.4-0.1 0.2 0.6 1.1v0.5h0.1l0.5 0.9 0.2 0.3-0.1 0.7 1.4 0.5-0.3 1.5 0.2 0.8-0.1 0.3 0.1 0.8 0.2 0.6 0.4 1.8 0.3 1.3 0.2 0.7 0.1 1 0.1 0.9v1l-0.1 0.1-0.6 0.4-0.8-0.2-0.9 0.5c-0.8-0.2-0.4-1.1-0.3-1.5v-1.8l-0.4-0.3-0.2 1.9-0.9 1.2-1.4 0.3c-0.5-0.5-0.5-1.2-0.4-1.9l-0.2-1.6v-0.1-0.1l-0.2-0.2-0.4-0.1-0.2-0.5-0.4-0.3-0.2 0.5 0.4 0.5 0.2 0.7h-0.1v-0.1l-0.2-0.7 0.6 0.3-0.1 0.7v0.3l0.2 0.2-0.4 0.5-0.9 0.8-1.1 0.9-1.2 0.5c-0.9 0.4-1.8 0.5-2.6 1.1-0.7 0.5-1.1 1.2-1.4 1.9v0.1 1.3l0.5 1.7 0.2 0.5zm-100.7 72.5v0.1l-0.1 0.2-0.1 0.3-0.1 0.2h-0.2-0.3l-0.4-0.2v-0.4l0.1-0.2 0.5-0.5 0.6 0.1v0.3zm1.3-5.1l0.1 0.5v0.5l-0.5 0.4-0.5 0.1-0.3-0.3-0.4-0.3v-0.2l0.1-0.3 0.2-0.4 0.3-0.1h0.3c0 0 0.7 0.2 0.7 0.1zm-3-2.1l0.4-0.3 0.3-0.4v-0.5l-0.1-0.2-0.2-0.1h-0.3l-0.2 0.1-0.2 0.2-0.1 0.2-0.1 0.6 0.3 0.4zm149.8-10.5l0.1 0.3 0.3 0.4 0.1 0.2v0.1 0.1l0.1 0.1 0.1 0.2v0.4l0.1 0.5v0.2l-0.1 0.2-0.1 0.2-0.1 0.2-0.3 0.1-0.2-0.2-0.2-0.1-0.3-0.3-0.2-0.3-0.3-0.4-0.3-0.4-0.1-0.2v-0.3-0.4-0.2l0.2-0.2 0.1-0.1 0.2-0.1 0.5-0.1h0.2 0.1zm-1.2-1.5l0.5 0.3-0.1 0.2v0.2l-0.2 0.3-0.4 0.2h-0.3l-0.2-0.1-0.1-0.1-0.1-0.4 0.4-0.6h0.6zm-2.7-4l0.4 0.2 0.3 0.2 0.1 0.4-0.1 0.4-0.4 0.1h-0.2l-0.2-0.1-0.3-0.3-0.1-0.4 0.7-0.5zm0.8-1.4l0.2 0.2 0.2 0.3 0.5 0.4 0.1 0.8-0.2 0.1h-0.2l-0.3-0.1-0.3-0.3-0.2-0.3-0.2-0.3-0.1-0.2v-0.2l0.2-0.3h0.4zm-5.3-7.3l0.1 0.9-0.1 0.3v0.1l-0.1 0.1h-0.2-0.2l-0.1-0.1-0.4-0.1-0.1-0.3-0.1-0.4 0.2-0.3 0.3-0.2h0.4 0.2zm-3.3-11.4l0.2 0.2 0.1 0.1 0.2 0.3 0.2 0.4v0.5l-0.1 0.5-0.1 0.2v0.2l-0.8 0.2-0.4-0.3-0.1-0.4 0.1-0.9v-0.4l0.1-0.3zm3.9-9.9l-0.2 1.2-0.2 1.5c-0.5-0.5-1-0.7-0.8-1.4l0.2-0.4 0.2-0.3zm-0.8-8.9l-0.2 0.7v0.7l-0.1 1.4-0.7 1.2v0.7l0.2 0.7c0.3 0.8 0.4 1.8 0.3 2.7-0.1 1-0.6 1.8-0.9 2.7l-0.4 1.6-0.1 1-0.1 0.8-0.8-1.2-0.2-0.7-0.1-0.8 0.5-1.4 0.5-1.2v-1.4-0.7l-0.1-0.7 0.2-1.4 0.1-1.5 0.2-1.2-0.1-1.2 0.8-1 1.1 0.2zm-97.2-115.8v-0.1"/><path fill-rule="evenodd" class="b" d="m37.9 179.3c-2.2-1.2-4-2.9-6.8-4.2 3.1-1 5.2-1.5 7.3-2.2 0.5-3.2 0.5-5.4 0.7-6.6 2.8 1.6 3.8 2.4 6.4 3.7 2.5-1.6 4.1-2.3 6-3.6-0.5 3.3-0.7 3.5-1.2 7 2.1 0.8 3.8 2.1 6.8 3.6-3.6 1.5-3.6 1.5-6.8 3 0 2.1-0.3 5.4-0.7 7.7-2.8-1.6-4-2.6-6.2-3.9-2.5 1-3.8 1.8-7.1 3 0.7-2.9 1.1-4.7 1.6-7.5zm18.7-17.6c-5.5-1.1-10.3-2.2-15-3-0.5-0.1-0.3 0.4-0.6 1.1q-1.5-0.3-3.1-0.6c0.2-1.1 0.6-2.4 0.6-3.3-0.9-2.9-3-8.2-0.6-14.9 1.9-5.2 5.2-7.3 7.6-9.2l1.4-1c0.7-1.4 1.1-3.1 2.9-2.4 1.5 0.6 0.8 1.6 0.1 3.1 1.7 0.9 4.1 1.9 5.6 2.7-0.6 1-1 1.8-1.8 3.5-1 2.3-5.3 11 0 11.4 2.6 0.4 3.5-2.5 3.7-3.7 0.2-2.8 0.7-4.3 0.4-6.4l-1.9-1.1c0.4-1.1 0.6-2 0.9-2.7 0.5-1.1 0.5-0.9 0.6-0.9 0.9 0.3 1.6 0.6 1.9 0.7 4 1.5 7.6 2.9 8.3 4.4 0.8 1.7-0.3 9.3-3.8 7.9-2.3-1.4 2.5-5.7-2.2-6.6 0.9 8.4-3.9 15.1-11.5 12.8-1.8-0.8-2.6-2.3-3.2-4.1-0.3-3.1 0.4-4.3 0.8-6.6 0.7-2.1 1.6-3.6 2-5.2l-1.6-0.7c-2.4 4.9-4 10-5.5 17.3 5.1 1.1 10 2.4 14.8 3.5 1 1.6 0.6 3-0.8 4zm-17-11.3c0.7 0.2 0.8-0.3 0.8-0.8 0.8-4.9 2-8.2 3.4-11.9-1.2 0.3-3.2 4-3.8 6-0.8 2.5-0.7 3.4-0.4 6.7z"/><path fill-rule="evenodd" class="b" d="m65.5 113.1c2.4 2.8 3.1 2.7 3.4 6 0.2 2.2-0.9 5.3-2.6 7-0.7 0.7-2.4 1.4-2.5 1.4-4.4 1-8.6-1.4-7.6-7.9 0.8-2.4 2.6-5.2 2.9-5.6 0.4-0.7 2.1-3.6 2.4-4.1 0.6-1 1.8-2.6 2.5-3.8 1.2 0.6 1.6 1.1 3.2 1.9-1.2 2.3-2.8 3.9-1.7 5.1zm-4.7 10.2c1.1 1.1 3.6 0.8 4.4-0.8 1.1-3.6-1.5-4.8-3.2-4.2-1.6 0.6-3.2 2.6-1.2 5z"/><path fill-rule="evenodd" class="b" d="m50.7 117.6c2-3.4 3.5-5.8 5.4-8.5 2.3-3.3 4.1-5.6 5.8-7.9 2.1-2.7 7.3-8.6 9.6-11 1.5-1.5 3.6-4 4.2-3.4 1.9 1.5-0.2 2-1.5 3.9 0 0.3 7 6.4 11 9.6l0.8 0.2c2.2-1 4.3-1.7 5.8-1.4 0.2 1.1 0.3 1.5 0.5 2.7-1.6 0.9-4.8 1.6-5.9 2.6-0.8 1.5-0.9 1.8-1.5 3-0.9 0-1.8-0.3-3.1-0.8 0.3-1.2 0.9-2 1.3-3.1-0.4-0.4-2.7-2.2-3.4-2.9 0 0.4-0.1 1.9-0.3 3.2-0.4 1.5-1 2.9-2.4 4.3-1.7 1.3-2.1 1.3-4.2 2-0.5 0.2-0.7 1.6-2.2 1.3-0.2 0-0.9-0.1-1.7-0.8-1.5-2 1.7-6.5-2.5-7.7-1 0.2-1.3 0.2-2.6 0.9-1.7 1.7-5.6 7.9-6.7 9.7-0.2 0.4-1.4 2.7-2.3 4.2-0.4 0.8-0.6 1-1.2 2.5-0.8 1.2-1.2 1.2-2 1-1-0.6-2.2-1.2-0.9-3.6zm22.5-12.1c2.8-1.7 3.4-4.3 3.4-7.7-1.6-1.1-3.4-3.1-4.8-4.2-1.6 1.6-3.6 3.6-5 5.4 1.6-0.2 1.9-0.1 3.1 0.1 2 0.7 2.4 1.8 2.9 2.9 0.4 1.3 0.4 1.9 0.4 3.5zm266.4 74.6c-2.2-1.2-4-2.9-6.8-4.2 3.1-1 5.2-1.5 7.3-2.2 0.5-3.1 0.5-5.4 0.7-6.6 2.8 1.7 3.8 2.4 6.4 3.7 2.5-1.6 4.1-2.3 6-3.6-0.5 3.4-0.7 3.6-1.2 7 2.1 0.8 3.8 2.1 6.8 3.6-3.6 1.6-3.6 1.6-6.8 3.1 0 2-0.3 5.3-0.7 7.7-2.8-1.7-4-2.6-6.3-4-2.4 1.1-3.7 1.9-7 3.1 0.7-3 1.1-4.8 1.6-7.6z"/><path fill-rule="evenodd" class="b" d="m333.2 145.3c1.5 0.2 2.8 1.8 3.8 0 1.1-3.8-3.1-7-6.9-4.5-2.1 1.5-2 4.8 0 7.7 1.6 2.2-1.3 4.2-2.9 2.9-1.6-2.9-4.8-8.8-0.9-12.8 1-1 3.3-2.4 5.8-2.6 6 0 9.1 3.7 8.6 9.5-0.1 2.1-0.6 2.6-1.5 4.6 1.1 1.4 2.3 2.9 3.9 2.9 1-0.3 2.4-0.6 3-0.9-0.7-1.8-2-4.8-2.6-6.3-0.7-1.7-2.1-5-3.1-7.2-1.3-2.9-2.1-3.8-3.2-6.4-2.4 1-11.6 4.7-14.3 5.6-2 0.4-3.2-3.3-1.7-4.2 3.9-1.6 8.9-3.6 13.6-5.5-0.4-0.9-0.7-1.5-1-2.5-0.4-1 1.1-2.1 2.4-1.3 0.5 1 1.3 3 2.5 3.8 6.2 3.1 14.8 10 12.2 20.8-0.6 2.4-0.9 2.7-1.4 3.2 0.7 1.7 1.6 3.6 2.3 5.5 0.1 1.1-2.6 2.2-3.4 0.8-0.4-0.9-0.9-2.1-1.1-2.7-2.5 0.9-12.4 3.9-16.4 5-2.5 0.5-3.6-3.3-0.8-4.4 2.5-0.8 5.5-1.6 7.6-2.2-1.8-1.4-4.5-3.7-6.3-5.2-0.8-0.8 0.1-3.8 1.8-3.6zm14.6 2.8c1.3-1.3 0.8-3.9 0.8-4-0.1-1.7-0.8-3.7-1.4-5-0.8-2-2.6-3.7-3.9-4.6-0.7-0.2-1.5 0.5-1.1 1.4 0.3 0.7 0.9 2 1.2 2.6 0.6 1.3 3.3 7.1 4.4 9.6zm-82.4-85.5c-1.9 1.3-2.9 1.7-5.1 1.5-2.8-0.2-4.3-3.7-4.9-1.6-0.7 3.8 3.6 5.2 6.7 5.7 1.3 0.7 0.8 2.5-2.6 2.6-1.2 0-7.2-1.7-7.9-7.1-0.4-4.1 0.7-7.1 3.4-10 1.5-1.6 4.5 0 3.5 2.2 0.1-0.1-2.5 4.4 2.1 5.1 4 1 5.2-5.7 2.5-7.6-3-1.6-6.4-3.4-9.8-4.8-1 2.4-4.4 11.3-5.5 13.6-1.6 2.1-4.6 0.3-3.9-1.7 1.1-2.7 4.6-11.5 5.2-12.9-0.2-0.7-1.5-1-2.5-1.2-1.8 4.7-3.4 8.6-5.5 13.4-0.8 1.9-4.7 0.4-3.9-1.6 0.7-1.5 1.1-2.8 1.5-3.6-0.6 0.6-2.1 1.3-4.1 1-4-0.7-5.5-2.9-6.4-5.2-0.1-0.3-1.5 0.4-2.2-0.8-0.3-1-0.2-1.7 0.2-2.4 3.1 0.1 8.3 1.6 8.8-1.6 0.3-3.2-3.4-3.7-4.3-4.2-1.5-0.7-3.3-0.7-2.9-2.7 0.2-0.6 0.7-1.3 1.3-1.3 0.9 0.1 4.3 0.9 7.2 1.7 4.3 1.2 10.4 3.2 14.3 4.7 0-3-6.4-5-4.1-7 2.7-1.9 8.5 4.3 9.1 9.1 1.9 0.7 4.6 2.1 6.7 3.1 1.1 0.4 7.7 4.1 9.1 5l5 3.1c1.3 0.8 7.7 5.2 9.1 6.4 2 1.6 8.9 7.3 10.6 9 2.6 2.1 8.2 7.9 8.7 8.4 1.3 1.3 1.5 1.7 3.1 3.3 0.1 0.8-1.3 2.1-2.5 1l-1.8-1.8c-1.9 1.7-8.9 8.5-11.6 10.7-1.2 0.5-3.2-1.3-2.5-2.8 3.2-3.3 4-3.9 6.2-6.2-1.1-1.5-3.3-3.2-5.1-3.5-1-0.1-2.2 0.8-4.4 0.1-1.1-0.3-3.6-1.8-3.6-4.9-3.5 3 0.9 7.5 4.8 8.2 2.1 0.4 0.9 3.9-1.4 3.5-1.8 0-4.6-1.2-6.5-2.9-1.9-1.7-2.5-4-2.5-5.8-0.2-2.7 1.2-4.8 2.6-6.7 2-2.1 2.9-3.2 4.2-3.7 2.2-0.9 4.3 1.9 1.1 5.5-0.2 1.7 1.4 3.4 3.7 3 1.5-0.5 2.5-1.5 2.7-3.6 0-0.7-0.5-2.2-1.1-3.1-1.8-2.7-5.2-4.8-5.7-5.1l-7.2-5c-0.7-0.5-5.6-3.6-8.9-5.3 0.6 2.4-1.6 5.5-3 6.8zm-25.5-11.7c1.3-2.7 1.9-4.2 2.6-6.3l-2.7-1.2c-1.3-0.4-1.9-0.6-2.8-0.8 1.2 0.9 2.4 2.4 1.7 5.1-1 2.8-3.2 3.3-5.7 3.1 0.9 0.7 4.2 2.3 6.9 0.1zm58.7 31.7l2.4-2.1c-1.5-1.9-3.5-4-4.8-4.6-4.7 1.9-0.3 6.1 2.4 6.7z"/><path fill-rule="evenodd" class="b" d="m323 106.9c-1-1.4-2.8-4-3.2-4.4l-1.5 1.4c1.5 0.7 4.1 3.5 4.9 5.4 0.7 1.5 1.9 3.9 1.2 7.1-0.2 0.8-1 2-2.3 2.9-6.6 4-12.5-2.1-11.9-6.1 0.2-1.4 2-2.6 2.5-1.7 1 1.6 3.3 7.7 7.1 5.2 3.7-2.4-0.7-7-2.3-8.3-1-0.8-2.5-1.2-3.4-0.8-2.1 1.7-4.1 3.2-6.6 5.5-2 1.4-4.3-2-3.6-3.3 2.1-1.9 2.5-2.1 2.9-2.6-2.4-1.3-6.6-5-6.6-9.5 0-1.9 0.4-2.7 1-3.6 1.2-1.6 3-2.8 4.7-3 5.2-0.5 8 4.7 10.4 9.6 0.8-0.6 0.9-0.9 1.2-1.1-0.6-1.1-6.1-8.5-7.8-10.9-0.2-0.9 1.2-1.7 2.1-0.6 1 1.4 2.4 3 3.6 4.6 0.7 0.9 1.9 2.4 3 3.8 0.9 1.3 5.4 7.6 6.6 9.5 1.3 1.8 2.7 4.1 4.1 6.3l1.2 1.9c0.2 0.8-1.3 1.6-2 0.7-1.4-1.8-1.6-2.3-2.3-3.3-1.1-1.7-1.8-2.9-3-4.7zm-12.8-1.9c1.3-1.1 1.3-1.3 2.2-1.9-0.2-3.8-2.4-7.6-5.6-6.9-4.6 2 1.7 7.2 3.4 8.8zm-187.6-42.7c0.6 3.4 1.3 3.6 0 6.4-0.9 1.8-3.2 3.8-5.4 4.3-1 0.2-2.7 0-2.8 0-4-1.4-6.4-5.4-2.5-10 1.8-1.5 4.6-2.9 5-3.1l3.9-2.1c0.9-0.5 2.7-1.2 3.8-1.8 0.7 1 0.8 1.6 1.7 3.1-2.1 1.2-4.1 1.7-3.7 3.2zm-8.6 5.9c0.3 1.3 2.5 2.3 3.9 1.4 2.6-2.3 1-4.5-0.6-4.8-1.6-0.4-3.9 0.5-3.3 3.4z"/><path fill-rule="evenodd" class="b" d="m280.3 70.1c1.4 0.7 3.4-1.8 2.2-2.9l-1.1-1-3.3-2.7c-0.4-0.3-2.6-2.3-4.6-3.3-5.6-1.7-8.2 2-7.9 6.3 0 0 0.4 1.7 1 2.5 1.3 1.8 3.9 3.1 5.9 3.2 2.9 0.1 2.8-0.7 5.6-2.6 0.7-0.5 1.4-0.2 2.2 0.5zm-6.4-4.3c0.3 1.6-0.9 4-4 2.5-1.4-0.9-1.3-3.3-0.2-4.2 2.3-1.6 3.9 0.1 4.2 1.7zm-50.3-13c-0.8-1.2-7.3 1.6-8.7-2.7 1.1-1.8 4.5-0.3 6.7-0.9 1.7-0.6 3.2-2 4.3-3.9 0.6-1.1 1.6-3.8 1-6.2-0.3-1.3-1.1-3.1-2.3-4-1-0.7-2.2-1.5-4.6-1.9-2.5-0.5-10-1.5-12.8 1.9-0.9 1 0 3.3 1.7 3.4 4.4-2.2 13.7-2.6 13.6 2.5-0.4 4.1-4.4 5.2-8.5 3.4-3.6-1.6-6.3-5.4-9.3-3.4-1.1 1.7-0.6 4 0 4.9 0.6 0.8 2.4 2.5 4.2 2.5 0.1 0.9 1.2 3.1 2.6 4.5 4.6 4.6 8.4 4.4 10.5 4.4 1.5 0 3.1-2.4 1.6-4.5z"/><path fill-rule="evenodd" class="b" d="m191.8 48.1c-2.8-0.3-6.8 0.2-8.4-1.3 0-3.4 0.1-7.1 0.2-10.5-1.1 0-2.6 0.2-3.6 0.1-1.4-0.3-1.3-2.2-0.6-2.9 1.9-0.2 3.7-0.3 5.9-0.5 1.3-0.1 2.4-0.1 4.2-0.2 5-0.3 10.3-0.2 15.7 0 0.3 1.3 0.1 2.3-0.3 2.9-0.5 0.1-1.2 0.1-1.9 0.1-0.3 0.8-0.7 8.5-3.5 9.6-1.4-0.3-3.1-0.9-3.3-2.6 1.5-1.3 1.9-4 1.8-7-2.8-0.1-5.4 0-8.5 0.1q0 3.4-0.1 6.7c2 0.1 4.4 1.5 5.1 1.9 0.6 0.3 3.1 1.8 3.6 2.1 2.4 1.3 7.5 2 6.4 4.9-1.9 2.7-8-3-12.7-3.4zm-89.8 20.2c-0.8 0-2.5 1.3-2.2 2 0.5 0.7 1.7 2.2 3 3.9l-1.4 1c-1.9 1.2-3.7 2.5-5 3.3-0.9 0.6-4 2.7-3 4.1 1.5 1.5 6.5-6.9 12.5-6.3 1.1 0.2 2.4 1.5 2.5 2.6 0.7 3.7-3.7 5.2-1.7 6.7 1.4 0 4.9-2.8 5.9-2.5 1.5 2.3 0 3.3-1.6 4.2-1.9 1.1-6.3 3.1-10.5 3.1-1.2 0.5-5.5 2.9-7.4 2-0.6-1.1-0.9-2.9 0-3.7 1.1-1.1 4.2-0.8 5.8-1.5 3.1-2 5.3-5 3.6-5.8-3-0.2-6.4 8.2-12.5 6.2-1-0.3-1.8-1.6-1.9-2.8-0.4-5.1 4.6-8.7 7.9-10.2-0.3-0.4-0.4-0.6-1.2-1.4-1.5 1.3-3.4 2.5-4.9 3.7-1.7 1.3-3.4 2.6-5.2 4.5-1.2 0.5-2.5-1.3-2-2.1 1.2-1.1 2.5-2 3.6-3.1l2.4-2c1.5-1.2 4.6-3.6 5.1-4 2.9-2.1 5.3-3.9 7.8-5.6 1.1-2.2 1.9-4 2.6-5.3 0.9-1.8 1.8-3 3.9-5.4 1.4-1.6 4.7-4.2 7.3-5.5 2.2-1.2 5.5-2.3 6.6-2.6 2.2-0.6 5.6-0.9 7.3-0.9 4.9 0 4.3 0.3 10.5-0.8 2-0.5 6.7-2.5 8.7-3 2.7-0.9 4.2-1.3 6.6-2.1 2.4-0.7 5.6-1.5 5.6-1.5 3.3-0.8 7.9-1.8 8.7-2 1.5-0.3 4-0.8 4.9-0.9 1 0 0.9 1 1.1 1.9 0.4 1.8-1 1.6-1.7 1.9-0.6 0.3-1.1 0.2-0.8 1.4 0.9 5.8 1.2 6.5 1.9 12 0.5 2.4-3.7 3.8-4.3 1-0.7-3.9-2.5-12.3-2.8-13.6-0.4-0.6-2.8-0.3-2.6 1 0.9 3.4 2.7 11.7 3 13.7 0.3 2-3.8 2.9-4.4 0.3l-0.7-2.9c-1.2 4.2-4.9 5.4-8.3 4.1-1.6-0.6-2.7-1-3.3-0.6-0.8 0.7-2.6-0.1-2.2-1.9 2.4-2.7 3.3-2 3.3-5.4-0.8-4.1-9.8-3-11 0 0.5 1.6 0.6 1.4 1.5 3.6-3 1.4-11.8 3.2-11.8 7.4 0 1.4 3.9 0.3 5.3-0.7 0.7-0.4 3.3-2 5.4-3.2 4.9-2.7 7 1.3 7.2 2.2 0.5 3.7-4.3 7.3-6.7 8.5-0.3 0.1-3.9 1.5-8 2-2.7 0.4-4.7 0.6-5.6-0.3-1.8-3.8 7.8-3.8 10.2-4.3 4.3-0.5 5.7-4.2 3.4-4.2-4.9 2.1-13.3 6.9-15.3 1.7-1.9-6.9 6.2-8 9.2-10l-1-0.9c-0.8 0.2-1.9 0.7-2.5 1-0.1 0.1-10.4 5.1-11.7 5.8-4 2.4-13.2 7.8-14.6 9.2 0.7 1.2 7.7 10.7 8.7 12.7 0.4 2.1-2.4 3.7-4.2 2.6-0.9-1-7.8-11.1-9-12.3zm6.1-9.1c0.3 1.1 1.3 0.3 1.8 0 0.9-0.6 2.5-1.5 3.3-2 1.5-0.9 10.3-5.7 14.4-7.7 0-1.4-2.9-0.8-3.9-0.5-3.2 0.7-4.6 1.2-7.4 2.6-0.5 0.2-2.4 1.6-3.6 2.7-1.7 1.5-4.7 4.2-4.6 4.9zm47.3-7.2c3.5 0.4 5.9-1.9 6.3-5-0.5-2-1-3.7-1.5-5.8-2.6 0.2-3.3 0.4-5.1 1.2 1.1 1.1 2.6 1.8 2.5 5.1-0.3 2.5-0.4 2.7-2.2 4.5zm166.5 73.8c0 1.6-1.3 2.9-2.9 2.9-1.6 0-2.9-1.3-2.9-2.9 0-1.6 1.3-2.9 2.9-2.9 1.6 0 2.9 1.3 2.9 2.9z"/><path fill-rule="evenodd" class="b" d="m323.6 94.6c-1.6 0-2.9 1.3-2.9 2.9 0 1.6 1.3 2.9 2.9 2.9 1.5 0 2.8-1.3 2.8-2.9 0-1.6-1.3-2.9-2.8-2.9zm11.4 67.1c-1.6 0-2.9 1.3-2.9 2.9 0 1.6 1.3 2.9 2.9 2.9 1.6 0 2.9-1.3 2.9-2.9 0-1.6-1.3-2.9-2.9-2.9z"/></svg>