<?xml version="1.0" encoding="UTF-8" standalone="no"?>
<svg
   clip-rule="evenodd"
   fill-rule="evenodd"
   stroke-linejoin="round"
   stroke-miterlimit="2"
   viewBox="0 0 560 270"
   version="1.1"
   id="svg2"
   sodipodi:docname="SCOR_SE.svg"
   width="560"
   height="270"
   inkscape:version="1.4.3 (0d15f75042, 2025-12-25)"
   xmlns:inkscape="http://www.inkscape.org/namespaces/inkscape"
   xmlns:sodipodi="http://sodipodi.sourceforge.net/DTD/sodipodi-0.dtd"
   xmlns="http://www.w3.org/2000/svg"
   xmlns:svg="http://www.w3.org/2000/svg">
  <defs
     id="defs2" />
  <sodipodi:namedview
     id="namedview2"
     pagecolor="#ffffff"
     bordercolor="#000000"
     borderopacity="0.25"
     inkscape:showpageshadow="2"
     inkscape:pageopacity="0.0"
     inkscape:pagecheckerboard="0"
     inkscape:deskcolor="#d1d1d1"
     inkscape:zoom="0.36964286"
     inkscape:cx="280"
     inkscape:cy="198.84058"
     inkscape:window-width="1600"
     inkscape:window-height="864"
     inkscape:window-x="0"
     inkscape:window-y="0"
     inkscape:window-maximized="1"
     inkscape:current-layer="svg2" />
  <g
     fill="#006a8d"
     transform="matrix(0.36748366,0,0,0.36748366,33.188406,67.546638)"
     id="g2">
    <path
       d="m 1333,377.481 h -11.02 l -31.94,-33.175 v 33.175 h -7.99 V 282.52 h 7.99 v 56.849 l 28.89,-26.462 h 10.27 l -31.56,28.614 z m -82.5,-59.256 c -8.23,0 -13.93,2.531 -13.93,10.76 0,12.03 31.8,10.512 31.8,31.656 0,13.674 -12.8,18.359 -22.55,18.359 -6.21,0 -12.43,-0.759 -18.12,-3.038 l 0.75,-7.852 c 4.82,2.407 10.65,4.054 16.86,4.054 7.6,0 14.31,-4.18 14.31,-11.523 0,-15.322 -31.04,-12.915 -31.04,-31.656 0,-12.788 10.4,-17.597 21.03,-17.597 3.42,0 10.27,0.759 15.97,2.911 l -0.76,6.964 c -4.18,-1.9 -9.89,-3.038 -14.32,-3.038 z m -44.6,-22.539 h 7.98 V 285.05 h -7.98 z m 0,81.795 h 7.98 v -64.574 h -7.98 z M 1154.96,296.7 h -9 v 31.525 h 9.25 c 10.27,0 22.05,-3.923 22.05,-16.205 0,-14.434 -10.26,-15.32 -22.3,-15.32 z m 11.4,35.705 v 0.254 c 7.1,0.884 8.62,4.683 11.41,10.636 l 15.08,34.186 h -9.63 l -12.8,-29.882 c -5.07,-11.396 -8.87,-11.777 -17.24,-11.777 h -7.22 v 41.659 h -8.75 v -88.379 h 22.82 c 15.71,0 25.98,6.711 25.98,22.918 0,11.396 -8.75,18.993 -19.65,20.385 z m -76.92,-43.175 c -1.65,-0.887 -4.06,-1.393 -6.34,-1.393 -10.9,0 -9.76,11.774 -9.76,19.498 v 5.572 h 14.58 v 6.838 h -14.58 v 57.736 h -7.98 v -57.736 h -13.05 v -6.838 h 13.05 v -4.685 c 0,-13.547 0.5,-27.222 17.11,-27.222 2.53,0 5.95,0.379 7.48,1.266 z m -74.13,28.995 c -13.94,0 -21.421,12.028 -21.421,26.967 0,14.94 7.481,26.972 21.421,26.972 13.94,0 21.42,-12.032 21.42,-26.972 0,-14.939 -7.48,-26.967 -21.42,-26.967 z m 0,60.775 c -20.915,0 -30.167,-16.207 -30.167,-33.808 0,-17.6 9.252,-33.804 30.167,-33.804 20.91,0 30.15,16.204 30.15,33.804 0,17.601 -9.24,33.808 -30.15,33.808 z M 915.7,318.225 c -11.784,0 -19.009,11.774 -19.009,22.41 h 35.486 c 0,-11.268 -4.563,-22.41 -16.477,-22.41 z m -19.009,29.246 c 0,13.675 7.349,24.693 21.29,24.693 5.831,0 14.32,-2.407 18.122,-4.814 v 8.103 c -5.574,2.279 -12.799,3.547 -18.755,3.547 -21.418,0 -29.401,-14.434 -29.401,-33.808 0,-19.752 10.898,-33.804 27.247,-33.804 18.249,0 25.726,14.685 25.726,32.031 v 4.052 z m -31.297,-29.246 c -15.59,0 -24.332,11.268 -24.332,26.967 0,14.689 8.869,26.972 23.445,26.972 5.067,0 9.757,-1.142 14.574,-2.916 l 0.76,7.473 c -5.45,1.898 -10.518,2.279 -16.601,2.279 -20.785,0 -30.925,-15.829 -30.925,-33.808 0,-19.879 12.8,-33.804 31.937,-33.804 7.731,0 13.308,1.77 15.589,2.53 l -0.633,7.597 c -4.311,-1.898 -9.507,-3.29 -13.814,-3.29 z m -55.633,59.256 v -39.253 c 0,-12.155 -4.307,-20.003 -15.334,-20.003 -14.575,0 -19.137,12.788 -19.137,23.551 v 35.705 h -7.982 v -49.38 c 0,-4.939 0,-10.003 -0.509,-15.194 h 7.731 v 11.519 h 0.254 c 2.66,-5.823 7.477,-13.038 20.912,-13.038 15.968,0 22.051,10.636 22.051,24.815 v 41.278 z m -82.244,-59.256 c -11.785,0 -19.01,11.774 -19.01,22.41 h 35.484 c 0,-11.268 -4.563,-22.41 -16.474,-22.41 z m -19.01,29.246 c 0,13.675 7.349,24.693 21.291,24.693 5.828,0 14.32,-2.407 18.122,-4.814 v 8.103 c -5.574,2.279 -12.8,3.547 -18.755,3.547 -21.418,0 -29.401,-14.434 -29.401,-33.808 0,-19.752 10.897,-33.804 27.247,-33.804 18.249,0 25.725,14.685 25.725,32.031 v 4.052 z M 677.08,295.686 h 7.986 V 285.05 h -7.986 z m 0,81.795 h 7.986 v -64.574 h -7.986 z m -27.367,-59.256 c -15.589,0 -24.333,11.268 -24.333,26.967 0,14.689 8.871,26.972 23.445,26.972 5.068,0 9.757,-1.142 14.574,-2.916 l 0.761,7.473 c -5.451,1.898 -10.518,2.279 -16.601,2.279 -20.785,0 -30.924,-15.829 -30.924,-33.808 0,-19.879 12.802,-33.804 31.936,-33.804 7.731,0 13.307,1.77 15.589,2.53 l -0.634,7.597 c -4.311,-1.898 -9.505,-3.29 -13.813,-3.29 z M 583.941,295.18 c -9.124,0 -19.134,3.799 -19.134,15.194 0,17.727 40.552,17.851 40.552,43.681 0,17.854 -15.335,24.945 -29.021,24.945 -8.616,0 -15.332,-1.773 -20.022,-3.798 l 0.888,-8.992 c 5.195,3.293 11.278,5.193 19.515,5.193 10.9,0 19.898,-5.571 19.898,-18.108 0,-17.346 -40.555,-19.498 -40.555,-42.667 0,-14.183 12.42,-23.045 28.006,-23.045 4.311,0 11.279,0.633 17.362,2.912 l -1.394,7.978 c -3.928,-2.155 -10.136,-3.293 -16.095,-3.293 z m -122.033,38.363 c -8.364,3.293 -16.601,10.635 -16.601,20.387 0,12.029 9.885,18.234 20.53,18.234 7.982,0 16.729,-4.054 21.796,-10.259 z m 19.897,-26.335 c 0,-8.357 -5.068,-12.788 -12.548,-12.788 -7.476,0 -14.574,4.304 -14.574,12.915 0,6.964 5.198,12.661 10.012,17.978 7.731,-3.671 17.11,-7.723 17.11,-18.105 z m 31.176,70.019 H 501.83 l -9.38,-9.877 c -7.224,8.103 -16.474,11.65 -26.867,11.65 -14.954,0 -29.022,-7.597 -29.022,-24.691 0,-13.547 9.125,-21.144 20.912,-25.703 -5.45,-6.204 -11.533,-12.914 -11.533,-21.777 0,-12.663 12.166,-19.246 23.826,-19.246 10.518,0 20.782,5.823 20.782,18.233 0,13.801 -10.645,18.738 -21.291,24.055 l 23.32,25.957 c 5.575,-7.975 7.605,-17.345 7.605,-26.843 h 7.603 c 0,11.395 -3.295,23.045 -9.885,31.907 z m -127.108,-5.063 c 3.042,0 5.071,-0.634 7.352,-1.52 l 0.506,6.583 c -1.9,0.759 -5.828,1.773 -9.757,1.773 -14.193,0 -14.702,-9.752 -14.702,-21.525 v -37.73 H 356.6 v -6.838 h 12.672 v -15.575 l 7.985,-2.784 v 18.359 h 14.699 v 6.838 h -14.699 v 41.783 c 0,5.822 2.154,10.636 8.616,10.636 z m -39.282,-52.419 c -12.673,0 -16.095,14.179 -16.095,25.829 v 31.907 h -7.983 v -50.139 c 0,-7.092 0,-9.752 -0.509,-14.435 h 7.986 v 12.406 h 0.254 c 2.915,-7.215 8.364,-13.925 16.601,-13.925 1.9,0 4.181,0.378 5.574,0.759 v 8.357 c -1.644,-0.508 -3.801,-0.759 -5.828,-0.759 z m -75.78,-22.286 -19.261,48.747 h 38.397 z m 31.556,80.022 -9.505,-23.678 h -44.609 l -9.506,23.678 h -8.488 l 36.243,-88.379 h 9.885 l 35.106,88.379 z M 164.236,318.225 c -11.787,0 -19.01,11.774 -19.01,22.41 h 35.484 c 0,-11.268 -4.562,-22.41 -16.474,-22.41 z m -19.01,29.246 c 0,13.675 7.35,24.693 21.291,24.693 5.829,0 14.321,-2.407 18.122,-4.814 v 8.103 c -5.577,2.279 -12.799,3.547 -18.755,3.547 -21.418,0 -29.403,-14.434 -29.403,-33.808 0,-19.752 10.899,-33.804 27.249,-33.804 18.249,0 25.726,14.685 25.726,32.031 v 4.052 z m -31.299,30.01 v -38.493 c 0,-11.141 -2.154,-20.763 -15.335,-20.763 -14.192,0 -19.137,13.42 -19.137,24.689 v 34.567 H 71.472 V 282.52 h 7.983 v 41.274 h 0.255 c 3.423,-7.088 10.645,-12.406 20.151,-12.406 17.362,0 22.052,11.519 22.052,27.473 v 38.62 z M 34.85,296.7 v 80.781 H 26.108 V 296.7 H 0 v -7.598 h 60.958 v 7.598 z"
       id="path1" />
    <path
       d="m 204.046,1.719 c 39.759,4.207 92.402,20.512 97.595,22.146 -8.655,15.266 -15.801,36.519 -33.95,36.519 -13.414,0 -50.776,-14.511 -92.439,-14.511 -17.136,0 -50.355,2.635 -50.355,21.29 -0.074,32.179 170.513,22.195 163.626,94.278 -4.08,43.315 -59.764,76.792 -134.746,76.792 C 90.823,238.233 28.983,216.535 6,204.46 c 6.565,-10.409 8.988,-14.03 18.644,-29.427 2.855,-4.643 8.271,-7.365 15.12,-6.648 9.532,0.965 62.335,22.64 103.961,23.778 25.778,0.733 64.24,0.14 66.935,-23.002 C 214.789,133.449 52.931,142.32 52.931,71.988 52.931,35.716 99.601,-9.365 204.046,1.719 Z M 611.35,36.953 c -18.051,20.635 -25.097,32.994 -45.695,32.994 -21.128,0 -37.979,-18.508 -90.819,-18.508 -53.545,0 -86.789,31.3 -86.789,70.146 0,53.358 60.9,65.258 86.863,65.258 80.867,0 157.877,-95.419 217.815,-136.33 C 733.077,21.872 775.088,0 842.565,0 940.334,0 999.232,55.807 999.232,121.585 999.232,185.54 937.033,239 843.048,239 766.52,239 720.071,217.474 671.954,170.645 l 39.933,-35.996 c 20.498,22.305 67.576,52.194 126.945,52.194 44.915,0 90.485,-25.856 90.485,-65.258 0,-40.157 -33.628,-70.146 -86.714,-70.146 -134.45,0 -198.713,186.794 -367.347,186.794 -62.619,0 -148.21,-24.223 -157.408,-106.12 0,-0.953 -0.099,-17.84 0,-19.917 C 322.781,47.086 395.934,0 477.395,0 526.6,0 577.673,19.683 611.35,36.953 Z m 633.53,195.689 c -11.89,-3.167 -21.95,-11.036 -31.64,-22.664 -27.3,-32.883 -63.58,-76.776 -73.23,-88.925 30.85,-4.788 120.81,-7.683 120.81,-47.865 0,-22.837 -34.63,-27.538 -60.26,-27.538 -71.43,0 -81.07,48.718 -90.88,77.037 0,0 -29.76,94.961 -34.93,111.514 h -68.77 l 35.43,-112.677 C 1062.83,47.518 1102.84,0 1205.79,0 1268.54,0 1330,19.683 1330,65.779 c 0,53.789 -67.87,71.901 -106.65,76.725 l 91.47,91.697 h -57.59 c -4.36,0 -8.46,-0.521 -12.35,-1.559 z"
       id="path2" />
  </g>
</svg>
