<?xml version="1.0" encoding="UTF-8" standalone="no"?>
<svg
   clip-rule="evenodd"
   fill-rule="evenodd"
   stroke-linejoin="round"
   stroke-miterlimit="2"
   viewBox="0 0 760 250"
   version="1.1"
   id="svg2"
   sodipodi:docname="Swiss_Re.svg"
   width="760"
   height="250"
   inkscape:version="1.4.3 (0d15f75042, 2025-12-25)"
   xmlns:inkscape="http://www.inkscape.org/namespaces/inkscape"
   xmlns:sodipodi="http://sodipodi.sourceforge.net/DTD/sodipodi-0.dtd"
   xmlns="http://www.w3.org/2000/svg"
   xmlns:svg="http://www.w3.org/2000/svg">
  <defs
     id="defs2" />
  <sodipodi:namedview
     id="namedview2"
     pagecolor="#ffffff"
     bordercolor="#000000"
     borderopacity="0.25"
     inkscape:showpageshadow="2"
     inkscape:pageopacity="0.0"
     inkscape:pagecheckerboard="0"
     inkscape:deskcolor="#d1d1d1"
     inkscape:zoom="0.9560008"
     inkscape:cx="320.60642"
     inkscape:cy="274.58136"
     inkscape:window-width="1600"
     inkscape:window-height="900"
     inkscape:window-x="0"
     inkscape:window-y="0"
     inkscape:window-maximized="1"
     inkscape:current-layer="svg2" />
  <g
     fill="#4a6f67"
     fill-rule="nonzero"
     transform="matrix(1.1774467,0,0,1.1774467,4.4966308,34.84561)"
     id="g2">
    <path
       d="M 115.642,56.269 H 41.79 V 40.718 h 73.852 z m -0.647,59.599 H 98.537 V 67.924 h 16.458 z m -28.116,0 H 70.422 V 67.924 h 16.457 z m -27.987,0 H 42.437 V 67.924 H 58.892 Z M 78.651,4.431 C 37.864,4.431 4.8,37.494 4.8,78.28 c 0,40.787 33.064,73.851 73.851,73.851 40.787,0 73.85,-33.064 73.85,-73.851 0,-40.786 -33.063,-73.849 -73.85,-73.849"
       id="path1" />
    <path
       d="m 608.142,71.486 c 7.816,0 9.312,6.483 9.65,12.805 h -18.461 c 0.162,-5.658 1.829,-12.805 8.811,-12.805 z m 1.001,36.413 c -8.316,0 -9.812,-7.15 -9.812,-14.128 h 34.593 c 0,-16.801 -5.987,-31.764 -25.443,-31.764 -16.799,0 -25.276,13.635 -25.276,29.102 0,16.126 9.639,26.271 25.766,26.271 10.984,0 22.285,-4.65 23.119,-16.961 h -13.964 c -1.006,4.985 -3.825,7.48 -8.983,7.48 M 545.282,73.144 h -11.64 V 52.528 h 11.802 c 6.659,0 12.146,2.82 12.146,10.143 0,7.48 -5.487,10.473 -12.308,10.473 z m 12.969,5.489 c 9.317,-2.659 16.304,-8.312 16.304,-18.622 0,-14.472 -13.474,-19.29 -25.948,-19.29 h -31.093 v 75.165 h 16.128 V 85.454 h 12.641 c 14.47,0 10.973,20.12 13.297,30.432 h 17.633 c -7.988,-14.138 1.667,-33.262 -18.962,-37.253 m -73.5,-1.331 h -13.97 c -0.333,-3.826 -3.827,-5.816 -7.48,-5.816 -3.328,0 -8.151,0.997 -7.985,5.319 0.167,3.327 3.827,4.323 6.484,4.985 l 5.992,1.504 c 9.147,1.993 19.622,5.816 19.622,16.793 0,13.301 -13.644,17.293 -24.618,17.293 -10.807,0 -21.449,-4.82 -22.28,-16.461 h 14.469 c 0.498,4.655 4.158,6.98 8.648,6.98 3.992,0 9.14,-1.661 9.14,-6.481 0,-9.977 -31.261,-2.83 -31.261,-23.117 0,-12.305 12.31,-16.294 22.619,-16.294 9.48,0 18.959,3.823 20.454,14.134 z m -51.383,0 h -13.969 c -0.339,-3.826 -3.827,-5.816 -7.487,-5.816 -3.328,0 -8.151,0.997 -7.985,5.319 0.166,3.327 3.827,4.323 6.49,4.985 l 5.986,1.504 c 9.147,1.993 19.623,5.816 19.623,16.793 0,13.301 -13.638,17.293 -24.612,17.293 -10.808,0 -21.449,-4.82 -22.287,-16.461 h 14.468 c 0.498,4.655 4.159,6.98 8.649,6.98 3.993,0 9.147,-1.661 9.147,-6.481 0,-9.977 -31.268,-2.83 -31.268,-23.117 0,-12.305 12.31,-16.294 22.619,-16.294 9.48,0 18.959,3.823 20.454,14.134 z M 364.349,53.69 h 16.634 V 40.721 h -16.634 z m 0.498,62.196 h 15.631 V 63.502 h -15.631 z m -44.068,0 -7.48,-24.945 c -1.667,-5.487 -2.663,-10.979 -3.826,-16.466 -0.837,3.993 -1.495,7.99 -2.664,11.811 l -1.162,4.158 -6.982,25.442 h -18.46 L 263.074,63.502 h 17.629 l 7.321,27.439 0.996,3.821 0.83,3.662 c 0.332,2.163 0.664,4.323 0.997,6.483 0.83,-6.319 2.331,-12.302 3.992,-18.289 l 6.483,-23.116 h 17.963 l 6.815,24.112 c 1.667,5.655 2.83,11.307 3.661,17.131 l 0.498,-2.997 c 0.663,-4.985 1.992,-9.808 3.494,-14.798 l 6.483,-23.448 h 16.8 l -17.962,52.384 z M 257.085,61.838 H 241.62 c -0.164,-7.32 -5.489,-11.476 -12.637,-11.476 -6.154,0 -13.301,2.325 -13.301,9.649 0,16.627 43.566,5.654 43.566,32.925 0,16.799 -14.468,24.444 -29.767,24.444 -17.464,0 -31.929,-6.146 -31.761,-25.275 h 16.463 c 0,8.314 4.491,13.968 13.302,13.968 6.487,0 15.136,-2.325 15.136,-10.144 0,-17.461 -42.906,-5.652 -42.906,-33.756 0,-16.634 15.465,-23.117 29.766,-23.117 15.133,0 26.607,7.318 27.604,22.782"
       id="path2" />
  </g>
  <g
     fill="#4a6f67"
     fill-rule="nonzero"
     transform="matrix(1.1774467,0,0,1.1774467,4.4966308,34.84561)"
     id="g4">
    <path
       d="M 115.642,56.269 H 41.79 V 40.718 h 73.852 z m -0.647,59.599 H 98.537 V 67.924 h 16.458 z m -28.116,0 H 70.422 V 67.924 h 16.457 z m -27.987,0 H 42.437 V 67.924 H 58.892 Z M 78.651,4.431 C 37.864,4.431 4.8,37.494 4.8,78.28 c 0,40.787 33.064,73.851 73.851,73.851 40.787,0 73.85,-33.064 73.85,-73.851 0,-40.786 -33.063,-73.849 -73.85,-73.849"
       id="path3" />
    <path
       d="m 608.142,71.486 c 7.816,0 9.312,6.483 9.65,12.805 h -18.461 c 0.162,-5.658 1.829,-12.805 8.811,-12.805 z m 1.001,36.413 c -8.316,0 -9.812,-7.15 -9.812,-14.128 h 34.593 c 0,-16.801 -5.987,-31.764 -25.443,-31.764 -16.799,0 -25.276,13.635 -25.276,29.102 0,16.126 9.639,26.271 25.766,26.271 10.984,0 22.285,-4.65 23.119,-16.961 h -13.964 c -1.006,4.985 -3.825,7.48 -8.983,7.48 M 545.282,73.144 h -11.64 V 52.528 h 11.802 c 6.659,0 12.146,2.82 12.146,10.143 0,7.48 -5.487,10.473 -12.308,10.473 z m 12.969,5.489 c 9.317,-2.659 16.304,-8.312 16.304,-18.622 0,-14.472 -13.474,-19.29 -25.948,-19.29 h -31.093 v 75.165 h 16.128 V 85.454 h 12.641 c 14.47,0 10.973,20.12 13.297,30.432 h 17.633 c -7.988,-14.138 1.667,-33.262 -18.962,-37.253 m -73.5,-1.331 h -13.97 c -0.333,-3.826 -3.827,-5.816 -7.48,-5.816 -3.328,0 -8.151,0.997 -7.985,5.319 0.167,3.327 3.827,4.323 6.484,4.985 l 5.992,1.504 c 9.147,1.993 19.622,5.816 19.622,16.793 0,13.301 -13.644,17.293 -24.618,17.293 -10.807,0 -21.449,-4.82 -22.28,-16.461 h 14.469 c 0.498,4.655 4.158,6.98 8.648,6.98 3.992,0 9.14,-1.661 9.14,-6.481 0,-9.977 -31.261,-2.83 -31.261,-23.117 0,-12.305 12.31,-16.294 22.619,-16.294 9.48,0 18.959,3.823 20.454,14.134 z m -51.383,0 h -13.969 c -0.339,-3.826 -3.827,-5.816 -7.487,-5.816 -3.328,0 -8.151,0.997 -7.985,5.319 0.166,3.327 3.827,4.323 6.49,4.985 l 5.986,1.504 c 9.147,1.993 19.623,5.816 19.623,16.793 0,13.301 -13.638,17.293 -24.612,17.293 -10.808,0 -21.449,-4.82 -22.287,-16.461 h 14.468 c 0.498,4.655 4.159,6.98 8.649,6.98 3.993,0 9.147,-1.661 9.147,-6.481 0,-9.977 -31.268,-2.83 -31.268,-23.117 0,-12.305 12.31,-16.294 22.619,-16.294 9.48,0 18.959,3.823 20.454,14.134 z M 364.349,53.69 h 16.634 V 40.721 h -16.634 z m 0.498,62.196 h 15.631 V 63.502 h -15.631 z m -44.068,0 -7.48,-24.945 c -1.667,-5.487 -2.663,-10.979 -3.826,-16.466 -0.837,3.993 -1.495,7.99 -2.664,11.811 l -1.162,4.158 -6.982,25.442 h -18.46 L 263.074,63.502 h 17.629 l 7.321,27.439 0.996,3.821 0.83,3.662 c 0.332,2.163 0.664,4.323 0.997,6.483 0.83,-6.319 2.331,-12.302 3.992,-18.289 l 6.483,-23.116 h 17.963 l 6.815,24.112 c 1.667,5.655 2.83,11.307 3.661,17.131 l 0.498,-2.997 c 0.663,-4.985 1.992,-9.808 3.494,-14.798 l 6.483,-23.448 h 16.8 l -17.962,52.384 z M 257.085,61.838 H 241.62 c -0.164,-7.32 -5.489,-11.476 -12.637,-11.476 -6.154,0 -13.301,2.325 -13.301,9.649 0,16.627 43.566,5.654 43.566,32.925 0,16.799 -14.468,24.444 -29.767,24.444 -17.464,0 -31.929,-6.146 -31.761,-25.275 h 16.463 c 0,8.314 4.491,13.968 13.302,13.968 6.487,0 15.136,-2.325 15.136,-10.144 0,-17.461 -42.906,-5.652 -42.906,-33.756 0,-16.634 15.465,-23.117 29.766,-23.117 15.133,0 26.607,7.318 27.604,22.782"
       id="path4" />
  </g>
</svg>
