<svg width="148" height="48" viewBox="0 0 148 48" fill="none" xmlns="http://www.w3.org/2000/svg">
<path d="M145.025 2.88895C145.025 2.88947 145.026 2.88982 145.026 2.89034C145.027 2.89069 145.027 2.8912 145.028 2.89155L145.025 2.88895ZM140.864 7.07134C139.391 5.56617 137.003 5.56617 135.53 7.07134C134.057 8.57634 134.057 11.0166 135.53 12.5216C137.003 14.0268 139.391 14.0268 140.864 12.5216C142.337 11.0166 142.337 8.57634 140.864 7.07134ZM123.297 32.7513C123.297 28.0843 119.678 24.3011 115.214 24.3011C110.751 24.3011 107.132 28.0843 107.132 32.7513C107.132 37.4184 110.751 41.2017 115.214 41.2017C119.678 41.2017 123.297 37.4184 123.297 32.7513ZM145.113 16.6605C142.843 18.9304 139.699 19.8823 136.75 19.4486C134.55 19.0776 132.576 19.3746 130.879 21.072C128.905 23.0466 128.827 25.3881 129.652 27.8689C131.454 33.1782 130.194 39.325 125.961 43.5576C120.023 49.4955 110.374 49.4734 104.436 43.5356C98.4984 37.5979 98.4764 27.9488 104.414 22.0109C108.647 17.7783 114.794 16.5182 120.103 18.3201C122.584 19.1446 124.925 19.0672 126.9 17.0926C128.597 15.3952 128.894 13.4214 128.523 11.2218C128.09 8.2725 129.041 5.12886 131.311 2.85897C135.123 -0.952499 141.302 -0.953018 145.114 2.85758C148.925 6.66974 148.924 12.849 145.113 16.6605ZM80.2134 17.5121C70.5469 17.5121 66.4573 23.0889 66.4573 31.4876V47.6268H73.816C73.816 47.6268 73.7744 34.4617 73.816 31.64C73.893 26.4349 76.1237 24.2042 80.2134 24.2042C84.303 24.2042 86.5338 26.4349 86.6105 31.64C86.6521 34.4617 86.6105 47.6268 86.6105 47.6268H93.9693V31.4876C93.9693 23.0889 89.8798 17.5121 80.2134 17.5121ZM51.6627 33.8707C51.5858 39.0757 49.355 41.3064 45.2654 41.3064C41.1757 41.3064 38.945 39.0757 38.8682 33.8707C38.8265 31.0489 38.8682 17.8934 38.8682 17.8934L31.5094 17.893V34.023C31.5094 42.4218 35.5991 47.9986 45.2654 47.9986C54.9318 47.9986 59.0215 42.4218 59.0215 34.023V17.893L51.6627 17.8934C51.6627 17.8934 51.7043 31.0489 51.6627 33.8707ZM9.2712 40.9346H24.8173V47.6268H7.75545C0.584725 47.6268 -2.24485 38.337 3.70808 34.3394L16.2273 25.9326C16.8019 25.5468 16.5314 24.6504 15.8393 24.6469L1.76646 24.576V17.8934L17.4015 17.8897C24.5668 17.8878 27.4026 27.1659 21.4606 31.1703L8.87861 39.6494C8.30368 40.0368 8.57789 40.9346 9.2712 40.9346Z" fill="#24B4B3"/>
</svg>
