<svg width="330" height="95" viewBox="0 0 330 95" fill="none" xmlns="http://www.w3.org/2000/svg">
  <path
    d="M33 5C41.5 10.6 51.6 13.9 62.5 14.4C62.9 24.5 61.1 34.1 57 43.1C51.9 54.3 43.6 63.7 33 70.4C22.4 63.7 14.1 54.3 9 43.1C4.9 34.1 3.1 24.5 3.5 14.4C14.4 13.9 24.5 10.6 33 5Z"
    stroke="#4169E1"
    stroke-width="6"
    stroke-linejoin="round"
  />
  <path
    d="M20 37L29 46L47 25"
    stroke="#4169E1"
    stroke-width="6"
    stroke-linecap="round"
    stroke-linejoin="round"
  />
  <path
    d="M100.687 59.96C109.434 59.96 115.223 55.205 115.223 48.028C115.223 41.613 111.65 38.224 102.902 35.976L98.791 34.929C92.266 33.266 89.909 31.016 89.909 26.554C89.909 20.868 94.704 16.884 102.163 16.884C109.059 16.884 113.758 20.337 115.162 26.267H111.105C109.812 21.875 106.273 19.374 102.111 19.374C96.825 19.374 93.092 22.014 93.092 26.195C93.092 29.446 95.16 31.542 100.828 33.004L104.937 34.051C113.556 36.262 118.406 39.951 118.406 47.61C118.406 55.785 111.904 62.45 100.557 62.45C90.844 62.45 84.557 57.17 83.628 48.658H87.607C88.655 55.006 93.213 59.96 100.687 59.96Z"
    fill="#4169E1"
  />
  <path
    d="M146.245 62.149C136.722 62.149 130.152 55.598 130.152 45.918C130.152 36.287 136.817 29.522 145.998 29.522C154.744 29.522 160.594 35.485 160.594 44.469V46.256H133.716C133.962 54.059 138.857 58.823 146.488 58.823C152.147 58.823 156.255 56.128 158.137 51.912H161.737C159.611 58.169 153.866 62.149 146.245 62.149ZM145.998 32.673C139.373 32.673 134.565 37.009 133.846 43.254H156.941C156.495 36.965 151.925 32.673 145.998 32.673Z"
    fill="#4169E1"
  />
  <path
    d="M178.513 62.149C171.217 62.149 165.996 57.764 165.996 51.372C165.996 45.187 170.29 41.899 178.411 41.403L191.737 40.653V36.919C191.737 33.06 188.729 30.462 183.583 30.462C178.968 30.462 175.769 32.509 174.938 35.948H171.433C172.236 30.625 177.408 27.327 183.642 27.327C191.096 27.327 195.278 31.173 195.278 37.737V61.35H191.737V55.78H191.646C189.271 59.744 184.466 62.149 178.513 62.149ZM179.041 59.015C186.079 59.015 191.737 54.255 191.737 48.638V43.631L178.802 44.395C172.357 44.783 169.573 46.811 169.573 50.986C169.573 55.201 173.18 59.015 179.041 59.015Z"
    fill="#4169E1"
  />
  <path
    d="M206.747 61.35V28.227H210.188V34.297H210.279C212.255 30.368 215.949 28.02 220.598 28.02C221.793 28.02 223.077 28.171 223.915 28.402V31.7C222.762 31.363 221.414 31.178 220.154 31.178C214.335 31.178 210.349 35.675 210.349 42.185V61.35H206.747Z"
    fill="#4169E1"
  />
  <path
    d="M244.186 62.149C234.648 62.149 228.086 55.413 228.086 45.826C228.086 36.281 234.724 29.522 244.12 29.522C252.274 29.522 258.424 34.184 259.714 41.535H256.145C254.816 36.48 250.496 32.673 244.12 32.673C236.835 32.673 231.669 38.123 231.669 45.826C231.669 53.571 236.814 58.996 244.12 58.996C250.318 58.996 254.817 55.436 256.145 50.111H259.714C258.424 57.652 252.372 62.149 244.186 62.149Z"
    fill="#4169E1"
  />
  <path
    d="M267.934 61.35V15.347H271.536V34.71H271.626C273.675 30.896 277.69 28.932 283.405 28.932C291.267 28.932 295.592 33.586 295.592 42.137V61.35H291.991V42.829C291.991 35.993 288.77 32.257 282.204 32.257C275.687 32.257 271.536 36.716 271.536 43.505V61.35H267.934Z"
    fill="#4169E1"
  />
  <path
    d="M315.757 62.149C308.461 62.149 303.24 57.764 303.24 51.372C303.24 45.187 307.534 41.899 315.654 41.403L328.98 40.653V36.919C328.98 33.06 325.972 30.462 320.826 30.462C316.211 30.462 313.012 32.509 312.181 35.948H308.677C309.479 30.625 314.651 27.327 320.886 27.327C328.339 27.327 332.521 31.173 332.521 37.737V61.35H328.98V55.78H328.89C326.515 59.744 321.709 62.149 315.757 62.149ZM316.284 59.015C323.322 59.015 328.98 54.255 328.98 48.638V43.631L316.045 44.395C309.601 44.783 306.816 46.811 306.816 50.986C306.816 55.201 310.423 59.015 316.284 59.015Z"
    fill="#4169E1"
  />
</svg>
